<svg width="382" height="207" viewBox="0 0 382 207" fill="none" xmlns="http://www.w3.org/2000/svg">
<path d="M91.9042 51.6941L87.823 50.4558C87.5408 49.4545 87.1528 48.4871 86.6657 47.5707L88.6636 43.7693C88.7386 43.6258 88.766 43.4616 88.7419 43.3009C88.7178 43.1403 88.6433 42.9919 88.5296 42.8777L85.6179 39.9059C85.5056 39.7904 85.3596 39.7147 85.2016 39.6902C85.0435 39.6656 84.882 39.6935 84.7408 39.7697L81.025 41.7881C80.1145 41.2688 79.1503 40.8536 78.1499 40.5498L76.9316 36.4512C76.8801 36.3002 76.7827 36.1697 76.6536 36.0784C76.5244 35.9872 76.3701 35.94 76.2128 35.9435H72.0951C71.9369 35.9443 71.783 35.9963 71.6559 36.0921C71.5289 36.1879 71.4351 36.3224 71.3885 36.476L70.1702 40.5622C69.1615 40.8643 68.189 41.2796 67.2707 41.8005L63.6159 39.7945C63.4747 39.7183 63.3131 39.6904 63.1551 39.7149C62.9971 39.7395 62.8511 39.8151 62.7387 39.9307L59.7783 42.8654C59.6646 42.9795 59.5901 43.128 59.566 43.2886C59.5419 43.4492 59.5693 43.6134 59.6443 43.7569L61.6179 47.4716C61.1063 48.4011 60.6977 49.3853 60.3996 50.4063L56.3671 51.6445C56.216 51.692 56.0836 51.7872 55.9894 51.9164C55.8952 52.0456 55.844 52.2019 55.8433 52.3627V56.548C55.844 56.7088 55.8952 56.8651 55.9894 56.9943C56.0836 57.1235 56.216 57.2187 56.3671 57.2662L60.424 58.5044C60.7253 59.5084 61.1338 60.4759 61.6423 61.3895L59.6443 65.2776C59.5693 65.4211 59.5419 65.5854 59.566 65.746C59.5901 65.9066 59.6646 66.055 59.7783 66.1692L62.69 69.1286C62.8023 69.2442 62.9483 69.3198 63.1064 69.3444C63.2644 69.3689 63.426 69.341 63.5671 69.2648L67.3316 67.2217C68.2221 67.7101 69.1615 68.1003 70.1336 68.3856L71.3519 72.5585C71.3986 72.7122 71.4923 72.8467 71.6194 72.9424C71.7465 73.0382 71.9003 73.0902 72.0585 73.091H76.1763C76.3345 73.0902 76.4883 73.0382 76.6154 72.9424C76.7425 72.8467 76.8362 72.7122 76.8829 72.5585L78.1012 68.3733C79.065 68.0864 79.9962 67.6963 80.8788 67.2093L84.6677 69.2648C84.8089 69.341 84.9704 69.3689 85.1285 69.3444C85.2865 69.3198 85.4325 69.2442 85.5448 69.1286L88.4565 66.1692C88.5702 66.055 88.6447 65.9066 88.6688 65.746C88.693 65.5854 88.6655 65.4211 88.5905 65.2776L86.5682 61.4391C87.0523 60.5385 87.4403 59.5879 87.7256 58.6035L91.8311 57.3652C91.9823 57.3178 92.1146 57.2226 92.2088 57.0934C92.3031 56.9642 92.3543 56.8078 92.355 56.6471V52.4246C92.3622 52.2707 92.3229 52.1181 92.2423 51.9875C92.1617 51.8569 92.0437 51.7545 91.9042 51.6941ZM74.154 61.3276C72.8287 61.3276 71.5332 60.9282 70.4313 60.1799C69.3295 59.4315 68.4706 58.3679 67.9635 57.1235C67.4563 55.879 67.3236 54.5097 67.5822 53.1886C67.8407 51.8676 68.4789 50.6541 69.416 49.7016C70.3531 48.7492 71.547 48.1005 72.8468 47.8378C74.1465 47.575 75.4938 47.7099 76.7181 48.2253C77.9425 48.7408 78.989 49.6137 79.7252 50.7336C80.4615 51.8536 80.8545 53.1703 80.8545 54.5173C80.8545 56.3235 80.1485 58.0557 78.8919 59.3329C77.6353 60.6101 75.931 61.3276 74.154 61.3276Z" fill="#8E8E8E"/>
<path d="M139.527 30.6312L133.857 28.0308C133.646 26.524 133.274 25.0455 132.749 23.6212L136.396 18.5069C136.533 18.3138 136.605 18.0812 136.601 17.8437C136.598 17.6062 136.52 17.3764 136.377 17.1885L132.745 12.3068C132.605 12.1172 132.408 11.9787 132.184 11.9119C131.96 11.8452 131.72 11.8537 131.501 11.9362L125.717 14.1273C124.5 13.195 123.185 12.4028 121.795 11.7651L120.839 5.58494C120.794 5.35588 120.679 5.14749 120.51 4.98977C120.341 4.83205 120.126 4.73314 119.898 4.70728L113.931 3.89406C113.701 3.8639 113.468 3.90893 113.265 4.02261C113.062 4.13629 112.899 4.31268 112.801 4.52611L110.229 10.2071C108.707 10.4457 107.216 10.8555 105.783 11.4289L100.882 7.80015C100.693 7.66185 100.464 7.5895 100.23 7.59385C99.9964 7.5982 99.7698 7.67902 99.5842 7.82431L94.7145 11.4924C94.5272 11.6355 94.39 11.8358 94.3233 12.0638C94.2566 12.2918 94.2639 12.5352 94.3442 12.758L96.4707 18.531C95.5457 19.7768 94.7592 21.1225 94.1256 22.5432L88.0374 23.5412C87.8089 23.5801 87.5984 23.692 87.4363 23.8606C87.2743 24.0292 87.1692 24.2457 87.1364 24.4785L86.3098 30.5437C86.2791 30.7768 86.3224 31.0136 86.4335 31.2193C86.5445 31.4251 86.7174 31.5893 86.9271 31.6879L92.5616 34.2835C92.8 35.798 93.201 37.2807 93.7573 38.7051L90.0941 43.945C89.9571 44.1382 89.8849 44.3707 89.8882 44.6083C89.8914 44.8458 89.97 45.0755 90.1122 45.2635L93.7473 50.1272C93.8873 50.3168 94.0839 50.4553 94.3081 50.5221C94.5322 50.5889 94.7719 50.5803 94.9915 50.4978L100.85 48.2804C102.044 49.1641 103.329 49.9151 104.681 50.5206L105.622 56.8084C105.66 57.0403 105.769 57.2537 105.934 57.4175C106.1 57.5814 106.312 57.6872 106.541 57.7195L112.509 58.5328C112.738 58.5629 112.971 58.5179 113.174 58.4042C113.377 58.2905 113.54 58.1141 113.638 57.9007L116.23 52.0761C117.683 51.8508 119.11 51.4693 120.485 50.938L125.57 54.665C125.759 54.8033 125.988 54.8756 126.222 54.8713C126.456 54.8669 126.682 54.7861 126.868 54.6408L131.672 50.9272C131.859 50.7841 131.996 50.5838 132.063 50.3558C132.13 50.1278 132.122 49.8844 132.042 49.6616L129.869 43.6995C130.749 42.49 131.499 41.1891 132.107 39.8189L138.301 38.8353C138.529 38.7964 138.74 38.6845 138.902 38.5159C139.064 38.3473 139.169 38.1308 139.202 37.898L140.036 31.779C140.076 31.5573 140.05 31.3285 139.959 31.1233C139.868 30.9181 139.717 30.7464 139.527 30.6312ZM111.901 41.0863C109.981 40.8246 108.182 39.99 106.733 38.6879C105.284 37.3858 104.25 35.6748 103.76 33.7713C103.271 31.8677 103.349 29.8571 103.985 27.9937C104.62 26.1303 105.785 24.4978 107.331 23.3026C108.877 22.1075 110.735 21.4033 112.671 21.2792C114.606 21.155 116.532 21.6166 118.205 22.6053C119.877 23.5941 121.221 25.0658 122.067 26.8342C122.913 28.6026 123.222 30.5883 122.956 32.5403C122.599 35.1578 121.234 37.5287 119.161 39.1314C117.088 40.7341 114.476 41.4373 111.901 41.0863Z" fill="#8E8E8E"/>
<path d="M104.89 99.2894V91.6894H106.33V99.2894H104.89ZM110.026 99.2894V94.6974C110.026 94.1321 109.85 93.6894 109.498 93.3694C109.157 93.0388 108.725 92.8734 108.202 92.8734C107.85 92.8734 107.536 92.9481 107.258 93.0974C106.981 93.2468 106.757 93.4548 106.586 93.7214C106.416 93.9881 106.33 94.3081 106.33 94.6814L105.738 94.3934C105.738 93.8174 105.861 93.3161 106.106 92.8894C106.362 92.4628 106.709 92.1321 107.146 91.8974C107.584 91.6521 108.074 91.5294 108.618 91.5294C109.152 91.5294 109.632 91.6468 110.058 91.8814C110.496 92.1161 110.837 92.4468 111.082 92.8734C111.338 93.3001 111.466 93.8068 111.466 94.3934V99.2894H110.026ZM115.162 99.2894V94.6974C115.162 94.1321 114.986 93.6894 114.634 93.3694C114.293 93.0388 113.866 92.8734 113.354 92.8734C113.002 92.8734 112.682 92.9481 112.394 93.0974C112.117 93.2468 111.893 93.4548 111.722 93.7214C111.552 93.9881 111.466 94.3081 111.466 94.6814L110.65 94.3934C110.682 93.8068 110.837 93.3054 111.114 92.8894C111.402 92.4628 111.77 92.1321 112.218 91.8974C112.666 91.6521 113.157 91.5294 113.69 91.5294C114.245 91.5294 114.741 91.6468 115.178 91.8814C115.616 92.1161 115.962 92.4468 116.218 92.8734C116.485 93.3001 116.618 93.8121 116.618 94.4094V99.2894H115.162ZM121.81 99.4494C121.116 99.4494 120.487 99.2788 119.922 98.9374C119.356 98.5854 118.908 98.1108 118.578 97.5134C118.258 96.9161 118.098 96.2441 118.098 95.4974C118.098 94.7508 118.258 94.0788 118.578 93.4814C118.908 92.8841 119.351 92.4094 119.906 92.0574C120.471 91.7054 121.106 91.5294 121.81 91.5294C122.386 91.5294 122.898 91.6521 123.346 91.8974C123.804 92.1321 124.172 92.4628 124.45 92.8894C124.727 93.3054 124.882 93.7908 124.914 94.3454V96.6334C124.882 97.1774 124.727 97.6628 124.45 98.0894C124.183 98.5161 123.82 98.8521 123.362 99.0974C122.914 99.3321 122.396 99.4494 121.81 99.4494ZM122.05 98.0894C122.764 98.0894 123.34 97.8494 123.778 97.3694C124.215 96.8788 124.434 96.2548 124.434 95.4974C124.434 94.9748 124.332 94.5214 124.13 94.1374C123.938 93.7428 123.66 93.4388 123.298 93.2254C122.935 93.0014 122.514 92.8894 122.034 92.8894C121.554 92.8894 121.127 93.0014 120.754 93.2254C120.391 93.4494 120.103 93.7588 119.89 94.1534C119.687 94.5374 119.586 94.9801 119.586 95.4814C119.586 95.9934 119.687 96.4468 119.89 96.8414C120.103 97.2254 120.396 97.5294 120.77 97.7534C121.143 97.9774 121.57 98.0894 122.05 98.0894ZM124.338 99.2894V97.2414L124.61 95.3854L124.338 93.5454V91.6894H125.794V99.2894H124.338ZM131.362 99.4494C130.616 99.4494 129.938 99.2734 129.33 98.9214C128.733 98.5694 128.258 98.0948 127.906 97.4974C127.565 96.8894 127.394 96.2174 127.394 95.4814C127.394 94.7348 127.565 94.0628 127.906 93.4654C128.258 92.8681 128.733 92.3988 129.33 92.0574C129.938 91.7054 130.616 91.5294 131.362 91.5294C131.949 91.5294 132.493 91.6414 132.994 91.8654C133.496 92.0788 133.928 92.3934 134.29 92.8094L133.33 93.7694C133.096 93.4921 132.808 93.2841 132.466 93.1454C132.136 92.9961 131.768 92.9214 131.362 92.9214C130.882 92.9214 130.456 93.0334 130.082 93.2574C129.709 93.4708 129.416 93.7694 129.202 94.1534C128.989 94.5374 128.882 94.9801 128.882 95.4814C128.882 95.9828 128.989 96.4254 129.202 96.8094C129.416 97.1934 129.709 97.4974 130.082 97.7214C130.456 97.9454 130.882 98.0574 131.362 98.0574C131.768 98.0574 132.136 97.9881 132.466 97.8494C132.808 97.7001 133.101 97.4868 133.346 97.2094L134.29 98.1694C133.938 98.5748 133.506 98.8894 132.994 99.1134C132.493 99.3374 131.949 99.4494 131.362 99.4494ZM141.094 99.2894V94.8574C141.094 94.2814 140.913 93.8068 140.55 93.4334C140.188 93.0601 139.718 92.8734 139.142 92.8734C138.758 92.8734 138.417 92.9588 138.118 93.1294C137.82 93.3001 137.585 93.5348 137.414 93.8334C137.244 94.1321 137.158 94.4734 137.158 94.8574L136.566 94.5214C136.566 93.9454 136.694 93.4334 136.95 92.9854C137.206 92.5374 137.564 92.1854 138.022 91.9294C138.481 91.6628 138.998 91.5294 139.574 91.5294C140.15 91.5294 140.657 91.6574 141.094 91.9134C141.542 92.1694 141.894 92.5268 142.15 92.9854C142.406 93.4441 142.534 93.9721 142.534 94.5694V99.2894H141.094ZM135.718 99.2894V87.8654H137.158V99.2894H135.718ZM144.5 99.2894V91.6894H145.94V99.2894H144.5ZM145.22 90.1694C144.953 90.1694 144.735 90.0841 144.564 89.9134C144.393 89.7321 144.308 89.5081 144.308 89.2414C144.308 88.9854 144.393 88.7721 144.564 88.6014C144.735 88.4201 144.953 88.3294 145.22 88.3294C145.487 88.3294 145.705 88.4201 145.876 88.6014C146.047 88.7721 146.132 88.9854 146.132 89.2414C146.132 89.5081 146.047 89.7321 145.876 89.9134C145.705 90.0841 145.487 90.1694 145.22 90.1694ZM153.438 99.2894V94.8574C153.438 94.2814 153.257 93.8068 152.894 93.4334C152.531 93.0601 152.062 92.8734 151.486 92.8734C151.102 92.8734 150.761 92.9588 150.462 93.1294C150.163 93.3001 149.929 93.5348 149.758 93.8334C149.587 94.1321 149.502 94.4734 149.502 94.8574L148.91 94.5214C148.91 93.9454 149.038 93.4334 149.294 92.9854C149.55 92.5374 149.907 92.1854 150.366 91.9294C150.825 91.6628 151.342 91.5294 151.918 91.5294C152.494 91.5294 153.001 91.6734 153.438 91.9614C153.886 92.2494 154.238 92.6281 154.494 93.0974C154.75 93.5561 154.878 94.0468 154.878 94.5694V99.2894H153.438ZM148.062 99.2894V91.6894H149.502V99.2894H148.062ZM160.348 99.4494C159.59 99.4494 158.908 99.2788 158.3 98.9374C157.692 98.5854 157.212 98.1108 156.86 97.5134C156.508 96.9161 156.332 96.2388 156.332 95.4814C156.332 94.7348 156.502 94.0628 156.844 93.4654C157.196 92.8681 157.665 92.3988 158.252 92.0574C158.849 91.7054 159.516 91.5294 160.252 91.5294C160.956 91.5294 161.574 91.6894 162.108 92.0094C162.652 92.3294 163.073 92.7721 163.372 93.3374C163.681 93.9028 163.836 94.5428 163.836 95.2574C163.836 95.3641 163.83 95.4814 163.82 95.6094C163.809 95.7268 163.788 95.8654 163.756 96.0254H157.34V94.8254H162.988L162.46 95.2894C162.46 94.7774 162.369 94.3454 162.188 93.9934C162.006 93.6308 161.75 93.3534 161.42 93.1614C161.089 92.9588 160.689 92.8574 160.22 92.8574C159.729 92.8574 159.297 92.9641 158.924 93.1774C158.55 93.3908 158.262 93.6894 158.06 94.0734C157.857 94.4574 157.756 94.9108 157.756 95.4334C157.756 95.9668 157.862 96.4361 158.076 96.8414C158.289 97.2361 158.593 97.5454 158.988 97.7694C159.382 97.9828 159.836 98.0894 160.348 98.0894C160.774 98.0894 161.164 98.0148 161.516 97.8654C161.878 97.7161 162.188 97.4921 162.444 97.1934L163.372 98.1374C163.009 98.5641 162.561 98.8894 162.028 99.1134C161.505 99.3374 160.945 99.4494 160.348 99.4494ZM168.734 99.2894V87.8654H170.174V99.2894H168.734ZM175.801 99.4494C175.044 99.4494 174.361 99.2788 173.753 98.9374C173.145 98.5854 172.665 98.1108 172.313 97.5134C171.961 96.9161 171.785 96.2388 171.785 95.4814C171.785 94.7348 171.956 94.0628 172.297 93.4654C172.649 92.8681 173.118 92.3988 173.705 92.0574C174.302 91.7054 174.969 91.5294 175.705 91.5294C176.409 91.5294 177.028 91.6894 177.561 92.0094C178.105 92.3294 178.526 92.7721 178.825 93.3374C179.134 93.9028 179.289 94.5428 179.289 95.2574C179.289 95.3641 179.284 95.4814 179.273 95.6094C179.262 95.7268 179.241 95.8654 179.209 96.0254H172.793V94.8254H178.441L177.913 95.2894C177.913 94.7774 177.822 94.3454 177.641 93.9934C177.46 93.6308 177.204 93.3534 176.873 93.1614C176.542 92.9588 176.142 92.8574 175.673 92.8574C175.182 92.8574 174.75 92.9641 174.377 93.1774C174.004 93.3908 173.716 93.6894 173.513 94.0734C173.31 94.4574 173.209 94.9108 173.209 95.4334C173.209 95.9668 173.316 96.4361 173.529 96.8414C173.742 97.2361 174.046 97.5454 174.441 97.7694C174.836 97.9828 175.289 98.0894 175.801 98.0894C176.228 98.0894 176.617 98.0148 176.969 97.8654C177.332 97.7161 177.641 97.4921 177.897 97.1934L178.825 98.1374C178.462 98.5641 178.014 98.8894 177.481 99.1134C176.958 99.3374 176.398 99.4494 175.801 99.4494ZM184.091 99.4494C183.398 99.4494 182.768 99.2788 182.203 98.9374C181.638 98.5854 181.19 98.1108 180.859 97.5134C180.539 96.9161 180.379 96.2441 180.379 95.4974C180.379 94.7508 180.539 94.0788 180.859 93.4814C181.19 92.8841 181.632 92.4094 182.187 92.0574C182.752 91.7054 183.387 91.5294 184.091 91.5294C184.667 91.5294 185.179 91.6521 185.627 91.8974C186.086 92.1321 186.454 92.4628 186.731 92.8894C187.008 93.3054 187.163 93.7908 187.195 94.3454V96.6334C187.163 97.1774 187.008 97.6628 186.731 98.0894C186.464 98.5161 186.102 98.8521 185.643 99.0974C185.195 99.3321 184.678 99.4494 184.091 99.4494ZM184.331 98.0894C185.046 98.0894 185.622 97.8494 186.059 97.3694C186.496 96.8788 186.715 96.2548 186.715 95.4974C186.715 94.9748 186.614 94.5214 186.411 94.1374C186.219 93.7428 185.942 93.4388 185.579 93.2254C185.216 93.0014 184.795 92.8894 184.315 92.8894C183.835 92.8894 183.408 93.0014 183.035 93.2254C182.672 93.4494 182.384 93.7588 182.171 94.1534C181.968 94.5374 181.867 94.9801 181.867 95.4814C181.867 95.9934 181.968 96.4468 182.171 96.8414C182.384 97.2254 182.678 97.5294 183.051 97.7534C183.424 97.9774 183.851 98.0894 184.331 98.0894ZM186.619 99.2894V97.2414L186.891 95.3854L186.619 93.5454V91.6894H188.075V99.2894H186.619ZM190.171 99.2894V91.6894H191.611V99.2894H190.171ZM191.611 94.9534L191.067 94.7134C191.067 93.7428 191.291 92.9694 191.739 92.3934C192.187 91.8174 192.833 91.5294 193.675 91.5294C194.059 91.5294 194.406 91.5988 194.715 91.7374C195.025 91.8654 195.313 92.0841 195.579 92.3934L194.635 93.3694C194.475 93.1988 194.299 93.0761 194.107 93.0014C193.915 92.9268 193.691 92.8894 193.435 92.8894C192.902 92.8894 192.465 93.0601 192.123 93.4014C191.782 93.7428 191.611 94.2601 191.611 94.9534ZM202.001 99.2894V94.8574C202.001 94.2814 201.819 93.8068 201.457 93.4334C201.094 93.0601 200.625 92.8734 200.049 92.8734C199.665 92.8734 199.323 92.9588 199.025 93.1294C198.726 93.3001 198.491 93.5348 198.321 93.8334C198.15 94.1321 198.065 94.4734 198.065 94.8574L197.473 94.5214C197.473 93.9454 197.601 93.4334 197.857 92.9854C198.113 92.5374 198.47 92.1854 198.929 91.9294C199.387 91.6628 199.905 91.5294 200.481 91.5294C201.057 91.5294 201.563 91.6734 202.001 91.9614C202.449 92.2494 202.801 92.6281 203.057 93.0974C203.313 93.5561 203.441 94.0468 203.441 94.5694V99.2894H202.001ZM196.625 99.2894V91.6894H198.065V99.2894H196.625ZM205.406 99.2894V91.6894H206.846V99.2894H205.406ZM206.126 90.1694C205.86 90.1694 205.641 90.0841 205.47 89.9134C205.3 89.7321 205.214 89.5081 205.214 89.2414C205.214 88.9854 205.3 88.7721 205.47 88.6014C205.641 88.4201 205.86 88.3294 206.126 88.3294C206.393 88.3294 206.612 88.4201 206.782 88.6014C206.953 88.7721 207.038 88.9854 207.038 89.2414C207.038 89.5081 206.953 89.7321 206.782 89.9134C206.612 90.0841 206.393 90.1694 206.126 90.1694ZM214.344 99.2894V94.8574C214.344 94.2814 214.163 93.8068 213.8 93.4334C213.438 93.0601 212.968 92.8734 212.392 92.8734C212.008 92.8734 211.667 92.9588 211.368 93.1294C211.07 93.3001 210.835 93.5348 210.664 93.8334C210.494 94.1321 210.408 94.4734 210.408 94.8574L209.816 94.5214C209.816 93.9454 209.944 93.4334 210.2 92.9854C210.456 92.5374 210.814 92.1854 211.272 91.9294C211.731 91.6628 212.248 91.5294 212.824 91.5294C213.4 91.5294 213.907 91.6734 214.344 91.9614C214.792 92.2494 215.144 92.6281 215.4 93.0974C215.656 93.5561 215.784 94.0468 215.784 94.5694V99.2894H214.344ZM208.968 99.2894V91.6894H210.408V99.2894H208.968ZM220.886 102.633C220.107 102.633 219.414 102.489 218.806 102.201C218.209 101.913 217.729 101.508 217.366 100.985L218.294 100.041C218.603 100.436 218.971 100.735 219.398 100.937C219.825 101.151 220.331 101.257 220.918 101.257C221.697 101.257 222.31 101.049 222.758 100.633C223.217 100.228 223.446 99.6788 223.446 98.9854V97.0974L223.702 95.3854L223.446 93.6894V91.6894H224.886V98.9854C224.886 99.7108 224.715 100.345 224.374 100.889C224.043 101.433 223.574 101.86 222.966 102.169C222.369 102.479 221.675 102.633 220.886 102.633ZM220.886 99.1614C220.193 99.1614 219.569 98.9961 219.014 98.6654C218.47 98.3348 218.038 97.8814 217.718 97.3054C217.398 96.7188 217.238 96.0628 217.238 95.3374C217.238 94.6121 217.398 93.9668 217.718 93.4014C218.038 92.8254 218.47 92.3721 219.014 92.0414C219.569 91.7001 220.193 91.5294 220.886 91.5294C221.483 91.5294 222.011 91.6468 222.47 91.8814C222.929 92.1161 223.291 92.4468 223.558 92.8734C223.835 93.2894 223.985 93.7801 224.006 94.3454V96.3614C223.974 96.9161 223.819 97.4068 223.542 97.8334C223.275 98.2494 222.913 98.5748 222.454 98.8094C221.995 99.0441 221.473 99.1614 220.886 99.1614ZM221.174 97.8014C221.643 97.8014 222.054 97.7001 222.406 97.4974C222.769 97.2948 223.046 97.0121 223.238 96.6494C223.43 96.2761 223.526 95.8441 223.526 95.3534C223.526 94.8628 223.425 94.4361 223.222 94.0734C223.03 93.7001 222.758 93.4121 222.406 93.2094C222.054 92.9961 221.638 92.8894 221.158 92.8894C220.678 92.8894 220.257 92.9961 219.894 93.2094C219.531 93.4121 219.243 93.7001 219.03 94.0734C218.827 94.4361 218.726 94.8574 218.726 95.3374C218.726 95.8174 218.827 96.2441 219.03 96.6174C219.243 96.9908 219.531 97.2841 219.894 97.4974C220.267 97.7001 220.694 97.8014 221.174 97.8014Z" fill="#24E720"/>
<path d="M107.27 120.449C106.566 120.449 105.937 120.279 105.382 119.937C104.828 119.585 104.385 119.111 104.054 118.513C103.734 117.916 103.574 117.244 103.574 116.497C103.574 115.751 103.734 115.079 104.054 114.481C104.385 113.884 104.828 113.409 105.382 113.057C105.937 112.705 106.566 112.529 107.27 112.529C107.836 112.529 108.348 112.652 108.806 112.897C109.265 113.132 109.633 113.463 109.91 113.889C110.198 114.305 110.358 114.791 110.39 115.345V117.633C110.358 118.177 110.204 118.663 109.926 119.089C109.649 119.516 109.281 119.852 108.822 120.097C108.364 120.332 107.846 120.449 107.27 120.449ZM107.51 119.089C107.99 119.089 108.406 118.977 108.758 118.753C109.121 118.529 109.404 118.225 109.606 117.841C109.809 117.447 109.91 116.999 109.91 116.497C109.91 115.975 109.804 115.521 109.59 115.137C109.388 114.753 109.105 114.449 108.742 114.225C108.39 114.001 107.974 113.889 107.494 113.889C107.014 113.889 106.593 114.001 106.23 114.225C105.868 114.449 105.58 114.759 105.366 115.153C105.164 115.537 105.062 115.98 105.062 116.481C105.062 116.993 105.164 117.447 105.366 117.841C105.58 118.225 105.868 118.529 106.23 118.753C106.604 118.977 107.03 119.089 107.51 119.089ZM111.27 120.289H109.814V118.241L110.086 116.385L109.814 114.545V108.865H111.27V120.289ZM116.599 120.449C115.905 120.449 115.276 120.279 114.711 119.937C114.145 119.585 113.697 119.111 113.367 118.513C113.047 117.916 112.887 117.244 112.887 116.497C112.887 115.751 113.047 115.079 113.367 114.481C113.697 113.884 114.14 113.409 114.695 113.057C115.26 112.705 115.895 112.529 116.599 112.529C117.175 112.529 117.687 112.652 118.135 112.897C118.593 113.132 118.961 113.463 119.239 113.889C119.516 114.305 119.671 114.791 119.703 115.345V117.633C119.671 118.177 119.516 118.663 119.239 119.089C118.972 119.516 118.609 119.852 118.151 120.097C117.703 120.332 117.185 120.449 116.599 120.449ZM116.839 119.089C117.553 119.089 118.129 118.849 118.567 118.369C119.004 117.879 119.223 117.255 119.223 116.497C119.223 115.975 119.121 115.521 118.919 115.137C118.727 114.743 118.449 114.439 118.087 114.225C117.724 114.001 117.303 113.889 116.823 113.889C116.343 113.889 115.916 114.001 115.543 114.225C115.18 114.449 114.892 114.759 114.679 115.153C114.476 115.537 114.375 115.98 114.375 116.481C114.375 116.993 114.476 117.447 114.679 117.841C114.892 118.225 115.185 118.529 115.559 118.753C115.932 118.977 116.359 119.089 116.839 119.089ZM119.127 120.289V118.241L119.399 116.385L119.127 114.545V112.689H120.583V120.289H119.127ZM125.175 120.353L121.879 112.689H123.479L125.927 118.689H125.415L127.991 112.689H129.591L126.039 120.353H125.175ZM122.999 123.473L125.239 118.881L126.039 120.353L124.599 123.473H122.999ZM133.708 120.449C133.015 120.449 132.385 120.279 131.82 119.937C131.255 119.585 130.807 119.111 130.476 118.513C130.156 117.916 129.996 117.244 129.996 116.497C129.996 115.751 130.156 115.079 130.476 114.481C130.807 113.884 131.249 113.409 131.804 113.057C132.369 112.705 133.004 112.529 133.708 112.529C134.284 112.529 134.796 112.652 135.244 112.897C135.703 113.132 136.071 113.463 136.348 113.889C136.625 114.305 136.78 114.791 136.812 115.345V117.633C136.78 118.177 136.625 118.663 136.348 119.089C136.081 119.516 135.719 119.852 135.26 120.097C134.812 120.332 134.295 120.449 133.708 120.449ZM133.948 119.089C134.663 119.089 135.239 118.849 135.676 118.369C136.113 117.879 136.332 117.255 136.332 116.497C136.332 115.975 136.231 115.521 136.028 115.137C135.836 114.743 135.559 114.439 135.196 114.225C134.833 114.001 134.412 113.889 133.932 113.889C133.452 113.889 133.025 114.001 132.652 114.225C132.289 114.449 132.001 114.759 131.788 115.153C131.585 115.537 131.484 115.98 131.484 116.481C131.484 116.993 131.585 117.447 131.788 117.841C132.001 118.225 132.295 118.529 132.668 118.753C133.041 118.977 133.468 119.089 133.948 119.089ZM136.236 120.289V118.241L136.508 116.385L136.236 114.545V112.689H137.692V120.289H136.236ZM145.165 120.289V115.857C145.165 115.281 144.983 114.807 144.621 114.433C144.258 114.06 143.789 113.873 143.213 113.873C142.829 113.873 142.487 113.959 142.189 114.129C141.89 114.3 141.655 114.535 141.485 114.833C141.314 115.132 141.229 115.473 141.229 115.857L140.637 115.521C140.637 114.945 140.765 114.433 141.021 113.985C141.277 113.537 141.634 113.185 142.093 112.929C142.551 112.663 143.069 112.529 143.645 112.529C144.221 112.529 144.727 112.657 145.165 112.913C145.613 113.169 145.965 113.527 146.221 113.985C146.477 114.444 146.605 114.972 146.605 115.569V120.289H145.165ZM139.789 120.289V108.865H141.229V120.289H139.789ZM152.074 120.449C151.317 120.449 150.634 120.279 150.026 119.937C149.418 119.585 148.938 119.111 148.586 118.513C148.234 117.916 148.058 117.239 148.058 116.481C148.058 115.735 148.229 115.063 148.57 114.465C148.922 113.868 149.392 113.399 149.978 113.057C150.576 112.705 151.242 112.529 151.978 112.529C152.682 112.529 153.301 112.689 153.834 113.009C154.378 113.329 154.8 113.772 155.098 114.337C155.408 114.903 155.562 115.543 155.562 116.257C155.562 116.364 155.557 116.481 155.546 116.609C155.536 116.727 155.514 116.865 155.482 117.025H149.066V115.825H154.714L154.186 116.289C154.186 115.777 154.096 115.345 153.914 114.993C153.733 114.631 153.477 114.353 153.146 114.161C152.816 113.959 152.416 113.857 151.946 113.857C151.456 113.857 151.024 113.964 150.65 114.177C150.277 114.391 149.989 114.689 149.786 115.073C149.584 115.457 149.482 115.911 149.482 116.433C149.482 116.967 149.589 117.436 149.802 117.841C150.016 118.236 150.32 118.545 150.714 118.769C151.109 118.983 151.562 119.089 152.074 119.089C152.501 119.089 152.89 119.015 153.242 118.865C153.605 118.716 153.914 118.492 154.17 118.193L155.098 119.137C154.736 119.564 154.288 119.889 153.754 120.113C153.232 120.337 152.672 120.449 152.074 120.449ZM160.364 120.449C159.671 120.449 159.042 120.279 158.476 119.937C157.911 119.585 157.463 119.111 157.132 118.513C156.812 117.916 156.652 117.244 156.652 116.497C156.652 115.751 156.812 115.079 157.132 114.481C157.463 113.884 157.906 113.409 158.46 113.057C159.026 112.705 159.66 112.529 160.364 112.529C160.94 112.529 161.452 112.652 161.9 112.897C162.359 113.132 162.727 113.463 163.004 113.889C163.282 114.305 163.436 114.791 163.468 115.345V117.633C163.436 118.177 163.282 118.663 163.004 119.089C162.738 119.516 162.375 119.852 161.916 120.097C161.468 120.332 160.951 120.449 160.364 120.449ZM160.604 119.089C161.319 119.089 161.895 118.849 162.332 118.369C162.77 117.879 162.988 117.255 162.988 116.497C162.988 115.975 162.887 115.521 162.684 115.137C162.492 114.743 162.215 114.439 161.852 114.225C161.49 114.001 161.068 113.889 160.588 113.889C160.108 113.889 159.682 114.001 159.308 114.225C158.946 114.449 158.658 114.759 158.444 115.153C158.242 115.537 158.14 115.98 158.14 116.481C158.14 116.993 158.242 117.447 158.444 117.841C158.658 118.225 158.951 118.529 159.324 118.753C159.698 118.977 160.124 119.089 160.604 119.089ZM162.892 120.289V118.241L163.164 116.385L162.892 114.545V112.689H164.348V120.289H162.892ZM169.661 120.449C168.957 120.449 168.328 120.279 167.773 119.937C167.218 119.585 166.776 119.111 166.445 118.513C166.125 117.916 165.965 117.244 165.965 116.497C165.965 115.751 166.125 115.079 166.445 114.481C166.776 113.884 167.218 113.409 167.773 113.057C168.328 112.705 168.957 112.529 169.661 112.529C170.226 112.529 170.738 112.652 171.197 112.897C171.656 113.132 172.024 113.463 172.301 113.889C172.589 114.305 172.749 114.791 172.781 115.345V117.633C172.749 118.177 172.594 118.663 172.317 119.089C172.04 119.516 171.672 119.852 171.213 120.097C170.754 120.332 170.237 120.449 169.661 120.449ZM169.901 119.089C170.381 119.089 170.797 118.977 171.149 118.753C171.512 118.529 171.794 118.225 171.997 117.841C172.2 117.447 172.301 116.999 172.301 116.497C172.301 115.975 172.194 115.521 171.981 115.137C171.778 114.753 171.496 114.449 171.133 114.225C170.781 114.001 170.365 113.889 169.885 113.889C169.405 113.889 168.984 114.001 168.621 114.225C168.258 114.449 167.97 114.759 167.757 115.153C167.554 115.537 167.453 115.98 167.453 116.481C167.453 116.993 167.554 117.447 167.757 117.841C167.97 118.225 168.258 118.529 168.621 118.753C168.994 118.977 169.421 119.089 169.901 119.089ZM173.661 120.289H172.205V118.241L172.477 116.385L172.205 114.545V108.865H173.661V120.289ZM183.086 120.449C182.51 120.449 181.987 120.332 181.518 120.097C181.059 119.852 180.691 119.516 180.414 119.089C180.136 118.663 179.982 118.177 179.95 117.633V115.345C179.982 114.791 180.136 114.305 180.414 113.889C180.702 113.463 181.075 113.132 181.534 112.897C182.003 112.652 182.52 112.529 183.086 112.529C183.779 112.529 184.403 112.705 184.958 113.057C185.523 113.409 185.966 113.884 186.286 114.481C186.606 115.079 186.766 115.751 186.766 116.497C186.766 117.244 186.606 117.916 186.286 118.513C185.966 119.111 185.523 119.585 184.958 119.937C184.403 120.279 183.779 120.449 183.086 120.449ZM182.846 119.089C183.326 119.089 183.747 118.977 184.11 118.753C184.472 118.529 184.76 118.225 184.974 117.841C185.187 117.447 185.294 116.993 185.294 116.481C185.294 115.98 185.187 115.532 184.974 115.137C184.76 114.743 184.472 114.439 184.11 114.225C183.747 114.001 183.331 113.889 182.862 113.889C182.382 113.889 181.96 114.001 181.598 114.225C181.235 114.439 180.952 114.743 180.75 115.137C180.547 115.532 180.446 115.985 180.446 116.497C180.446 116.999 180.542 117.447 180.734 117.841C180.936 118.225 181.219 118.529 181.582 118.753C181.955 118.977 182.376 119.089 182.846 119.089ZM179.086 123.473V112.689H180.526V114.689L180.254 116.529L180.526 118.385V123.473H179.086ZM188.398 120.289V112.689H189.838V120.289H188.398ZM189.838 115.953L189.294 115.713C189.294 114.743 189.518 113.969 189.966 113.393C190.414 112.817 191.059 112.529 191.902 112.529C192.286 112.529 192.633 112.599 192.942 112.737C193.251 112.865 193.539 113.084 193.806 113.393L192.862 114.369C192.702 114.199 192.526 114.076 192.334 114.001C192.142 113.927 191.918 113.889 191.662 113.889C191.129 113.889 190.691 114.06 190.35 114.401C190.009 114.743 189.838 115.26 189.838 115.953ZM194.836 120.289V112.689H196.276V120.289H194.836ZM195.556 111.169C195.289 111.169 195.071 111.084 194.9 110.913C194.729 110.732 194.644 110.508 194.644 110.241C194.644 109.985 194.729 109.772 194.9 109.601C195.071 109.42 195.289 109.329 195.556 109.329C195.823 109.329 196.041 109.42 196.212 109.601C196.383 109.772 196.468 109.985 196.468 110.241C196.468 110.508 196.383 110.732 196.212 110.913C196.041 111.084 195.823 111.169 195.556 111.169ZM201.87 120.449C201.123 120.449 200.446 120.273 199.838 119.921C199.241 119.569 198.766 119.095 198.414 118.497C198.073 117.889 197.902 117.217 197.902 116.481C197.902 115.735 198.073 115.063 198.414 114.465C198.766 113.868 199.241 113.399 199.838 113.057C200.446 112.705 201.123 112.529 201.87 112.529C202.457 112.529 203.001 112.641 203.502 112.865C204.003 113.079 204.435 113.393 204.798 113.809L203.838 114.769C203.603 114.492 203.315 114.284 202.974 114.145C202.643 113.996 202.275 113.921 201.87 113.921C201.39 113.921 200.963 114.033 200.59 114.257C200.217 114.471 199.923 114.769 199.71 115.153C199.497 115.537 199.39 115.98 199.39 116.481C199.39 116.983 199.497 117.425 199.71 117.809C199.923 118.193 200.217 118.497 200.59 118.721C200.963 118.945 201.39 119.057 201.87 119.057C202.275 119.057 202.643 118.988 202.974 118.849C203.315 118.7 203.609 118.487 203.854 118.209L204.798 119.169C204.446 119.575 204.014 119.889 203.502 120.113C203.001 120.337 202.457 120.449 201.87 120.449ZM206.242 120.289V112.689H207.682V120.289H206.242ZM206.962 111.169C206.695 111.169 206.477 111.084 206.306 110.913C206.135 110.732 206.05 110.508 206.05 110.241C206.05 109.985 206.135 109.772 206.306 109.601C206.477 109.42 206.695 109.329 206.962 109.329C207.229 109.329 207.447 109.42 207.618 109.601C207.789 109.772 207.874 109.985 207.874 110.241C207.874 110.508 207.789 110.732 207.618 110.913C207.447 111.084 207.229 111.169 206.962 111.169ZM215.18 120.289V115.857C215.18 115.281 214.999 114.807 214.636 114.433C214.274 114.06 213.804 113.873 213.228 113.873C212.844 113.873 212.503 113.959 212.204 114.129C211.906 114.3 211.671 114.535 211.5 114.833C211.33 115.132 211.244 115.473 211.244 115.857L210.652 115.521C210.652 114.945 210.78 114.433 211.036 113.985C211.292 113.537 211.65 113.185 212.108 112.929C212.567 112.663 213.084 112.529 213.66 112.529C214.236 112.529 214.743 112.673 215.18 112.961C215.628 113.249 215.98 113.628 216.236 114.097C216.492 114.556 216.62 115.047 216.62 115.569V120.289H215.18ZM209.804 120.289V112.689H211.244V120.289H209.804ZM221.722 123.633C220.943 123.633 220.25 123.489 219.642 123.201C219.045 122.913 218.565 122.508 218.202 121.985L219.13 121.041C219.439 121.436 219.807 121.735 220.234 121.937C220.661 122.151 221.167 122.257 221.754 122.257C222.533 122.257 223.146 122.049 223.594 121.633C224.053 121.228 224.282 120.679 224.282 119.985V118.097L224.538 116.385L224.282 114.689V112.689H225.722V119.985C225.722 120.711 225.551 121.345 225.21 121.889C224.879 122.433 224.41 122.86 223.802 123.169C223.205 123.479 222.511 123.633 221.722 123.633ZM221.722 120.161C221.029 120.161 220.405 119.996 219.85 119.665C219.306 119.335 218.874 118.881 218.554 118.305C218.234 117.719 218.074 117.063 218.074 116.337C218.074 115.612 218.234 114.967 218.554 114.401C218.874 113.825 219.306 113.372 219.85 113.041C220.405 112.7 221.029 112.529 221.722 112.529C222.319 112.529 222.847 112.647 223.306 112.881C223.765 113.116 224.127 113.447 224.394 113.873C224.671 114.289 224.821 114.78 224.842 115.345V117.361C224.81 117.916 224.655 118.407 224.378 118.833C224.111 119.249 223.749 119.575 223.29 119.809C222.831 120.044 222.309 120.161 221.722 120.161ZM222.01 118.801C222.479 118.801 222.89 118.7 223.242 118.497C223.605 118.295 223.882 118.012 224.074 117.649C224.266 117.276 224.362 116.844 224.362 116.353C224.362 115.863 224.261 115.436 224.058 115.073C223.866 114.7 223.594 114.412 223.242 114.209C222.89 113.996 222.474 113.889 221.994 113.889C221.514 113.889 221.093 113.996 220.73 114.209C220.367 114.412 220.079 114.7 219.866 115.073C219.663 115.436 219.562 115.857 219.562 116.337C219.562 116.817 219.663 117.244 219.866 117.617C220.079 117.991 220.367 118.284 220.73 118.497C221.103 118.7 221.53 118.801 222.01 118.801Z" fill="#24E720"/>
<path d="M114.858 141.289L111.37 133.689H112.97L115.77 140.105H114.842L117.658 133.689H119.194L115.706 141.289H114.858ZM120.437 141.289V133.689H121.877V141.289H120.437ZM121.157 132.169C120.891 132.169 120.672 132.084 120.501 131.913C120.331 131.732 120.245 131.508 120.245 131.241C120.245 130.985 120.331 130.772 120.501 130.601C120.672 130.42 120.891 130.329 121.157 130.329C121.424 130.329 121.643 130.42 121.813 130.601C121.984 130.772 122.069 130.985 122.069 131.241C122.069 131.508 121.984 131.732 121.813 131.913C121.643 132.084 121.424 132.169 121.157 132.169ZM124 141.289V133.689H125.44V141.289H124ZM125.44 136.953L124.896 136.713C124.896 135.743 125.12 134.969 125.568 134.393C126.016 133.817 126.661 133.529 127.504 133.529C127.888 133.529 128.234 133.599 128.544 133.737C128.853 133.865 129.141 134.084 129.408 134.393L128.464 135.369C128.304 135.199 128.128 135.076 127.936 135.001C127.744 134.927 127.52 134.889 127.264 134.889C126.73 134.889 126.293 135.06 125.952 135.401C125.61 135.743 125.44 136.26 125.44 136.953ZM131.558 141.289V130.505H132.998V141.289H131.558ZM129.686 135.001V133.689H134.87V135.001H129.686ZM139.337 141.449C138.718 141.449 138.158 141.311 137.657 141.033C137.166 140.745 136.782 140.351 136.505 139.849C136.228 139.348 136.089 138.767 136.089 138.105V133.689H137.529V138.041C137.529 138.457 137.598 138.82 137.737 139.129C137.886 139.428 138.1 139.657 138.377 139.817C138.654 139.977 138.98 140.057 139.353 140.057C139.918 140.057 140.361 139.881 140.681 139.529C141.001 139.167 141.161 138.671 141.161 138.041V133.689H142.601V138.105C142.601 138.767 142.462 139.348 142.185 139.849C141.908 140.351 141.524 140.745 141.033 141.033C140.553 141.311 139.988 141.449 139.337 141.449ZM148.051 141.449C147.294 141.449 146.611 141.279 146.003 140.937C145.395 140.585 144.915 140.111 144.563 139.513C144.211 138.916 144.035 138.239 144.035 137.481C144.035 136.735 144.206 136.063 144.547 135.465C144.899 134.868 145.368 134.399 145.955 134.057C146.552 133.705 147.219 133.529 147.955 133.529C148.659 133.529 149.278 133.689 149.811 134.009C150.355 134.329 150.776 134.772 151.075 135.337C151.384 135.903 151.539 136.543 151.539 137.257C151.539 137.364 151.534 137.481 151.523 137.609C151.512 137.727 151.491 137.865 151.459 138.025H145.043V136.825H150.691L150.163 137.289C150.163 136.777 150.072 136.345 149.891 135.993C149.71 135.631 149.454 135.353 149.123 135.161C148.792 134.959 148.392 134.857 147.923 134.857C147.432 134.857 147 134.964 146.627 135.177C146.254 135.391 145.966 135.689 145.763 136.073C145.56 136.457 145.459 136.911 145.459 137.433C145.459 137.967 145.566 138.436 145.779 138.841C145.992 139.236 146.296 139.545 146.691 139.769C147.086 139.983 147.539 140.089 148.051 140.089C148.478 140.089 148.867 140.015 149.219 139.865C149.582 139.716 149.891 139.492 150.147 139.193L151.075 140.137C150.712 140.564 150.264 140.889 149.731 141.113C149.208 141.337 148.648 141.449 148.051 141.449ZM153.109 141.289V129.865H154.549V141.289H153.109ZM160.176 141.449C159.419 141.449 158.736 141.279 158.128 140.937C157.52 140.585 157.04 140.111 156.688 139.513C156.336 138.916 156.16 138.239 156.16 137.481C156.16 136.735 156.331 136.063 156.672 135.465C157.024 134.868 157.493 134.399 158.08 134.057C158.677 133.705 159.344 133.529 160.08 133.529C160.784 133.529 161.403 133.689 161.936 134.009C162.48 134.329 162.901 134.772 163.2 135.337C163.509 135.903 163.664 136.543 163.664 137.257C163.664 137.364 163.659 137.481 163.648 137.609C163.637 137.727 163.616 137.865 163.584 138.025H157.168V136.825H162.816L162.288 137.289C162.288 136.777 162.197 136.345 162.016 135.993C161.835 135.631 161.579 135.353 161.248 135.161C160.917 134.959 160.517 134.857 160.048 134.857C159.557 134.857 159.125 134.964 158.752 135.177C158.379 135.391 158.091 135.689 157.888 136.073C157.685 136.457 157.584 136.911 157.584 137.433C157.584 137.967 157.691 138.436 157.904 138.841C158.117 139.236 158.421 139.545 158.816 139.769C159.211 139.983 159.664 140.089 160.176 140.089C160.603 140.089 160.992 140.015 161.344 139.865C161.707 139.716 162.016 139.492 162.272 139.193L163.2 140.137C162.837 140.564 162.389 140.889 161.856 141.113C161.333 141.337 160.773 141.449 160.176 141.449ZM172.562 141.449C171.986 141.449 171.463 141.332 170.994 141.097C170.535 140.852 170.167 140.516 169.89 140.089C169.613 139.663 169.458 139.177 169.426 138.633V136.345C169.458 135.791 169.613 135.305 169.89 134.889C170.178 134.463 170.551 134.132 171.01 133.897C171.479 133.652 171.997 133.529 172.562 133.529C173.255 133.529 173.879 133.705 174.434 134.057C174.999 134.409 175.442 134.884 175.762 135.481C176.082 136.079 176.242 136.751 176.242 137.497C176.242 138.244 176.082 138.916 175.762 139.513C175.442 140.111 174.999 140.585 174.434 140.937C173.879 141.279 173.255 141.449 172.562 141.449ZM172.322 140.089C172.802 140.089 173.223 139.977 173.586 139.753C173.949 139.529 174.237 139.225 174.45 138.841C174.663 138.447 174.77 137.993 174.77 137.481C174.77 136.98 174.663 136.532 174.45 136.137C174.237 135.743 173.949 135.439 173.586 135.225C173.223 135.001 172.807 134.889 172.338 134.889C171.858 134.889 171.437 135.001 171.074 135.225C170.711 135.439 170.429 135.743 170.226 136.137C170.023 136.532 169.922 136.985 169.922 137.497C169.922 137.999 170.018 138.447 170.21 138.841C170.413 139.225 170.695 139.529 171.058 139.753C171.431 139.977 171.853 140.089 172.322 140.089ZM168.562 141.289V129.865H170.002V135.545L169.73 137.385L170.002 139.241V141.289H168.562ZM181.107 141.449C180.413 141.449 179.784 141.279 179.219 140.937C178.653 140.585 178.205 140.111 177.875 139.513C177.555 138.916 177.395 138.244 177.395 137.497C177.395 136.751 177.555 136.079 177.875 135.481C178.205 134.884 178.648 134.409 179.203 134.057C179.768 133.705 180.403 133.529 181.107 133.529C181.683 133.529 182.195 133.652 182.643 133.897C183.101 134.132 183.469 134.463 183.747 134.889C184.024 135.305 184.179 135.791 184.211 136.345V138.633C184.179 139.177 184.024 139.663 183.747 140.089C183.48 140.516 183.117 140.852 182.659 141.097C182.211 141.332 181.693 141.449 181.107 141.449ZM181.347 140.089C182.061 140.089 182.637 139.849 183.075 139.369C183.512 138.879 183.731 138.255 183.731 137.497C183.731 136.975 183.629 136.521 183.427 136.137C183.235 135.743 182.957 135.439 182.595 135.225C182.232 135.001 181.811 134.889 181.331 134.889C180.851 134.889 180.424 135.001 180.051 135.225C179.688 135.449 179.4 135.759 179.187 136.153C178.984 136.537 178.883 136.98 178.883 137.481C178.883 137.993 178.984 138.447 179.187 138.841C179.4 139.225 179.693 139.529 180.067 139.753C180.44 139.977 180.867 140.089 181.347 140.089ZM183.635 141.289V139.241L183.907 137.385L183.635 135.545V133.689H185.091V141.289H183.635ZM188.355 141.289V130.505H189.795V141.289H188.355ZM186.483 135.001V133.689H196.195V135.001H186.483ZM192.883 141.289V130.505H194.323V141.289H192.883ZM200.895 141.449C200.137 141.449 199.455 141.279 198.847 140.937C198.239 140.585 197.759 140.111 197.407 139.513C197.055 138.916 196.879 138.239 196.879 137.481C196.879 136.735 197.049 136.063 197.391 135.465C197.743 134.868 198.212 134.399 198.799 134.057C199.396 133.705 200.063 133.529 200.799 133.529C201.503 133.529 202.121 133.689 202.655 134.009C203.199 134.329 203.62 134.772 203.919 135.337C204.228 135.903 204.383 136.543 204.383 137.257C204.383 137.364 204.377 137.481 204.367 137.609C204.356 137.727 204.335 137.865 204.303 138.025H197.887V136.825H203.535L203.007 137.289C203.007 136.777 202.916 136.345 202.735 135.993C202.553 135.631 202.297 135.353 201.967 135.161C201.636 134.959 201.236 134.857 200.767 134.857C200.276 134.857 199.844 134.964 199.471 135.177C199.097 135.391 198.809 135.689 198.607 136.073C198.404 136.457 198.303 136.911 198.303 137.433C198.303 137.967 198.409 138.436 198.623 138.841C198.836 139.236 199.14 139.545 199.535 139.769C199.929 139.983 200.383 140.089 200.895 140.089C201.321 140.089 201.711 140.015 202.063 139.865C202.425 139.716 202.735 139.492 202.991 139.193L203.919 140.137C203.556 140.564 203.108 140.889 202.575 141.113C202.052 141.337 201.492 141.449 200.895 141.449ZM205.953 141.289V133.689H207.393V141.289H205.953ZM207.393 136.953L206.849 136.713C206.849 135.743 207.073 134.969 207.521 134.393C207.969 133.817 208.614 133.529 209.457 133.529C209.841 133.529 210.187 133.599 210.497 133.737C210.806 133.865 211.094 134.084 211.361 134.393L210.417 135.369C210.257 135.199 210.081 135.076 209.889 135.001C209.697 134.927 209.473 134.889 209.217 134.889C208.683 134.889 208.246 135.06 207.905 135.401C207.563 135.743 207.393 136.26 207.393 136.953ZM212.391 141.289V133.689H213.831V141.289H212.391ZM213.111 132.169C212.844 132.169 212.625 132.084 212.455 131.913C212.284 131.732 212.199 131.508 212.199 131.241C212.199 130.985 212.284 130.772 212.455 130.601C212.625 130.42 212.844 130.329 213.111 130.329C213.377 130.329 213.596 130.42 213.767 130.601C213.937 130.772 214.023 130.985 214.023 131.241C214.023 131.508 213.937 131.732 213.767 131.913C213.596 132.084 213.377 132.169 213.111 132.169ZM214.993 144.633C214.502 144.633 214.091 144.553 213.761 144.393C213.419 144.233 213.115 144.004 212.849 143.705L213.777 142.761C213.926 142.943 214.091 143.076 214.273 143.161C214.443 143.247 214.651 143.289 214.897 143.289C215.217 143.289 215.494 143.188 215.729 142.985C215.963 142.793 216.081 142.5 216.081 142.105V133.689H217.521V142.089C217.521 142.644 217.403 143.108 217.169 143.481C216.934 143.855 216.625 144.137 216.241 144.329C215.857 144.532 215.441 144.633 214.993 144.633ZM216.817 132.169C216.561 132.169 216.347 132.084 216.177 131.913C216.006 131.732 215.921 131.508 215.921 131.241C215.921 130.985 216.006 130.772 216.177 130.601C216.347 130.42 216.561 130.329 216.817 130.329C217.083 130.329 217.302 130.42 217.473 130.601C217.643 130.772 217.729 130.985 217.729 131.241C217.729 131.508 217.643 131.732 217.473 131.913C217.302 132.084 217.083 132.169 216.817 132.169Z" fill="#24E720"/>
<path d="M232.32 114.289L384.264 114.562" stroke="#24E720" stroke-width="5"/>
<path d="M388.534 69.0911H228.05" stroke="#24E720" stroke-opacity="0.2" stroke-width="5"/>
<path d="M383.371 177.745H222.887V162.16" stroke="#24E720" stroke-opacity="0.2" stroke-width="5"/>
<path d="M386.824 21.2458H202.487V64.0759" stroke="#24E720" stroke-opacity="0.2" stroke-width="5"/>
<path d="M385.201 203.715H123.167V163.518" stroke="#24E720" stroke-opacity="0.2" stroke-width="5"/>
<path d="M92.2173 114.562H-19.8845" stroke="#24E720" stroke-width="5"/>
<path fill-rule="evenodd" clip-rule="evenodd" d="M245.678 52.2756H84.0996V176.849H245.678V52.2756ZM195.3 72.7842C195.33 72.7563 195.361 72.7287 195.391 72.7012C196.224 71.9479 197.488 70.8934 199.038 70.0363C200.298 69.3403 203.542 67.7495 207.607 68.6273C211.076 69.3761 213.124 71.6204 214.107 73.1573C215.028 74.596 215.393 75.9446 215.548 76.6261C215.807 77.7585 215.859 78.7927 215.867 79.4401C218.211 79.2783 220.622 79.9372 222.633 81.4784C227.018 84.837 227.849 91.1139 224.49 95.4981C224.16 95.9292 223.83 96.3575 223.501 96.7831C224.436 97.3417 225.318 98.0768 226.095 99.0123C228.02 101.328 228.341 103.776 228.424 104.634C228.53 105.72 228.448 106.614 228.389 107.095C228.269 108.086 228.042 108.918 227.932 109.304C227.805 109.746 227.682 110.107 227.647 110.209L227.642 110.223C226.669 113.084 225.298 115.78 223.907 118.169C225.49 119.85 226.191 121.686 226.512 122.861C227.2 125.382 226.912 127.724 226.769 128.726C226.609 129.843 226.362 130.913 226.118 131.817C226.77 132.18 227.423 132.639 228.066 133.212C230.219 135.133 231.003 137.415 231.301 138.741C231.604 140.09 231.59 141.243 231.55 141.926C231.416 144.226 230.59 146.495 230.246 147.436C229.764 148.756 229.198 150.095 228.813 151L228.733 151.189L228.732 151.192L228.732 151.193C228.564 151.589 228.446 151.864 228.357 152.083L228.351 152.098C226.752 157.03 221.592 159.967 216.473 158.719C215.419 158.462 214.446 158.047 213.571 157.505C213.35 157.64 213.024 157.832 212.664 158.016L212.657 158.02C212.49 158.106 211.878 158.419 211.071 158.68C210.752 158.783 209.653 159.134 208.198 159.167C207.4 159.185 203.608 159.147 200.731 156.104C199.478 157.386 197.788 158.826 195.663 159.869L195.644 159.878C195.087 160.151 192.678 161.334 189.507 160.884C188.707 160.77 187.868 160.552 187.034 160.206C185.513 160.762 183.835 160.957 182.121 160.7C179.822 160.355 177.823 159.252 176.341 157.684C173.123 159.69 168.502 161.483 163.004 160.458C161.698 160.215 159.387 159.603 157.275 157.75C155.904 156.547 154.961 155.132 154.368 153.666C153.967 153.891 153.486 154.131 152.939 154.345C152.096 154.675 149.357 155.657 146.017 154.603C142.675 153.548 140.967 151.172 140.266 149.925C139.864 150.363 139.459 150.797 139.052 151.226C137.009 153.381 134.542 155.836 131.487 158.008C131.252 158.198 130.749 158.59 130.119 158.968C129.729 159.202 128.976 159.624 127.963 159.957C127.063 160.252 124.994 160.802 122.435 160.197C119.831 159.581 117.763 158.021 116.426 156.076C116.226 156.189 116.006 156.304 115.768 156.418C115.213 156.682 113.412 157.51 110.968 157.426C109.583 157.379 107.792 157.028 106.013 155.932C104.19 154.809 102.963 153.263 102.225 151.746C100.943 149.109 101.191 146.72 101.274 146.023C101.474 144.334 102.065 142.96 102.268 142.488L102.268 142.486C102.824 141.193 103.539 139.561 104.468 137.856C102.007 136.531 100.286 134.278 99.5765 131.732C99.0819 129.956 99.1544 128.433 99.2242 127.659C99.3035 126.78 99.4659 126.022 99.6004 125.484C99.8674 124.418 100.228 123.431 100.491 122.754C100.759 122.061 101.042 121.398 101.23 120.957L101.248 120.916C101.344 120.691 101.403 120.549 101.437 120.467C101.461 120.411 101.472 120.384 101.475 120.378C102.439 117.585 103.548 114.989 104.76 112.534C101.133 109.756 100.894 105.831 100.858 105.036C100.8 103.752 101.007 102.754 101.084 102.398C101.347 101.191 101.833 100.131 101.936 99.9045L101.951 99.8734C102.102 99.5363 102.253 99.1977 102.404 98.8578C99.1725 96.5532 97.4966 92.4359 98.4939 88.3444C99.9347 82.4336 104.672 79.4221 106.57 78.2823C107.567 77.683 108.622 77.1348 109.321 76.7711L109.555 76.6494L109.613 76.6189C110.23 76.2965 110.508 76.1375 110.614 76.0753C110.678 76.0264 110.782 75.9472 110.944 75.8246C111.28 75.5697 111.781 75.1966 112.331 74.8215C112.771 74.5208 113.681 73.9122 114.736 73.42C115.136 73.2331 116.434 72.6321 118.158 72.4301C119.046 72.3259 120.808 72.2302 122.845 72.968C124.462 73.5532 125.981 74.5745 127.168 75.9939C128.098 75.1716 129.051 74.3564 130.026 73.5543L130.159 73.4255C130.381 73.2092 130.829 72.7747 131.291 72.3705C131.505 72.1837 131.914 71.834 132.419 71.4772C132.664 71.3044 133.126 70.991 133.734 70.6784L133.748 70.6712C134.127 70.4763 135.699 69.6671 137.882 69.5553C139.133 69.4912 141.155 69.6279 143.273 70.8035C144.571 71.5234 145.599 72.4636 146.383 73.4924C146.441 73.4323 146.5 73.3723 146.559 73.3124C146.597 73.2747 146.635 73.237 146.673 73.1993C147.557 72.3276 149.19 70.8987 151.554 70.0429C153.283 69.4172 156 68.9883 158.933 70.2078C160.485 70.8531 161.643 71.7726 162.49 72.6914C162.572 72.6351 162.656 72.5793 162.742 72.5243C163.407 72.094 164.693 71.34 166.432 70.9231C168.284 70.4792 171.317 70.2897 174.369 72.0782C175.645 72.8265 176.601 73.7247 177.315 74.6618C177.809 74.2272 178.309 73.7978 178.816 73.3744C179.355 72.9235 180.04 72.3674 180.732 71.8658C181.075 71.6176 181.536 71.2974 182.06 70.9855C182.42 70.7716 183.508 70.1295 184.964 69.733C185.662 69.5431 187.303 69.1611 189.362 69.5018C191.331 69.8275 193.578 70.8287 195.3 72.7842ZM105.436 139.463C105.412 139.485 105.415 139.481 105.443 139.457L105.436 139.463ZM178.814 75.363C178.822 75.3489 178.828 75.3392 178.831 75.3337C178.833 75.33 178.834 75.3282 178.834 75.3284C178.834 75.3286 178.827 75.3405 178.814 75.363ZM228.27 152.304C228.269 152.306 228.279 152.277 228.306 152.21C228.284 152.269 228.271 152.302 228.27 152.304Z" fill="#D9D9D9"/>
<path d="M251.45 174.922L247.369 173.684C247.086 172.682 246.698 171.715 246.211 170.798L248.209 166.997C248.284 166.854 248.312 166.689 248.288 166.529C248.263 166.368 248.189 166.22 248.075 166.106L245.164 163.134C245.051 163.018 244.905 162.942 244.747 162.918C244.589 162.893 244.428 162.921 244.286 162.998L240.571 165.016C239.66 164.497 238.696 164.081 237.696 163.778L236.477 159.679C236.426 159.528 236.328 159.397 236.199 159.306C236.07 159.215 235.916 159.168 235.758 159.171H231.641C231.483 159.172 231.329 159.224 231.202 159.32C231.075 159.416 230.981 159.55 230.934 159.704L229.716 163.79C228.707 164.092 227.735 164.507 226.816 165.028L223.162 163.022C223.02 162.946 222.859 162.918 222.701 162.943C222.543 162.967 222.397 163.043 222.284 163.158L219.324 166.093C219.21 166.207 219.136 166.356 219.112 166.516C219.088 166.677 219.115 166.841 219.19 166.985L221.164 170.699C220.652 171.629 220.243 172.613 219.945 173.634L215.913 174.872C215.762 174.92 215.629 175.015 215.535 175.144C215.441 175.273 215.39 175.43 215.389 175.59V179.776C215.39 179.937 215.441 180.093 215.535 180.222C215.629 180.351 215.762 180.447 215.913 180.494L219.97 181.732C220.271 182.736 220.679 183.704 221.188 184.617L219.19 188.505C219.115 188.649 219.088 188.813 219.112 188.974C219.136 189.134 219.21 189.283 219.324 189.397L222.236 192.356C222.348 192.472 222.494 192.548 222.652 192.572C222.81 192.597 222.972 192.569 223.113 192.493L226.877 190.449C227.768 190.938 228.707 191.328 229.679 191.613L230.898 195.786C230.944 195.94 231.038 196.074 231.165 196.17C231.292 196.266 231.446 196.318 231.604 196.319H235.722C235.88 196.318 236.034 196.266 236.161 196.17C236.288 196.074 236.382 195.94 236.429 195.786L237.647 191.601C238.611 191.314 239.542 190.924 240.424 190.437L244.213 192.493C244.355 192.569 244.516 192.597 244.674 192.572C244.832 192.548 244.978 192.472 245.09 192.356L248.002 189.397C248.116 189.283 248.19 189.134 248.214 188.974C248.239 188.813 248.211 188.649 248.136 188.505L246.114 184.667C246.598 183.766 246.986 182.816 247.271 181.831L251.377 180.593C251.528 180.546 251.66 180.45 251.754 180.321C251.849 180.192 251.9 180.036 251.901 179.875V175.652C251.908 175.498 251.869 175.346 251.788 175.215C251.707 175.085 251.589 174.982 251.45 174.922ZM233.7 184.555C232.374 184.555 231.079 184.156 229.977 183.408C228.875 182.659 228.016 181.596 227.509 180.351C227.002 179.107 226.869 177.737 227.128 176.416C227.386 175.095 228.025 173.882 228.962 172.929C229.899 171.977 231.093 171.328 232.392 171.066C233.692 170.803 235.039 170.938 236.264 171.453C237.488 171.969 238.535 172.841 239.271 173.961C240.007 175.081 240.4 176.398 240.4 177.745C240.4 179.551 239.694 181.284 238.438 182.561C237.181 183.838 235.477 184.555 233.7 184.555Z" fill="#8E8E8E"/>
<path d="M318.428 104.426L308.292 114.562L318.428 124.698" stroke="#24E720" stroke-width="5"/>
<path d="M46.3027 104.426L36.1664 114.562L46.3027 124.698" stroke="#24E720" stroke-width="5"/>
</svg>
