<svg width="382" height="666" viewBox="0 0 382 666" fill="none" xmlns="http://www.w3.org/2000/svg">
<path d="M63.7164 299.945H333.121" stroke="#8E8E8E" stroke-opacity="0.1"/>
<path d="M63.175 250.369H332.579" stroke="#8E8E8E" stroke-opacity="0.1"/>
<path d="M63.7164 201.249H333.121" stroke="#8E8E8E" stroke-opacity="0.1"/>
<path d="M63.7164 151.348H333.121" stroke="#8E8E8E" stroke-opacity="0.1"/>
<g opacity="0.5">
<rect x="63.8159" y="201.249" width="29.3831" height="69.5749" fill="#24E720"/>
<rect x="122.582" y="118.07" width="29.3831" height="83.1795" fill="#24E720"/>
<rect x="151.965" y="151.348" width="29.3831" height="49.9015" fill="#24E720"/>
<rect width="29.3831" height="60.7706" transform="matrix(1 0 0 -1 181.349 262.02)" fill="#24E720"/>
<rect width="29.3831" height="60.7706" transform="matrix(1 0 0 -1 210.732 262.02)" fill="#24E720"/>
<rect width="29.3831" height="73.0966" transform="matrix(1 0 0 -1 273.813 274.346)" fill="#24E720"/>
<rect width="29.3831" height="54.1674" transform="matrix(1 0 0 -1 303.196 255.417)" fill="#24E720"/>
<rect x="93.1991" y="118.07" width="29.3831" height="83.1795" fill="#24E720"/>
</g>
<path d="M63.7164 103.001H333.121" stroke="#8E8E8E" stroke-opacity="0.1"/>
<path d="M63.175 180.799H73.1731V166.206H83.1711V211.003H93.1691V147.201H103.167L103.167 124.803H113.165V130.572H123.163V147.201H133.161L133.161 141.676H143.159V161.359H153.157L153.157 155.929H163.155V168.825H173.153V200.726H193.149V180.799H203.147V166.206H213.145V211.003H223.143V185.251H233.141L233.141 171.449H243.139V175.004H253.137V185.251H263.135L263.135 181.846H273.133V193.975H283.131L283.131 190.629H293.129V198.576H303.127V200.726H333.121" stroke="#9747FF"/>
<path d="M63.8159 208.704V102.552V299.947" stroke="#9747FF" stroke-width="2"/>
<path d="M333.121 208.704V102.552V299.947" stroke="#24E720" stroke-width="2"/>
<path opacity="0.5" d="M180.945 313.947V304.315H181.953V313.947H180.945ZM178.915 305.225V304.315H181.813V305.225H178.915ZM183.674 313.317L187.244 309.593C187.655 309.154 187.972 308.786 188.196 308.487C188.429 308.188 188.588 307.918 188.672 307.675C188.765 307.423 188.812 307.162 188.812 306.891C188.812 306.34 188.639 305.911 188.294 305.603C187.949 305.286 187.491 305.127 186.922 305.127C186.399 305.127 185.942 305.253 185.55 305.505C185.158 305.748 184.808 306.116 184.5 306.611L183.786 305.981C184.159 305.393 184.607 304.945 185.13 304.637C185.653 304.329 186.259 304.175 186.95 304.175C187.529 304.175 188.033 304.287 188.462 304.511C188.901 304.735 189.237 305.052 189.47 305.463C189.713 305.874 189.834 306.354 189.834 306.905C189.834 307.288 189.783 307.638 189.68 307.955C189.577 308.263 189.395 308.59 189.134 308.935C188.882 309.271 188.523 309.682 188.056 310.167L185.032 313.275L183.674 313.317ZM183.674 313.947V313.317L184.514 313.023H190.072V313.947H183.674ZM192.593 314.087C192.359 314.087 192.168 314.008 192.019 313.849C191.879 313.69 191.809 313.504 191.809 313.289C191.809 313.056 191.879 312.864 192.019 312.715C192.168 312.556 192.359 312.477 192.593 312.477C192.817 312.477 193.003 312.556 193.153 312.715C193.311 312.864 193.391 313.056 193.391 313.289C193.391 313.504 193.311 313.69 193.153 313.849C193.003 314.008 192.817 314.087 192.593 314.087ZM192.593 309.677C192.359 309.677 192.168 309.598 192.019 309.439C191.879 309.28 191.809 309.094 191.809 308.879C191.809 308.646 191.879 308.454 192.019 308.305C192.168 308.156 192.359 308.081 192.593 308.081C192.817 308.081 193.003 308.156 193.153 308.305C193.311 308.454 193.391 308.646 193.391 308.879C193.391 309.094 193.311 309.28 193.153 309.439C193.003 309.598 192.817 309.677 192.593 309.677ZM199.096 314.087C198.387 314.087 197.738 313.886 197.15 313.485C196.562 313.074 196.091 312.496 195.736 311.749C195.391 311.002 195.218 310.125 195.218 309.117C195.218 308.1 195.391 307.227 195.736 306.499C196.081 305.762 196.543 305.192 197.122 304.791C197.71 304.38 198.359 304.175 199.068 304.175C199.787 304.175 200.435 304.376 201.014 304.777C201.602 305.178 202.069 305.752 202.414 306.499C202.759 307.236 202.932 308.114 202.932 309.131C202.932 310.139 202.759 311.016 202.414 311.763C202.069 312.51 201.607 313.084 201.028 313.485C200.449 313.886 199.805 314.087 199.096 314.087ZM199.068 313.121C199.619 313.121 200.104 312.967 200.524 312.659C200.953 312.342 201.289 311.889 201.532 311.301C201.775 310.704 201.896 309.976 201.896 309.117C201.896 308.268 201.775 307.549 201.532 306.961C201.289 306.364 200.953 305.911 200.524 305.603C200.104 305.295 199.619 305.141 199.068 305.141C198.527 305.141 198.041 305.295 197.612 305.603C197.192 305.911 196.861 306.359 196.618 306.947C196.375 307.535 196.254 308.258 196.254 309.117C196.254 309.976 196.375 310.704 196.618 311.301C196.861 311.889 197.192 312.342 197.612 312.659C198.041 312.967 198.527 313.121 199.068 313.121ZM208.297 314.087C207.588 314.087 206.939 313.886 206.351 313.485C205.763 313.074 205.292 312.496 204.937 311.749C204.592 311.002 204.419 310.125 204.419 309.117C204.419 308.1 204.592 307.227 204.937 306.499C205.282 305.762 205.744 305.192 206.323 304.791C206.911 304.38 207.56 304.175 208.269 304.175C208.988 304.175 209.636 304.376 210.215 304.777C210.803 305.178 211.27 305.752 211.615 306.499C211.96 307.236 212.133 308.114 212.133 309.131C212.133 310.139 211.96 311.016 211.615 311.763C211.27 312.51 210.808 313.084 210.229 313.485C209.65 313.886 209.006 314.087 208.297 314.087ZM208.269 313.121C208.82 313.121 209.305 312.967 209.725 312.659C210.154 312.342 210.49 311.889 210.733 311.301C210.976 310.704 211.097 309.976 211.097 309.117C211.097 308.268 210.976 307.549 210.733 306.961C210.49 306.364 210.154 305.911 209.725 305.603C209.305 305.295 208.82 305.141 208.269 305.141C207.728 305.141 207.242 305.295 206.813 305.603C206.393 305.911 206.062 306.359 205.819 306.947C205.576 307.535 205.455 308.258 205.455 309.117C205.455 309.976 205.576 310.704 205.819 311.301C206.062 311.889 206.393 312.342 206.813 312.659C207.242 312.967 207.728 313.121 208.269 313.121Z" fill="black"/>
<path opacity="0.5" d="M65.4989 314.087C64.7896 314.087 64.1409 313.886 63.5529 313.485C62.9649 313.074 62.4936 312.496 62.1389 311.749C61.7936 311.002 61.6209 310.125 61.6209 309.117C61.6209 308.1 61.7936 307.227 62.1389 306.499C62.4842 305.762 62.9462 305.192 63.5249 304.791C64.1129 304.38 64.7616 304.175 65.4709 304.175C66.1896 304.175 66.8382 304.376 67.4169 304.777C68.0049 305.178 68.4716 305.752 68.8169 306.499C69.1622 307.236 69.3349 308.114 69.3349 309.131C69.3349 310.139 69.1622 311.016 68.8169 311.763C68.4716 312.51 68.0096 313.084 67.4309 313.485C66.8522 313.886 66.2082 314.087 65.4989 314.087ZM65.4709 313.121C66.0216 313.121 66.5069 312.967 66.9269 312.659C67.3562 312.342 67.6922 311.889 67.9349 311.301C68.1776 310.704 68.2989 309.976 68.2989 309.117C68.2989 308.268 68.1776 307.549 67.9349 306.961C67.6922 306.364 67.3562 305.911 66.9269 305.603C66.5069 305.295 66.0216 305.141 65.4709 305.141C64.9296 305.141 64.4442 305.295 64.0149 305.603C63.5949 305.911 63.2636 306.359 63.0209 306.947C62.7782 307.535 62.6569 308.258 62.6569 309.117C62.6569 309.976 62.7782 310.704 63.0209 311.301C63.2636 311.889 63.5949 312.342 64.0149 312.659C64.4442 312.967 64.9296 313.121 65.4709 313.121ZM74.7001 314.087C73.9907 314.087 73.3421 313.886 72.7541 313.485C72.1661 313.074 71.6947 312.496 71.3401 311.749C70.9947 311.002 70.8221 310.125 70.8221 309.117C70.8221 308.1 70.9947 307.227 71.3401 306.499C71.6854 305.762 72.1474 305.192 72.7261 304.791C73.3141 304.38 73.9627 304.175 74.6721 304.175C75.3907 304.175 76.0394 304.376 76.6181 304.777C77.2061 305.178 77.6727 305.752 78.0181 306.499C78.3634 307.236 78.5361 308.114 78.5361 309.131C78.5361 310.139 78.3634 311.016 78.0181 311.763C77.6727 312.51 77.2107 313.084 76.6321 313.485C76.0534 313.886 75.4094 314.087 74.7001 314.087ZM74.6721 313.121C75.2227 313.121 75.7081 312.967 76.1281 312.659C76.5574 312.342 76.8934 311.889 77.1361 311.301C77.3787 310.704 77.5001 309.976 77.5001 309.117C77.5001 308.268 77.3787 307.549 77.1361 306.961C76.8934 306.364 76.5574 305.911 76.1281 305.603C75.7081 305.295 75.2227 305.141 74.6721 305.141C74.1307 305.141 73.6454 305.295 73.2161 305.603C72.7961 305.911 72.4647 306.359 72.2221 306.947C71.9794 307.535 71.8581 308.258 71.8581 309.117C71.8581 309.976 71.9794 310.704 72.2221 311.301C72.4647 311.889 72.7961 312.342 73.2161 312.659C73.6454 312.967 74.1307 313.121 74.6721 313.121ZM81.1713 314.087C80.9379 314.087 80.7466 314.008 80.5973 313.849C80.4573 313.69 80.3873 313.504 80.3873 313.289C80.3873 313.056 80.4573 312.864 80.5973 312.715C80.7466 312.556 80.9379 312.477 81.1713 312.477C81.3953 312.477 81.5819 312.556 81.7313 312.715C81.8899 312.864 81.9693 313.056 81.9693 313.289C81.9693 313.504 81.8899 313.69 81.7313 313.849C81.5819 314.008 81.3953 314.087 81.1713 314.087ZM81.1713 309.677C80.9379 309.677 80.7466 309.598 80.5973 309.439C80.4573 309.28 80.3873 309.094 80.3873 308.879C80.3873 308.646 80.4573 308.454 80.5973 308.305C80.7466 308.156 80.9379 308.081 81.1713 308.081C81.3953 308.081 81.5819 308.156 81.7313 308.305C81.8899 308.454 81.9693 308.646 81.9693 308.879C81.9693 309.094 81.8899 309.28 81.7313 309.439C81.5819 309.598 81.3953 309.677 81.1713 309.677ZM87.6747 314.087C86.9654 314.087 86.3167 313.886 85.7287 313.485C85.1407 313.074 84.6694 312.496 84.3147 311.749C83.9694 311.002 83.7967 310.125 83.7967 309.117C83.7967 308.1 83.9694 307.227 84.3147 306.499C84.66 305.762 85.122 305.192 85.7007 304.791C86.2887 304.38 86.9374 304.175 87.6467 304.175C88.3654 304.175 89.014 304.376 89.5927 304.777C90.1807 305.178 90.6474 305.752 90.9927 306.499C91.338 307.236 91.5107 308.114 91.5107 309.131C91.5107 310.139 91.338 311.016 90.9927 311.763C90.6474 312.51 90.1854 313.084 89.6067 313.485C89.028 313.886 88.384 314.087 87.6747 314.087ZM87.6467 313.121C88.1974 313.121 88.6827 312.967 89.1027 312.659C89.532 312.342 89.868 311.889 90.1107 311.301C90.3534 310.704 90.4747 309.976 90.4747 309.117C90.4747 308.268 90.3534 307.549 90.1107 306.961C89.868 306.364 89.532 305.911 89.1027 305.603C88.6827 305.295 88.1974 305.141 87.6467 305.141C87.1054 305.141 86.62 305.295 86.1907 305.603C85.7707 305.911 85.4394 306.359 85.1967 306.947C84.954 307.535 84.8327 308.258 84.8327 309.117C84.8327 309.976 84.954 310.704 85.1967 311.301C85.4394 311.889 85.7707 312.342 86.1907 312.659C86.62 312.967 87.1054 313.121 87.6467 313.121ZM96.8759 314.087C96.1665 314.087 95.5179 313.886 94.9299 313.485C94.3419 313.074 93.8705 312.496 93.5159 311.749C93.1705 311.002 92.9979 310.125 92.9979 309.117C92.9979 308.1 93.1705 307.227 93.5159 306.499C93.8612 305.762 94.3232 305.192 94.9019 304.791C95.4899 304.38 96.1385 304.175 96.8479 304.175C97.5665 304.175 98.2152 304.376 98.7939 304.777C99.3819 305.178 99.8485 305.752 100.194 306.499C100.539 307.236 100.712 308.114 100.712 309.131C100.712 310.139 100.539 311.016 100.194 311.763C99.8485 312.51 99.3865 313.084 98.8079 313.485C98.2292 313.886 97.5852 314.087 96.8759 314.087ZM96.8479 313.121C97.3985 313.121 97.8839 312.967 98.3039 312.659C98.7332 312.342 99.0692 311.889 99.3119 311.301C99.5545 310.704 99.6759 309.976 99.6759 309.117C99.6759 308.268 99.5545 307.549 99.3119 306.961C99.0692 306.364 98.7332 305.911 98.3039 305.603C97.8839 305.295 97.3985 305.141 96.8479 305.141C96.3065 305.141 95.8212 305.295 95.3919 305.603C94.9719 305.911 94.6405 306.359 94.3979 306.947C94.1552 307.535 94.0339 308.258 94.0339 309.117C94.0339 309.976 94.1552 310.704 94.3979 311.301C94.6405 311.889 94.9719 312.342 95.3919 312.659C95.8212 312.967 96.3065 313.121 96.8479 313.121Z" fill="black"/>
<path d="M52.1065 206.323C51.3971 206.323 50.7485 206.123 50.1605 205.721C49.5725 205.311 49.1011 204.732 48.7465 203.985C48.4011 203.239 48.2285 202.361 48.2285 201.353C48.2285 200.336 48.4011 199.463 48.7465 198.735C49.0918 197.998 49.5538 197.429 50.1325 197.027C50.7205 196.617 51.3691 196.411 52.0785 196.411C52.7971 196.411 53.4458 196.612 54.0245 197.013C54.6125 197.415 55.0791 197.989 55.4245 198.735C55.7698 199.473 55.9425 200.35 55.9425 201.367C55.9425 202.375 55.7698 203.253 55.4245 203.999C55.0791 204.746 54.6171 205.32 54.0385 205.721C53.4598 206.123 52.8158 206.323 52.1065 206.323ZM52.0785 205.357C52.6291 205.357 53.1145 205.203 53.5345 204.895C53.9638 204.578 54.2998 204.125 54.5425 203.537C54.7851 202.94 54.9065 202.212 54.9065 201.353C54.9065 200.504 54.7851 199.785 54.5425 199.197C54.2998 198.6 53.9638 198.147 53.5345 197.839C53.1145 197.531 52.6291 197.377 52.0785 197.377C51.5371 197.377 51.0518 197.531 50.6225 197.839C50.2025 198.147 49.8711 198.595 49.6285 199.183C49.3858 199.771 49.2645 200.495 49.2645 201.353C49.2645 202.212 49.3858 202.94 49.6285 203.537C49.8711 204.125 50.2025 204.578 50.6225 204.895C51.0518 205.203 51.5371 205.357 52.0785 205.357Z" fill="#9747FF"/>
<path d="M34.3096 116.692C33.6936 116.692 33.1336 116.547 32.6296 116.258C32.1349 115.959 31.7382 115.563 31.4396 115.068C31.1502 114.573 31.0056 114.023 31.0056 113.416C31.0056 112.595 31.2902 111.792 31.8596 111.008L34.8836 106.92H36.0876L33.0916 110.882L32.7276 111.022C32.8582 110.854 33.0076 110.714 33.1756 110.602C33.3529 110.481 33.5536 110.387 33.7776 110.322C34.0016 110.257 34.2582 110.224 34.5476 110.224C35.1169 110.224 35.6349 110.364 36.1016 110.644C36.5682 110.915 36.9416 111.288 37.2216 111.764C37.5016 112.24 37.6416 112.781 37.6416 113.388C37.6416 113.995 37.4922 114.55 37.1936 115.054C36.8949 115.549 36.4936 115.945 35.9896 116.244C35.4856 116.543 34.9256 116.692 34.3096 116.692ZM34.3236 115.74C34.7436 115.74 35.1262 115.637 35.4716 115.432C35.8262 115.217 36.1062 114.933 36.3116 114.578C36.5169 114.214 36.6196 113.817 36.6196 113.388C36.6196 112.949 36.5169 112.553 36.3116 112.198C36.1062 111.843 35.8262 111.563 35.4716 111.358C35.1262 111.143 34.7436 111.036 34.3236 111.036C33.8942 111.036 33.5022 111.143 33.1476 111.358C32.8022 111.563 32.5269 111.843 32.3216 112.198C32.1256 112.543 32.0276 112.94 32.0276 113.388C32.0276 113.827 32.1256 114.228 32.3216 114.592C32.5269 114.947 32.8022 115.227 33.1476 115.432C33.5022 115.637 33.8942 115.74 34.3236 115.74ZM42.8976 116.692C42.1883 116.692 41.5396 116.491 40.9516 116.09C40.3636 115.679 39.8923 115.101 39.5376 114.354C39.1923 113.607 39.0196 112.73 39.0196 111.722C39.0196 110.705 39.1923 109.832 39.5376 109.104C39.8829 108.367 40.3449 107.797 40.9236 107.396C41.5116 106.985 42.1603 106.78 42.8696 106.78C43.5883 106.78 44.2369 106.981 44.8156 107.382C45.4036 107.783 45.8703 108.357 46.2156 109.104C46.5609 109.841 46.7336 110.719 46.7336 111.736C46.7336 112.744 46.5609 113.621 46.2156 114.368C45.8703 115.115 45.4083 115.689 44.8296 116.09C44.2509 116.491 43.6069 116.692 42.8976 116.692ZM42.8696 115.726C43.4203 115.726 43.9056 115.572 44.3256 115.264C44.7549 114.947 45.0909 114.494 45.3336 113.906C45.5763 113.309 45.6976 112.581 45.6976 111.722C45.6976 110.873 45.5763 110.154 45.3336 109.566C45.0909 108.969 44.7549 108.516 44.3256 108.208C43.9056 107.9 43.4203 107.746 42.8696 107.746C42.3283 107.746 41.8429 107.9 41.4136 108.208C40.9936 108.516 40.6623 108.964 40.4196 109.552C40.1769 110.14 40.0556 110.863 40.0556 111.722C40.0556 112.581 40.1769 113.309 40.4196 113.906C40.6623 114.494 40.9936 114.947 41.4136 115.264C41.8429 115.572 42.3283 115.726 42.8696 115.726ZM52.0988 116.692C51.3894 116.692 50.7408 116.491 50.1528 116.09C49.5648 115.679 49.0934 115.101 48.7388 114.354C48.3934 113.607 48.2208 112.73 48.2208 111.722C48.2208 110.705 48.3934 109.832 48.7388 109.104C49.0841 108.367 49.5461 107.797 50.1248 107.396C50.7128 106.985 51.3614 106.78 52.0708 106.78C52.7894 106.78 53.4381 106.981 54.0168 107.382C54.6048 107.783 55.0714 108.357 55.4168 109.104C55.7621 109.841 55.9348 110.719 55.9348 111.736C55.9348 112.744 55.7621 113.621 55.4168 114.368C55.0714 115.115 54.6094 115.689 54.0308 116.09C53.4521 116.491 52.8081 116.692 52.0988 116.692ZM52.0708 115.726C52.6214 115.726 53.1068 115.572 53.5268 115.264C53.9561 114.947 54.2921 114.494 54.5348 113.906C54.7774 113.309 54.8988 112.581 54.8988 111.722C54.8988 110.873 54.7774 110.154 54.5348 109.566C54.2921 108.969 53.9561 108.516 53.5268 108.208C53.1068 107.9 52.6214 107.746 52.0708 107.746C51.5294 107.746 51.0441 107.9 50.6148 108.208C50.1948 108.516 49.8634 108.964 49.6208 109.552C49.3781 110.14 49.2568 110.863 49.2568 111.722C49.2568 112.581 49.3781 113.309 49.6208 113.906C49.8634 114.494 50.1948 114.947 50.6148 115.264C51.0441 115.572 51.5294 115.726 52.0708 115.726Z" fill="#9747FF"/>
<path d="M342.728 108.243C342.728 107.609 342.882 107.03 343.19 106.507C343.498 105.994 343.913 105.583 344.436 105.275C344.958 104.977 345.542 104.827 346.186 104.827C346.82 104.827 347.394 104.977 347.908 105.275C348.421 105.583 348.827 105.994 349.126 106.507C349.434 107.03 349.588 107.609 349.588 108.243C349.588 108.887 349.438 109.466 349.14 109.979C348.841 110.493 348.43 110.899 347.908 111.197C347.394 111.505 346.82 111.659 346.186 111.659C345.532 111.659 344.944 111.505 344.422 111.197C343.908 110.899 343.498 110.493 343.19 109.979C342.882 109.466 342.728 108.887 342.728 108.243ZM343.68 108.243C343.68 108.71 343.787 109.121 344.002 109.475C344.216 109.839 344.515 110.124 344.898 110.329C345.28 110.544 345.71 110.651 346.186 110.651C346.662 110.651 347.082 110.544 347.446 110.329C347.819 110.124 348.113 109.839 348.328 109.475C348.542 109.121 348.65 108.71 348.65 108.243C348.65 107.786 348.542 107.375 348.328 107.011C348.113 106.647 347.819 106.363 347.446 106.157C347.082 105.952 346.662 105.849 346.186 105.849C345.7 105.849 345.266 105.952 344.884 106.157C344.51 106.363 344.216 106.647 344.002 107.011C343.787 107.375 343.68 107.786 343.68 108.243ZM342.868 118.006L346.732 118.006C347.31 118.006 347.777 117.834 348.132 117.488C348.496 117.152 348.678 116.704 348.678 116.144C348.678 115.762 348.594 115.426 348.426 115.136C348.258 114.847 348.029 114.618 347.74 114.45C347.45 114.282 347.119 114.198 346.746 114.198L346.998 113.75C347.492 113.75 347.936 113.867 348.328 114.1C348.72 114.334 349.028 114.646 349.252 115.038C349.476 115.44 349.588 115.897 349.588 116.41C349.588 116.914 349.466 117.362 349.224 117.754C348.981 118.146 348.654 118.45 348.244 118.664C347.833 118.888 347.385 119 346.9 119L342.868 119L342.868 118.006ZM342.868 113.218L349.448 113.218L349.448 114.198L342.868 114.198L342.868 113.218ZM342.868 121.774L352.22 121.774L352.22 122.754L342.868 122.754L342.868 121.774ZM348.566 120.108L349.448 120.108L349.448 124.406L348.566 124.406L348.566 120.108ZM342.868 125.755L352.78 125.755L352.78 126.735L342.868 126.735L342.868 125.755ZM342.728 131.578C342.728 130.953 342.877 130.393 343.176 129.898C343.484 129.404 343.894 129.012 344.408 128.722C344.921 128.442 345.5 128.302 346.144 128.302C346.797 128.302 347.38 128.442 347.894 128.722C348.416 129.012 348.827 129.404 349.126 129.898C349.434 130.393 349.588 130.948 349.588 131.564C349.588 132.068 349.485 132.516 349.28 132.908C349.084 133.31 348.804 133.632 348.44 133.874C348.085 134.126 347.67 134.28 347.194 134.336L345.136 134.336C344.66 134.28 344.24 134.126 343.876 133.874C343.512 133.632 343.227 133.31 343.022 132.908C342.826 132.516 342.728 132.073 342.728 131.578ZM343.666 131.732C343.666 132.414 343.894 132.96 344.352 133.37C344.809 133.79 345.411 134 346.158 134C346.652 134 347.086 133.902 347.46 133.706C347.842 133.52 348.136 133.254 348.342 132.908C348.556 132.572 348.664 132.176 348.664 131.718C348.664 131.252 348.556 130.836 348.342 130.472C348.127 130.118 347.828 129.833 347.446 129.618C347.072 129.413 346.643 129.31 346.158 129.31C345.672 129.31 345.243 129.413 344.87 129.618C344.496 129.833 344.202 130.122 343.988 130.486C343.773 130.85 343.666 131.266 343.666 131.732ZM342.868 133.944L344.632 133.944L346.256 134.14L347.838 133.944L349.448 133.944L349.448 134.924L342.868 134.924L342.868 133.944ZM342.728 139.712C342.728 139.105 342.877 138.559 343.176 138.074C343.474 137.588 343.88 137.201 344.394 136.912C344.916 136.632 345.5 136.492 346.144 136.492C346.797 136.492 347.38 136.632 347.894 136.912C348.416 137.201 348.827 137.588 349.126 138.074C349.434 138.559 349.588 139.105 349.588 139.712C349.588 140.206 349.49 140.654 349.294 141.056C349.098 141.457 348.818 141.788 348.454 142.05C348.099 142.32 347.679 142.479 347.194 142.526L345.136 142.526C344.66 142.47 344.24 142.311 343.876 142.05C343.521 141.798 343.241 141.471 343.036 141.07C342.83 140.668 342.728 140.216 342.728 139.712ZM343.666 139.88C343.666 140.337 343.768 140.738 343.974 141.084C344.188 141.429 344.482 141.7 344.856 141.896C345.238 142.092 345.672 142.19 346.158 142.19C346.652 142.19 347.086 142.087 347.46 141.882C347.833 141.686 348.127 141.415 348.342 141.07C348.556 140.724 348.664 140.323 348.664 139.866C348.664 139.408 348.556 139.002 348.342 138.648C348.127 138.293 347.828 138.013 347.446 137.808C347.072 137.612 346.643 137.514 346.158 137.514C345.672 137.514 345.238 137.612 344.856 137.808C344.482 138.013 344.188 138.293 343.974 138.648C343.768 139.012 343.666 139.422 343.666 139.88ZM342.868 143.114L342.868 142.134L344.632 142.134L346.256 142.33L347.838 142.134L352.78 142.134L352.78 143.114L342.868 143.114ZM342.728 148.139C342.728 147.477 342.877 146.884 343.176 146.361C343.474 145.839 343.885 145.423 344.408 145.115C344.93 144.817 345.518 144.667 346.172 144.667C346.816 144.667 347.394 144.817 347.908 145.115C348.43 145.414 348.841 145.82 349.14 146.333C349.438 146.847 349.588 147.421 349.588 148.055C349.588 148.653 349.452 149.18 349.182 149.637C348.911 150.104 348.533 150.468 348.048 150.729C347.572 151 347.021 151.135 346.396 151.135C346.321 151.135 346.232 151.131 346.13 151.121C346.036 151.112 345.924 151.093 345.794 151.065L345.794 145.367L346.634 145.367L346.634 150.533L346.326 150.183C346.811 150.193 347.226 150.109 347.572 149.931C347.926 149.763 348.197 149.516 348.384 149.189C348.58 148.872 348.678 148.485 348.678 148.027C348.678 147.551 348.575 147.136 348.37 146.781C348.164 146.427 347.875 146.147 347.502 145.941C347.138 145.745 346.704 145.647 346.2 145.647C345.696 145.647 345.252 145.75 344.87 145.955C344.487 146.17 344.188 146.464 343.974 146.837C343.759 147.22 343.652 147.659 343.652 148.153C343.652 148.555 343.722 148.923 343.862 149.259C344.011 149.595 344.23 149.88 344.52 150.113L343.876 150.743C343.512 150.435 343.227 150.053 343.022 149.595C342.826 149.147 342.728 148.662 342.728 148.139ZM342.868 157.422L346.732 157.422C347.31 157.422 347.777 157.25 348.132 156.904C348.496 156.568 348.678 156.12 348.678 155.56C348.678 155.178 348.594 154.842 348.426 154.552C348.258 154.263 348.029 154.034 347.74 153.866C347.45 153.698 347.119 153.614 346.746 153.614L346.998 153.166C347.492 153.166 347.936 153.283 348.328 153.516C348.72 153.75 349.028 154.062 349.252 154.454C349.476 154.856 349.588 155.313 349.588 155.826C349.588 156.33 349.466 156.778 349.224 157.17C348.981 157.562 348.654 157.866 348.244 158.08C347.833 158.304 347.385 158.416 346.9 158.416L342.868 158.416L342.868 157.422ZM342.868 152.634L349.448 152.634L349.448 153.614L342.868 153.614L342.868 152.634Z" fill="#24E720"/>
<path d="M343.125 252.546C343.125 251.912 343.279 251.333 343.587 250.81C343.895 250.297 344.31 249.886 344.833 249.578C345.355 249.28 345.939 249.13 346.583 249.13C347.217 249.13 347.791 249.28 348.305 249.578C348.818 249.886 349.224 250.297 349.523 250.81C349.831 251.333 349.985 251.912 349.985 252.546C349.985 253.19 349.835 253.769 349.537 254.282C349.238 254.796 348.827 255.202 348.305 255.5C347.791 255.808 347.217 255.962 346.583 255.962C345.929 255.962 345.341 255.808 344.819 255.5C344.305 255.202 343.895 254.796 343.587 254.282C343.279 253.769 343.125 253.19 343.125 252.546ZM344.077 252.546C344.077 253.013 344.184 253.424 344.399 253.778C344.613 254.142 344.912 254.427 345.295 254.632C345.677 254.847 346.107 254.954 346.583 254.954C347.059 254.954 347.479 254.847 347.843 254.632C348.216 254.427 348.51 254.142 348.725 253.778C348.939 253.424 349.047 253.013 349.047 252.546C349.047 252.089 348.939 251.678 348.725 251.314C348.51 250.95 348.216 250.666 347.843 250.46C347.479 250.255 347.059 250.152 346.583 250.152C346.097 250.152 345.663 250.255 345.281 250.46C344.907 250.666 344.613 250.95 344.399 251.314C344.184 251.678 344.077 252.089 344.077 252.546ZM343.125 260.923C343.125 260.419 343.227 259.967 343.433 259.565C343.638 259.164 343.918 258.833 344.273 258.571C344.637 258.319 345.057 258.165 345.533 258.109L347.591 258.109C348.076 258.165 348.496 258.324 348.851 258.585C349.215 258.847 349.495 259.178 349.691 259.579C349.887 259.99 349.985 260.438 349.985 260.923C349.985 261.53 349.831 262.076 349.523 262.561C349.224 263.047 348.813 263.429 348.291 263.709C347.777 263.999 347.194 264.143 346.541 264.143C345.897 264.143 345.318 264.003 344.805 263.723C344.291 263.443 343.881 263.056 343.573 262.561C343.274 262.076 343.125 261.53 343.125 260.923ZM344.063 260.755C344.063 261.222 344.165 261.633 344.371 261.987C344.585 262.342 344.879 262.617 345.253 262.813C345.635 263.019 346.069 263.121 346.555 263.121C347.049 263.121 347.483 263.019 347.857 262.813C348.23 262.617 348.524 262.342 348.739 261.987C348.953 261.633 349.061 261.227 349.061 260.769C349.061 260.312 348.953 259.906 348.739 259.551C348.524 259.206 348.23 258.935 347.857 258.739C347.483 258.543 347.049 258.445 346.555 258.445C346.069 258.445 345.635 258.543 345.253 258.739C344.879 258.935 344.585 259.206 344.371 259.551C344.165 259.897 344.063 260.298 344.063 260.755ZM340.493 257.521L349.845 257.521L349.845 258.501L348.165 258.501L346.569 258.305L344.959 258.501L340.493 258.501L340.493 257.521ZM343.265 265.711L353.177 265.711L353.177 266.691L343.265 266.691L343.265 265.711ZM343.125 271.533C343.125 270.908 343.274 270.348 343.573 269.853C343.881 269.359 344.291 268.967 344.805 268.677C345.318 268.397 345.897 268.257 346.541 268.257C347.194 268.257 347.777 268.397 348.291 268.677C348.813 268.967 349.224 269.359 349.523 269.853C349.831 270.348 349.985 270.903 349.985 271.519C349.985 272.023 349.882 272.471 349.677 272.863C349.481 273.265 349.201 273.587 348.837 273.829C348.482 274.081 348.067 274.235 347.591 274.291L345.533 274.291C345.057 274.235 344.637 274.081 344.273 273.829C343.909 273.587 343.624 273.265 343.419 272.863C343.223 272.471 343.125 272.028 343.125 271.533ZM344.063 271.687C344.063 272.369 344.291 272.915 344.749 273.325C345.206 273.745 345.808 273.955 346.555 273.955C347.049 273.955 347.483 273.857 347.857 273.661C348.239 273.475 348.533 273.209 348.739 272.863C348.953 272.527 349.061 272.131 349.061 271.673C349.061 271.207 348.953 270.791 348.739 270.427C348.524 270.073 348.225 269.788 347.843 269.573C347.469 269.368 347.04 269.265 346.555 269.265C346.069 269.265 345.64 269.368 345.267 269.573C344.893 269.788 344.599 270.077 344.385 270.441C344.17 270.805 344.063 271.221 344.063 271.687ZM343.265 273.899L345.029 273.899L346.653 274.095L348.235 273.899L349.845 273.899L349.845 274.879L343.265 274.879L343.265 273.899ZM343.125 279.667C343.125 279.06 343.274 278.514 343.573 278.029C343.871 277.544 344.277 277.156 344.791 276.867C345.313 276.587 345.897 276.447 346.541 276.447C347.194 276.447 347.777 276.587 348.291 276.867C348.813 277.156 349.224 277.544 349.523 278.029C349.831 278.514 349.985 279.06 349.985 279.667C349.985 280.162 349.887 280.61 349.691 281.011C349.495 281.412 349.215 281.744 348.851 282.005C348.496 282.276 348.076 282.434 347.591 282.481L345.533 282.481C345.057 282.425 344.637 282.266 344.273 282.005C343.918 281.753 343.638 281.426 343.433 281.025C343.227 280.624 343.125 280.171 343.125 279.667ZM344.063 279.835C344.063 280.292 344.165 280.694 344.371 281.039C344.585 281.384 344.879 281.655 345.253 281.851C345.635 282.047 346.069 282.145 346.555 282.145C347.049 282.145 347.483 282.042 347.857 281.837C348.23 281.641 348.524 281.37 348.739 281.025C348.953 280.68 349.061 280.278 349.061 279.821C349.061 279.364 348.953 278.958 348.739 278.603C348.524 278.248 348.225 277.968 347.843 277.763C347.469 277.567 347.04 277.469 346.555 277.469C346.069 277.469 345.635 277.567 345.253 277.763C344.879 277.968 344.585 278.248 344.371 278.603C344.165 278.967 344.063 279.378 344.063 279.835ZM343.265 283.069L343.265 282.089L345.029 282.089L346.653 282.285L348.235 282.089L353.177 282.089L353.177 283.069L343.265 283.069ZM343.125 288.094C343.125 287.432 343.274 286.839 343.573 286.316C343.871 285.794 344.282 285.378 344.805 285.07C345.327 284.772 345.915 284.622 346.569 284.622C347.213 284.622 347.791 284.772 348.305 285.07C348.827 285.369 349.238 285.775 349.537 286.288C349.835 286.802 349.985 287.376 349.985 288.01C349.985 288.608 349.849 289.135 349.579 289.592C349.308 290.059 348.93 290.423 348.445 290.684C347.969 290.955 347.418 291.09 346.793 291.09C346.718 291.09 346.629 291.086 346.527 291.076C346.433 291.067 346.321 291.048 346.191 291.02L346.191 285.322L347.031 285.322L347.031 290.488L346.723 290.138C347.208 290.148 347.623 290.064 347.969 289.886C348.323 289.718 348.594 289.471 348.781 289.144C348.977 288.827 349.075 288.44 349.075 287.982C349.075 287.506 348.972 287.091 348.767 286.736C348.561 286.382 348.272 286.102 347.899 285.896C347.535 285.7 347.101 285.602 346.597 285.602C346.093 285.602 345.649 285.705 345.267 285.91C344.884 286.125 344.585 286.419 344.371 286.792C344.156 287.175 344.049 287.614 344.049 288.108C344.049 288.51 344.119 288.878 344.259 289.214C344.408 289.55 344.627 289.835 344.917 290.068L344.273 290.698C343.909 290.39 343.624 290.008 343.419 289.55C343.223 289.102 343.125 288.617 343.125 288.094ZM343.265 297.378L347.129 297.378C347.707 297.378 348.174 297.205 348.529 296.86C348.893 296.524 349.075 296.076 349.075 295.516C349.075 295.133 348.991 294.797 348.823 294.508C348.655 294.218 348.426 293.99 348.137 293.822C347.847 293.654 347.516 293.57 347.143 293.57L347.395 293.122C347.889 293.122 348.333 293.238 348.725 293.472C349.117 293.705 349.425 294.018 349.649 294.41C349.873 294.811 349.985 295.268 349.985 295.782C349.985 296.286 349.863 296.734 349.621 297.126C349.378 297.518 349.051 297.821 348.641 298.036C348.23 298.26 347.782 298.372 347.297 298.372L343.265 298.372L343.265 297.378ZM343.265 292.59L349.845 292.59L349.845 293.57L343.265 293.57L343.265 292.59Z" fill="#24E720"/>
<path d="M25.5555 296.762V295.824H30.0215V296.762H25.5555ZM34.949 299.982C34.333 299.982 33.773 299.837 33.269 299.548C32.7743 299.249 32.3776 298.853 32.079 298.358C31.7896 297.863 31.645 297.313 31.645 296.706C31.645 295.885 31.9296 295.082 32.499 294.298L35.523 290.21H36.727L33.731 294.172L33.367 294.312C33.4976 294.144 33.647 294.004 33.815 293.892C33.9923 293.771 34.193 293.677 34.417 293.612C34.641 293.547 34.8976 293.514 35.187 293.514C35.7563 293.514 36.2743 293.654 36.741 293.934C37.2076 294.205 37.581 294.578 37.861 295.054C38.141 295.53 38.281 296.071 38.281 296.678C38.281 297.285 38.1316 297.84 37.833 298.344C37.5343 298.839 37.133 299.235 36.629 299.534C36.125 299.833 35.565 299.982 34.949 299.982ZM34.963 299.03C35.383 299.03 35.7656 298.927 36.111 298.722C36.4656 298.507 36.7456 298.223 36.951 297.868C37.1563 297.504 37.259 297.107 37.259 296.678C37.259 296.239 37.1563 295.843 36.951 295.488C36.7456 295.133 36.4656 294.853 36.111 294.648C35.7656 294.433 35.383 294.326 34.963 294.326C34.5336 294.326 34.1416 294.433 33.787 294.648C33.4416 294.853 33.1663 295.133 32.961 295.488C32.765 295.833 32.667 296.23 32.667 296.678C32.667 297.117 32.765 297.518 32.961 297.882C33.1663 298.237 33.4416 298.517 33.787 298.722C34.1416 298.927 34.5336 299.03 34.963 299.03ZM43.537 299.982C42.8277 299.982 42.179 299.781 41.591 299.38C41.003 298.969 40.5317 298.391 40.177 297.644C39.8317 296.897 39.659 296.02 39.659 295.012C39.659 293.995 39.8317 293.122 40.177 292.394C40.5223 291.657 40.9843 291.087 41.563 290.686C42.151 290.275 42.7997 290.07 43.509 290.07C44.2277 290.07 44.8763 290.271 45.455 290.672C46.043 291.073 46.5097 291.647 46.855 292.394C47.2003 293.131 47.373 294.009 47.373 295.026C47.373 296.034 47.2003 296.911 46.855 297.658C46.5097 298.405 46.0477 298.979 45.469 299.38C44.8903 299.781 44.2463 299.982 43.537 299.982ZM43.509 299.016C44.0597 299.016 44.545 298.862 44.965 298.554C45.3943 298.237 45.7303 297.784 45.973 297.196C46.2157 296.599 46.337 295.871 46.337 295.012C46.337 294.163 46.2157 293.444 45.973 292.856C45.7303 292.259 45.3943 291.806 44.965 291.498C44.545 291.19 44.0597 291.036 43.509 291.036C42.9677 291.036 42.4823 291.19 42.053 291.498C41.633 291.806 41.3017 292.254 41.059 292.842C40.8163 293.43 40.695 294.153 40.695 295.012C40.695 295.871 40.8163 296.599 41.059 297.196C41.3017 297.784 41.633 298.237 42.053 298.554C42.4823 298.862 42.9677 299.016 43.509 299.016ZM52.7382 299.982C52.0288 299.982 51.3802 299.781 50.7922 299.38C50.2042 298.969 49.7328 298.391 49.3782 297.644C49.0328 296.897 48.8602 296.02 48.8602 295.012C48.8602 293.995 49.0328 293.122 49.3782 292.394C49.7235 291.657 50.1855 291.087 50.7642 290.686C51.3522 290.275 52.0008 290.07 52.7102 290.07C53.4288 290.07 54.0775 290.271 54.6562 290.672C55.2442 291.073 55.7108 291.647 56.0562 292.394C56.4015 293.131 56.5742 294.009 56.5742 295.026C56.5742 296.034 56.4015 296.911 56.0562 297.658C55.7108 298.405 55.2488 298.979 54.6702 299.38C54.0915 299.781 53.4475 299.982 52.7382 299.982ZM52.7102 299.016C53.2608 299.016 53.7462 298.862 54.1662 298.554C54.5955 298.237 54.9315 297.784 55.1742 297.196C55.4168 296.599 55.5382 295.871 55.5382 295.012C55.5382 294.163 55.4168 293.444 55.1742 292.856C54.9315 292.259 54.5955 291.806 54.1662 291.498C53.7462 291.19 53.2608 291.036 52.7102 291.036C52.1688 291.036 51.6835 291.19 51.2542 291.498C50.8342 291.806 50.5028 292.254 50.2602 292.842C50.0175 293.43 49.8962 294.153 49.8962 295.012C49.8962 295.871 50.0175 296.599 50.2602 297.196C50.5028 297.784 50.8342 298.237 51.2542 298.554C51.6835 298.862 52.1688 299.016 52.7102 299.016Z" fill="#9747FF"/>
<path opacity="0.5" d="M299.169 313.315L302.739 309.591C303.149 309.152 303.467 308.783 303.691 308.485C303.924 308.186 304.083 307.915 304.167 307.673C304.26 307.421 304.307 307.159 304.307 306.889C304.307 306.338 304.134 305.909 303.789 305.601C303.443 305.283 302.986 305.125 302.417 305.125C301.894 305.125 301.437 305.251 301.045 305.503C300.653 305.745 300.303 306.114 299.995 306.609L299.281 305.979C299.654 305.391 300.102 304.943 300.625 304.635C301.147 304.327 301.754 304.173 302.445 304.173C303.023 304.173 303.527 304.285 303.957 304.509C304.395 304.733 304.731 305.05 304.965 305.461C305.207 305.871 305.329 306.352 305.329 306.903C305.329 307.285 305.277 307.635 305.175 307.953C305.072 308.261 304.89 308.587 304.629 308.933C304.377 309.269 304.017 309.679 303.551 310.165L300.527 313.273L299.169 313.315ZM299.169 313.945V313.315L300.009 313.021H305.567V313.945H299.169ZM309.669 314.085C309.053 314.085 308.489 313.963 307.975 313.721C307.471 313.478 307.047 313.128 306.701 312.671L307.387 311.985C307.621 312.339 307.938 312.619 308.339 312.825C308.741 313.021 309.179 313.119 309.655 313.119C310.122 313.119 310.523 313.03 310.859 312.853C311.205 312.675 311.471 312.428 311.657 312.111C311.853 311.784 311.951 311.406 311.951 310.977C311.951 310.538 311.853 310.16 311.657 309.843C311.471 309.525 311.2 309.278 310.845 309.101C310.5 308.923 310.085 308.835 309.599 308.835C309.441 308.835 309.277 308.844 309.109 308.863C308.951 308.881 308.792 308.914 308.633 308.961L309.025 308.387C309.184 308.303 309.357 308.237 309.543 308.191C309.73 308.144 309.935 308.121 310.159 308.121C310.691 308.121 311.172 308.247 311.601 308.499C312.031 308.741 312.367 309.082 312.609 309.521C312.861 309.95 312.987 310.449 312.987 311.019C312.987 311.625 312.847 312.157 312.567 312.615C312.287 313.072 311.895 313.431 311.391 313.693C310.897 313.954 310.323 314.085 309.669 314.085ZM308.633 308.961V308.331L311.685 304.901L312.875 304.943L309.767 308.415L308.633 308.961ZM307.121 305.223V304.313H312.875V304.943L311.993 305.223H307.121ZM315.579 314.085C315.346 314.085 315.155 314.005 315.005 313.847C314.865 313.688 314.795 313.501 314.795 313.287C314.795 313.053 314.865 312.862 315.005 312.713C315.155 312.554 315.346 312.475 315.579 312.475C315.803 312.475 315.99 312.554 316.139 312.713C316.298 312.862 316.377 313.053 316.377 313.287C316.377 313.501 316.298 313.688 316.139 313.847C315.99 314.005 315.803 314.085 315.579 314.085ZM315.579 309.675C315.346 309.675 315.155 309.595 315.005 309.437C314.865 309.278 314.795 309.091 314.795 308.877C314.795 308.643 314.865 308.452 315.005 308.303C315.155 308.153 315.346 308.079 315.579 308.079C315.803 308.079 315.99 308.153 316.139 308.303C316.298 308.452 316.377 308.643 316.377 308.877C316.377 309.091 316.298 309.278 316.139 309.437C315.99 309.595 315.803 309.675 315.579 309.675ZM320.935 314.085C320.3 314.085 319.731 313.963 319.227 313.721C318.723 313.478 318.298 313.128 317.953 312.671L318.639 311.985C318.872 312.339 319.185 312.619 319.577 312.825C319.978 313.021 320.426 313.119 320.921 313.119C321.388 313.119 321.798 313.03 322.153 312.853C322.508 312.666 322.783 312.409 322.979 312.083C323.184 311.747 323.287 311.355 323.287 310.907C323.287 310.449 323.189 310.057 322.993 309.731C322.797 309.395 322.531 309.138 322.195 308.961C321.859 308.783 321.481 308.695 321.061 308.695C320.66 308.695 320.291 308.751 319.955 308.863C319.628 308.965 319.33 309.133 319.059 309.367L319.031 308.695C319.199 308.508 319.39 308.354 319.605 308.233C319.82 308.111 320.058 308.018 320.319 307.953C320.59 307.887 320.888 307.855 321.215 307.855C321.859 307.855 322.414 307.995 322.881 308.275C323.348 308.545 323.702 308.914 323.945 309.381C324.197 309.847 324.323 310.375 324.323 310.963C324.323 311.569 324.178 312.106 323.889 312.573C323.6 313.039 323.198 313.408 322.685 313.679C322.181 313.949 321.598 314.085 320.935 314.085ZM319.059 309.367L318.513 308.807L318.933 304.313H319.871L319.409 308.905L319.059 309.367ZM319.185 305.223L318.933 304.313H323.889V305.223H319.185ZM327.18 313.945L330.19 309.969L330.54 309.829C330.409 309.997 330.26 310.141 330.092 310.263C329.924 310.384 329.728 310.477 329.504 310.543C329.28 310.608 329.023 310.641 328.734 310.641C328.165 310.641 327.647 310.501 327.18 310.221C326.713 309.941 326.335 309.563 326.046 309.087C325.766 308.611 325.626 308.074 325.626 307.477C325.626 306.861 325.775 306.305 326.074 305.811C326.382 305.307 326.783 304.91 327.278 304.621C327.782 304.322 328.342 304.173 328.958 304.173C329.583 304.173 330.143 304.317 330.638 304.607C331.142 304.896 331.539 305.288 331.828 305.783C332.127 306.277 332.276 306.828 332.276 307.435C332.276 308.256 331.991 309.059 331.422 309.843L328.384 313.945H327.18ZM328.958 309.815C329.387 309.815 329.775 309.712 330.12 309.507C330.465 309.301 330.736 309.021 330.932 308.667C331.137 308.303 331.24 307.906 331.24 307.477C331.24 307.029 331.137 306.627 330.932 306.273C330.736 305.918 330.465 305.638 330.12 305.433C329.775 305.218 329.387 305.111 328.958 305.111C328.529 305.111 328.141 305.218 327.796 305.433C327.451 305.638 327.175 305.923 326.97 306.287C326.765 306.641 326.662 307.038 326.662 307.477C326.662 307.906 326.765 308.298 326.97 308.653C327.175 309.007 327.451 309.292 327.796 309.507C328.151 309.712 328.538 309.815 328.958 309.815Z" fill="black"/>
<path d="M190.913 342.708V465.901" stroke="url(#paint0_linear_246_9)" stroke-width="5"/>
<path d="M92.0437 22.2727L102.18 12.1364L92.0437 2" stroke="#24E720" stroke-width="5"/>
<path d="M180.777 420.815L190.913 430.952L201.049 420.815" stroke="#24E720" stroke-width="5"/>
<path fill-rule="evenodd" clip-rule="evenodd" d="M240.532 465.901H137.606V665.748H240.532V465.901ZM234.196 472.668H143.941V647.207H234.196V472.668Z" fill="#D9D9D9"/>
<path d="M155.351 514.662C155.611 511.046 168.399 500.831 168.435 508.175C168.445 510.225 169.15 512.538 169.248 514.402C169.369 516.702 177.311 508.221 177.924 507.807C179.798 506.541 186.066 500.772 186.913 505.616C187.268 507.647 188.112 509.57 188.337 511.642C188.572 513.81 190.203 510.431 190.898 509.653C193.029 507.268 195.988 505.16 199.01 504.07C201.422 503.199 203.306 510.479 204.106 512.147C205.541 515.138 208.171 512.594 210.193 511.324" stroke="#D9D9D9" stroke-width="3" stroke-linecap="round"/>
<path d="M154.425 486.834C154.519 485.524 159.151 481.824 159.164 484.484C159.167 485.227 159.423 486.065 159.458 486.74C159.502 487.573 162.379 484.501 162.601 484.351C163.28 483.893 165.55 481.803 165.857 483.558C165.985 484.293 166.291 484.99 166.372 485.74C166.457 486.525 167.048 485.302 167.3 485.02C168.072 484.156 169.143 483.392 170.238 482.997C171.112 482.682 171.794 485.319 172.084 485.923C172.603 487.007 173.556 486.085 174.288 485.625" stroke="#D9D9D9" stroke-width="3" stroke-linecap="round"/>
<rect x="141.097" y="553.752" width="14.2539" height="49.2481" fill="white"/>
<mask id="mask0_246_9" style="mask-type:alpha" maskUnits="userSpaceOnUse" x="137" y="465" width="104" height="201">
<path fill-rule="evenodd" clip-rule="evenodd" d="M240.532 465.901H137.606V665.748H240.532V465.901ZM234.196 472.668H143.941V647.207H234.196V472.668Z" fill="#D9D9D9"/>
</mask>
<g mask="url(#mask0_246_9)">
<rect x="137.651" y="551.016" width="15.1394" height="53.0319" fill="#D9D9D9"/>
</g>
<path d="M180.777 545.559C180.877 543.955 185.799 539.425 185.813 542.682C185.817 543.591 186.088 544.617 186.126 545.444C186.172 546.464 189.23 542.702 189.465 542.519C190.187 541.957 192.6 539.398 192.926 541.547C193.062 542.448 193.387 543.3 193.473 544.219C193.564 545.181 194.192 543.682 194.459 543.337C195.279 542.279 196.419 541.345 197.582 540.861C198.51 540.475 199.235 543.704 199.543 544.443C200.096 545.77 201.108 544.642 201.886 544.078C202.775 543.435 204.356 542.7 205.048 541.838C206.594 539.914 206.543 546.147 208.05 545.181C209.958 543.956 211.688 542.298 213.374 540.711C214.49 539.661 214.395 544.923 214.534 545.688C215.24 549.576 219.906 542.16 221.57 541.671" stroke="#D9D9D9" stroke-width="3" stroke-linecap="round"/>
<path d="M180.777 569.459C180.877 567.855 185.799 563.325 185.813 566.582C185.817 567.491 186.088 568.517 186.126 569.344C186.172 570.364 189.23 566.602 189.465 566.419C190.187 565.857 192.6 563.298 192.926 565.447C193.062 566.348 193.387 567.2 193.473 568.119C193.564 569.081 194.192 567.582 194.459 567.238C195.279 566.179 196.419 565.245 197.582 564.761C198.51 564.375 199.235 567.604 199.543 568.343C200.096 569.67 201.108 568.542 201.886 567.978C202.775 567.335 204.356 566.6 205.048 565.738C206.594 563.814 206.543 570.047 208.05 569.081C209.958 567.856 211.688 566.198 213.374 564.611C214.49 563.561 214.395 568.823 214.534 569.588C215.24 573.476 219.906 566.06 221.57 565.571" stroke="#D9D9D9" stroke-width="3" stroke-linecap="round"/>
<path d="M180.777 593.359C180.877 591.755 185.799 587.225 185.813 590.482C185.817 591.391 186.088 592.417 186.126 593.244C186.172 594.264 189.23 590.503 189.465 590.319C190.187 589.757 192.6 587.199 192.926 589.347C193.062 590.248 193.387 591.101 193.473 592.02C193.564 592.981 194.192 591.483 194.459 591.138C195.279 590.08 196.419 589.145 197.582 588.661C198.51 588.275 199.235 591.504 199.543 592.244C200.096 593.57 201.108 592.442 201.886 591.879C202.775 591.235 204.356 590.5 205.048 589.639C206.594 587.714 206.543 593.947 208.05 592.981C209.958 591.757 211.688 590.098 213.374 588.511C214.49 587.461 214.395 592.724 214.534 593.488C215.24 597.376 219.906 589.96 221.57 589.471" stroke="#D9D9D9" stroke-width="3" stroke-linecap="round"/>
<path d="M180.777 620.675C180.877 619.071 185.799 614.541 185.813 617.798C185.817 618.707 186.088 619.733 186.126 620.56C186.172 621.58 189.23 617.818 189.465 617.635C190.187 617.073 192.6 614.514 192.926 616.663C193.062 617.564 193.387 618.416 193.473 619.335C193.564 620.297 194.192 618.798 194.459 618.454C195.279 617.396 196.419 616.461 197.582 615.977C198.51 615.591 199.235 618.82 199.543 619.56C200.096 620.886 201.108 619.758 201.886 619.194C202.775 618.551 204.356 617.816 205.048 616.954C206.594 615.03 206.543 621.263 208.05 620.297C209.958 619.072 211.688 617.414 213.374 615.827C214.49 614.777 214.395 620.04 214.534 620.804C215.24 624.692 219.906 617.276 221.57 616.787" stroke="#D9D9D9" stroke-width="3" stroke-linecap="round"/>
<path d="M155.437 544.25C155.385 544.664 155.206 542.933 155.596 542.282C156.562 540.673 158.179 539.685 159.474 538.39C160.991 536.873 160.924 539.15 160.646 540.141C159.888 542.833 157.868 544.658 156.739 547.115C156.486 547.665 156.479 548.215 156.479 548.807C156.479 549.462 157.083 548.027 157.26 547.78C158.901 545.501 160.76 543.407 162.44 541.168C162.668 540.864 165.073 537.838 165.073 538.709C165.073 541.165 163.975 543.604 162.744 545.682C161.924 547.066 161.134 548.528 160.443 549.979C159.798 551.334 160.294 551.97 161.224 550.442C163.377 546.906 165.605 541.72 169.355 539.577C171.051 538.608 168.226 543.432 168.053 543.7C166.949 545.41 166.149 547.286 165.073 548.995C164.835 549.373 164.02 551.56 164.349 551.021C165.622 548.939 168.157 547.456 169.24 545.292" stroke="#24E720" stroke-width="5" stroke-linecap="round"/>
<path d="M155.437 569.511C155.385 569.925 155.206 568.194 155.596 567.543C156.562 565.934 158.179 564.946 159.474 563.652C160.991 562.135 160.924 564.411 160.646 565.402C159.888 568.094 157.868 569.919 156.739 572.376C156.486 572.926 156.479 573.476 156.479 574.068C156.479 574.723 157.083 573.288 157.26 573.041C158.901 570.763 160.76 568.668 162.44 566.429C162.668 566.125 165.073 563.099 165.073 563.97C165.073 566.426 163.975 568.865 162.744 570.943C161.924 572.327 161.134 573.789 160.443 575.24C159.798 576.595 160.294 577.231 161.224 575.703C163.377 572.167 165.605 566.981 169.355 564.838C171.051 563.869 168.226 568.693 168.053 568.961C166.949 570.671 166.149 572.547 165.073 574.257C164.835 574.634 164.02 576.821 164.349 576.282C165.622 574.2 168.157 572.717 169.24 570.553" stroke="#24E720" stroke-width="5" stroke-linecap="round"/>
<path d="M154.445 592.05C154.393 592.465 154.214 590.733 154.604 590.082C155.57 588.473 157.187 587.485 158.482 586.191C159.999 584.674 159.933 586.95 159.654 587.941C158.897 590.633 156.876 592.458 155.747 594.915C155.495 595.465 155.487 596.015 155.487 596.608C155.487 597.262 156.091 595.827 156.268 595.58C157.909 593.302 159.768 591.207 161.448 588.968C161.676 588.665 164.081 585.638 164.081 586.509C164.081 588.965 162.983 591.404 161.752 593.482C160.932 594.866 160.142 596.328 159.451 597.779C158.806 599.134 159.302 599.77 160.232 598.242C162.385 594.706 164.613 589.52 168.363 587.377C170.059 586.408 167.234 591.232 167.061 591.5C165.957 593.21 165.157 595.086 164.081 596.796C163.843 597.173 163.028 599.36 163.358 598.821C164.63 596.739 167.165 595.256 168.248 593.092" stroke="#24E720" stroke-width="5" stroke-linecap="round"/>
<path d="M154.445 619.366C154.393 619.78 154.214 618.049 154.604 617.398C155.57 615.789 157.187 614.801 158.482 613.506C159.999 611.99 159.933 614.266 159.654 615.257C158.897 617.949 156.876 619.774 155.747 622.231C155.495 622.781 155.487 623.331 155.487 623.923C155.487 624.578 156.091 623.143 156.268 622.896C157.909 620.617 159.768 618.523 161.448 616.284C161.676 615.98 164.081 612.954 164.081 613.825C164.081 616.281 162.983 618.72 161.752 620.798C160.932 622.182 160.142 623.644 159.451 625.095C158.806 626.45 159.302 627.086 160.232 625.558C162.385 622.022 164.613 616.836 168.363 614.693C170.059 613.724 167.234 618.548 167.061 618.816C165.957 620.526 165.157 622.402 164.081 624.112C163.843 624.489 163.028 626.676 163.358 626.137C164.63 624.055 167.165 622.572 168.248 620.408" stroke="#24E720" stroke-width="5" stroke-linecap="round"/>
<path d="M151.708 539.115H173.539V550.098H151.708V539.115Z" fill="#E8E8E8"/>
<path d="M162.456 547.45C162.045 547.45 161.667 547.378 161.32 547.234C160.978 547.085 160.677 546.877 160.415 546.61C160.159 546.343 159.959 546.034 159.815 545.681C159.676 545.324 159.607 544.94 159.607 544.529C159.607 544.118 159.676 543.737 159.815 543.384C159.959 543.027 160.159 542.717 160.415 542.456C160.671 542.194 160.97 541.992 161.312 541.848C161.659 541.698 162.037 541.624 162.448 541.624C162.881 541.624 163.265 541.696 163.601 541.84C163.942 541.984 164.244 542.181 164.505 542.432L163.665 543.28C163.515 543.115 163.339 542.987 163.137 542.896C162.939 542.8 162.704 542.752 162.432 542.752C162.123 542.752 161.851 542.827 161.616 542.976C161.386 543.12 161.208 543.326 161.08 543.592C160.952 543.859 160.888 544.171 160.888 544.529C160.888 544.886 160.952 545.201 161.08 545.473C161.213 545.74 161.397 545.948 161.632 546.098C161.867 546.242 162.141 546.314 162.456 546.314C162.723 546.314 162.958 546.268 163.161 546.178C163.363 546.087 163.542 545.959 163.697 545.794L164.545 546.642C164.273 546.893 163.966 547.09 163.625 547.234C163.289 547.378 162.899 547.45 162.456 547.45ZM159.071 544.297V543.536H162.921L162.728 544.297H159.071ZM159.071 545.577V544.817H162.632L162.44 545.577H159.071Z" fill="#8E8E8E"/>
<path fill-rule="evenodd" clip-rule="evenodd" d="M163.637 581.038H159.29V583.233H155.351V601.354H167.576V583.233H163.637V581.038Z" fill="#E8E8E8"/>
<path fill-rule="evenodd" clip-rule="evenodd" d="M161.732 596.21C161.584 596.358 161.343 596.358 161.195 596.21L158.778 593.793C158.63 593.645 158.63 593.404 158.778 593.256C158.926 593.108 159.167 593.108 159.315 593.256L161.084 595.025L161.084 588.45L161.843 588.45L161.843 595.025L163.612 593.256C163.76 593.108 164.001 593.108 164.149 593.256C164.297 593.404 164.297 593.645 164.149 593.793L161.732 596.21Z" fill="#8E8E8E"/>
<path fill-rule="evenodd" clip-rule="evenodd" d="M156.743 575.856C156.747 575.856 156.751 575.856 156.755 575.856C156.76 575.856 156.764 575.856 156.768 575.856H170.591V575.854C170.641 575.855 170.692 575.856 170.743 575.856C173.576 575.856 175.872 573.813 175.872 571.292C175.872 568.771 173.576 566.728 170.743 566.728H170.743V566.728C170.743 563.651 167.94 561.157 164.483 561.157C162.5 561.157 160.733 561.978 159.586 563.257C159.232 563.08 158.823 562.978 158.387 562.978C157.189 562.978 156.193 563.745 155.983 564.757C152.89 565.096 150.495 567.442 150.495 570.286C150.495 573.32 153.221 575.787 156.613 575.854V575.856H156.743Z" fill="#E8E8E8"/>
<path d="M158.89 572.151C158.532 572.151 158.2 572.09 157.892 571.968C157.589 571.841 157.322 571.665 157.092 571.438C156.866 571.212 156.689 570.95 156.562 570.651C156.436 570.348 156.372 570.022 156.372 569.674C156.372 569.326 156.436 569.002 156.562 568.704C156.689 568.401 156.866 568.138 157.092 567.917C157.318 567.695 157.583 567.523 157.886 567.401C158.193 567.274 158.526 567.211 158.883 567.211C159.263 567.211 159.6 567.272 159.894 567.394C160.193 567.516 160.453 567.684 160.674 567.896L159.962 568.616C159.835 568.48 159.681 568.374 159.501 568.297C159.324 568.22 159.118 568.181 158.883 568.181C158.675 568.181 158.483 568.218 158.306 568.29C158.134 568.358 157.985 568.457 157.858 568.588C157.736 568.72 157.639 568.878 157.567 569.063C157.499 569.249 157.465 569.452 157.465 569.674C157.465 569.9 157.499 570.106 157.567 570.292C157.639 570.477 157.736 570.635 157.858 570.767C157.985 570.898 158.134 571 158.306 571.072C158.483 571.144 158.675 571.18 158.883 571.18C159.127 571.18 159.34 571.142 159.521 571.065C159.702 570.988 159.858 570.882 159.989 570.746L160.708 571.465C160.478 571.678 160.213 571.845 159.914 571.968C159.62 572.09 159.279 572.151 158.89 572.151Z" fill="#8E8E8E"/>
<path d="M163.389 572.158C163.028 572.158 162.693 572.094 162.385 571.968C162.082 571.841 161.815 571.665 161.585 571.438C161.354 571.212 161.175 570.95 161.049 570.651C160.922 570.348 160.859 570.022 160.859 569.674C160.859 569.321 160.922 568.996 161.049 568.697C161.175 568.398 161.352 568.138 161.578 567.917C161.804 567.691 162.069 567.516 162.372 567.394C162.679 567.268 163.014 567.204 163.376 567.204C163.733 567.204 164.064 567.268 164.367 567.394C164.674 567.516 164.941 567.691 165.167 567.917C165.398 568.138 165.577 568.401 165.703 568.704C165.83 569.002 165.893 569.328 165.893 569.681C165.893 570.029 165.83 570.355 165.703 570.658C165.577 570.957 165.4 571.219 165.174 571.445C164.948 571.667 164.681 571.841 164.373 571.968C164.07 572.094 163.742 572.158 163.389 572.158ZM163.376 571.187C163.661 571.187 163.91 571.124 164.122 570.997C164.339 570.871 164.507 570.694 164.624 570.468C164.742 570.237 164.801 569.973 164.801 569.674C164.801 569.448 164.767 569.244 164.699 569.063C164.631 568.878 164.534 568.72 164.407 568.588C164.281 568.453 164.129 568.351 163.953 568.283C163.781 568.211 163.589 568.175 163.376 568.175C163.091 568.175 162.84 568.238 162.623 568.365C162.41 568.487 162.245 568.661 162.127 568.887C162.01 569.109 161.951 569.371 161.951 569.674C161.951 569.9 161.985 570.106 162.053 570.292C162.121 570.477 162.216 570.638 162.338 570.773C162.464 570.905 162.616 571.006 162.792 571.079C162.969 571.151 163.163 571.187 163.376 571.187Z" fill="#8E8E8E"/>
<path d="M166.271 571.479L168.11 569.579C168.223 569.466 168.313 569.362 168.381 569.267C168.449 569.172 168.499 569.084 168.531 569.002C168.562 568.916 168.578 568.83 168.578 568.745C168.578 568.559 168.517 568.414 168.395 568.31C168.277 568.202 168.121 568.147 167.927 568.147C167.737 568.147 167.565 568.199 167.411 568.303C167.262 568.403 167.117 568.568 166.977 568.799L166.264 568.181C166.454 567.86 166.696 567.618 166.99 567.455C167.284 567.292 167.621 567.211 168.001 567.211C168.332 567.211 168.617 567.272 168.856 567.394C169.101 567.516 169.288 567.691 169.419 567.917C169.555 568.143 169.623 568.408 169.623 568.711C169.623 568.901 169.598 569.077 169.548 569.24C169.499 569.398 169.417 569.557 169.304 569.715C169.196 569.869 169.049 570.038 168.863 570.224L167.587 571.493L166.271 571.479ZM166.271 572.076V571.479L167.173 571.167H169.718V572.076H166.271Z" fill="#8E8E8E"/>
<path d="M174.099 564.692C174.099 565.098 173.771 565.427 173.365 565.427C172.959 565.427 172.631 565.098 172.631 564.692C172.631 564.287 172.959 563.958 173.365 563.958C173.771 563.958 174.099 564.287 174.099 564.692Z" fill="#E8E8E8"/>
<path d="M151.616 564.692C151.616 565.311 151.114 565.813 150.495 565.813C149.876 565.813 149.374 565.311 149.374 564.692C149.374 564.073 149.876 563.571 150.495 563.571C151.114 563.571 151.616 564.073 151.616 564.692Z" fill="#E8E8E8"/>
<rect x="154.672" y="613.487" width="13.5822" height="11.858" fill="#E8E8E8"/>
<path d="M157.295 612.093V614.881" stroke="#E8E8E8" stroke-width="5"/>
<path d="M161.463 612.093V614.881" stroke="#E8E8E8" stroke-width="5"/>
<path d="M165.632 612.093V614.881" stroke="#E8E8E8" stroke-width="5"/>
<path d="M160.751 620.914L160.457 617.136H162.266L161.971 620.914H160.751ZM161.365 623.396C161.102 623.396 160.883 623.306 160.709 623.127C160.535 622.947 160.448 622.728 160.448 622.47C160.448 622.207 160.535 621.985 160.709 621.806C160.883 621.626 161.102 621.536 161.365 621.536C161.629 621.536 161.845 621.626 162.013 621.806C162.187 621.985 162.274 622.207 162.274 622.47C162.274 622.728 162.187 622.947 162.013 623.127C161.845 623.306 161.629 623.396 161.365 623.396Z" fill="#8E8E8E"/>
<path d="M0 12.1364H195.135V88.3506" stroke="url(#paint1_linear_246_9)" stroke-width="5"/>
<defs>
<linearGradient id="paint0_linear_246_9" x1="191.413" y1="342.708" x2="191.413" y2="465.901" gradientUnits="userSpaceOnUse">
<stop stop-color="#24E720" stop-opacity="0"/>
<stop offset="1" stop-color="#24E720"/>
</linearGradient>
<linearGradient id="paint1_linear_246_9" x1="97.5674" y1="12.1364" x2="97.5674" y2="88.3506" gradientUnits="userSpaceOnUse">
<stop stop-color="#24E720"/>
<stop offset="1" stop-color="#24E720" stop-opacity="0"/>
</linearGradient>
</defs>
</svg>
