<svg width="383" height="666" viewBox="0 0 383 666" fill="none" xmlns="http://www.w3.org/2000/svg">
<path d="M60.6168 299.875H330.021" stroke="#8E8E8E" stroke-opacity="0.1"/>
<path d="M60.0754 250.3H329.48" stroke="#8E8E8E" stroke-opacity="0.1"/>
<path d="M60.6168 201.179H330.021" stroke="#8E8E8E" stroke-opacity="0.1"/>
<path d="M60.6168 151.278H330.021" stroke="#8E8E8E" stroke-opacity="0.1"/>
<g opacity="0.5">
<rect x="60.7163" y="201.179" width="29.3831" height="69.5749" fill="#24E720"/>
<rect x="119.483" y="118" width="29.3831" height="83.1795" fill="#24E720"/>
<rect x="148.866" y="151.278" width="29.3831" height="49.9015" fill="#24E720"/>
<rect width="29.3831" height="60.7706" transform="matrix(1 0 0 -1 178.249 261.95)" fill="#24E720"/>
<rect width="29.3831" height="60.7706" transform="matrix(1 0 0 -1 207.632 261.95)" fill="#24E720"/>
<rect width="29.3831" height="73.0966" transform="matrix(1 0 0 -1 270.714 274.276)" fill="#24E720"/>
<rect width="29.3831" height="54.1674" transform="matrix(1 0 0 -1 300.097 255.347)" fill="#24E720"/>
<rect x="90.0995" y="118" width="29.3831" height="83.1795" fill="#24E720"/>
</g>
<path d="M60.6168 102.931H330.021" stroke="#8E8E8E" stroke-opacity="0.1"/>
<path d="M60.0754 180.729H70.0735V166.136H80.0715V210.933H90.0695V147.131H100.067L100.067 124.733H110.065V130.502H120.063V147.131H130.061L130.061 141.606H140.059V161.289H150.057L150.057 155.859H160.055V168.755H170.053V200.656H190.049V180.729H200.047V166.136H210.045V210.933H220.043V185.181H230.041L230.041 171.379H240.039V174.934H250.037V185.181H260.035L260.035 181.776H270.033V193.905H280.031L280.031 190.559H290.029V198.506H300.027V200.656H330.021" stroke="#9747FF"/>
<path d="M60.7163 208.634V102.482V299.877" stroke="#9747FF" stroke-width="2"/>
<path d="M330.021 208.634V102.482V299.877" stroke="#24E720" stroke-width="2"/>
<path opacity="0.5" d="M177.846 313.877V304.245H178.854V313.877H177.846ZM175.816 305.155V304.245H178.714V305.155H175.816ZM180.574 313.247L184.144 309.523C184.555 309.084 184.872 308.716 185.096 308.417C185.33 308.118 185.488 307.848 185.572 307.605C185.666 307.353 185.712 307.092 185.712 306.821C185.712 306.27 185.54 305.841 185.194 305.533C184.849 305.216 184.392 305.057 183.822 305.057C183.3 305.057 182.842 305.183 182.45 305.435C182.058 305.678 181.708 306.046 181.4 306.541L180.686 305.911C181.06 305.323 181.508 304.875 182.03 304.567C182.553 304.259 183.16 304.105 183.85 304.105C184.429 304.105 184.933 304.217 185.362 304.441C185.801 304.665 186.137 304.982 186.37 305.393C186.613 305.804 186.734 306.284 186.734 306.835C186.734 307.218 186.683 307.568 186.58 307.885C186.478 308.193 186.296 308.52 186.034 308.865C185.782 309.201 185.423 309.612 184.956 310.097L181.932 313.205L180.574 313.247ZM180.574 313.877V313.247L181.414 312.953H186.972V313.877H180.574ZM189.493 314.017C189.26 314.017 189.068 313.938 188.919 313.779C188.779 313.62 188.709 313.434 188.709 313.219C188.709 312.986 188.779 312.794 188.919 312.645C189.068 312.486 189.26 312.407 189.493 312.407C189.717 312.407 189.904 312.486 190.053 312.645C190.212 312.794 190.291 312.986 190.291 313.219C190.291 313.434 190.212 313.62 190.053 313.779C189.904 313.938 189.717 314.017 189.493 314.017ZM189.493 309.607C189.26 309.607 189.068 309.528 188.919 309.369C188.779 309.21 188.709 309.024 188.709 308.809C188.709 308.576 188.779 308.384 188.919 308.235C189.068 308.086 189.26 308.011 189.493 308.011C189.717 308.011 189.904 308.086 190.053 308.235C190.212 308.384 190.291 308.576 190.291 308.809C190.291 309.024 190.212 309.21 190.053 309.369C189.904 309.528 189.717 309.607 189.493 309.607ZM195.996 314.017C195.287 314.017 194.638 313.816 194.05 313.415C193.462 313.004 192.991 312.426 192.636 311.679C192.291 310.932 192.118 310.055 192.118 309.047C192.118 308.03 192.291 307.157 192.636 306.429C192.982 305.692 193.444 305.122 194.022 304.721C194.61 304.31 195.259 304.105 195.968 304.105C196.687 304.105 197.336 304.306 197.914 304.707C198.502 305.108 198.969 305.682 199.314 306.429C199.66 307.166 199.832 308.044 199.832 309.061C199.832 310.069 199.66 310.946 199.314 311.693C198.969 312.44 198.507 313.014 197.928 313.415C197.35 313.816 196.706 314.017 195.996 314.017ZM195.968 313.051C196.519 313.051 197.004 312.897 197.424 312.589C197.854 312.272 198.19 311.819 198.432 311.231C198.675 310.634 198.796 309.906 198.796 309.047C198.796 308.198 198.675 307.479 198.432 306.891C198.19 306.294 197.854 305.841 197.424 305.533C197.004 305.225 196.519 305.071 195.968 305.071C195.427 305.071 194.942 305.225 194.512 305.533C194.092 305.841 193.761 306.289 193.518 306.877C193.276 307.465 193.154 308.188 193.154 309.047C193.154 309.906 193.276 310.634 193.518 311.231C193.761 311.819 194.092 312.272 194.512 312.589C194.942 312.897 195.427 313.051 195.968 313.051ZM205.198 314.017C204.488 314.017 203.84 313.816 203.252 313.415C202.664 313.004 202.192 312.426 201.838 311.679C201.492 310.932 201.32 310.055 201.32 309.047C201.32 308.03 201.492 307.157 201.838 306.429C202.183 305.692 202.645 305.122 203.224 304.721C203.812 304.31 204.46 304.105 205.17 304.105C205.888 304.105 206.537 304.306 207.116 304.707C207.704 305.108 208.17 305.682 208.516 306.429C208.861 307.166 209.034 308.044 209.034 309.061C209.034 310.069 208.861 310.946 208.516 311.693C208.17 312.44 207.708 313.014 207.13 313.415C206.551 313.816 205.907 314.017 205.198 314.017ZM205.17 313.051C205.72 313.051 206.206 312.897 206.626 312.589C207.055 312.272 207.391 311.819 207.634 311.231C207.876 310.634 207.998 309.906 207.998 309.047C207.998 308.198 207.876 307.479 207.634 306.891C207.391 306.294 207.055 305.841 206.626 305.533C206.206 305.225 205.72 305.071 205.17 305.071C204.628 305.071 204.143 305.225 203.714 305.533C203.294 305.841 202.962 306.289 202.72 306.877C202.477 307.465 202.356 308.188 202.356 309.047C202.356 309.906 202.477 310.634 202.72 311.231C202.962 311.819 203.294 312.272 203.714 312.589C204.143 312.897 204.628 313.051 205.17 313.051Z" fill="black"/>
<path opacity="0.5" d="M62.3993 314.017C61.69 314.017 61.0413 313.816 60.4533 313.415C59.8653 313.004 59.394 312.426 59.0393 311.679C58.694 310.932 58.5213 310.055 58.5213 309.047C58.5213 308.03 58.694 307.157 59.0393 306.429C59.3846 305.692 59.8466 305.122 60.4253 304.721C61.0133 304.31 61.662 304.105 62.3713 304.105C63.09 304.105 63.7386 304.306 64.3173 304.707C64.9053 305.108 65.372 305.682 65.7173 306.429C66.0626 307.166 66.2353 308.044 66.2353 309.061C66.2353 310.069 66.0626 310.946 65.7173 311.693C65.372 312.44 64.91 313.014 64.3313 313.415C63.7526 313.816 63.1086 314.017 62.3993 314.017ZM62.3713 313.051C62.922 313.051 63.4073 312.897 63.8273 312.589C64.2566 312.272 64.5926 311.819 64.8353 311.231C65.078 310.634 65.1993 309.906 65.1993 309.047C65.1993 308.198 65.078 307.479 64.8353 306.891C64.5926 306.294 64.2566 305.841 63.8273 305.533C63.4073 305.225 62.922 305.071 62.3713 305.071C61.83 305.071 61.3446 305.225 60.9153 305.533C60.4953 305.841 60.164 306.289 59.9213 306.877C59.6786 307.465 59.5573 308.188 59.5573 309.047C59.5573 309.906 59.6786 310.634 59.9213 311.231C60.164 311.819 60.4953 312.272 60.9153 312.589C61.3446 312.897 61.83 313.051 62.3713 313.051ZM71.6005 314.017C70.8911 314.017 70.2425 313.816 69.6545 313.415C69.0665 313.004 68.5951 312.426 68.2405 311.679C67.8951 310.932 67.7225 310.055 67.7225 309.047C67.7225 308.03 67.8951 307.157 68.2405 306.429C68.5858 305.692 69.0478 305.122 69.6265 304.721C70.2145 304.31 70.8631 304.105 71.5725 304.105C72.2911 304.105 72.9398 304.306 73.5185 304.707C74.1065 305.108 74.5731 305.682 74.9185 306.429C75.2638 307.166 75.4365 308.044 75.4365 309.061C75.4365 310.069 75.2638 310.946 74.9185 311.693C74.5731 312.44 74.1111 313.014 73.5325 313.415C72.9538 313.816 72.3098 314.017 71.6005 314.017ZM71.5725 313.051C72.1231 313.051 72.6085 312.897 73.0285 312.589C73.4578 312.272 73.7938 311.819 74.0365 311.231C74.2791 310.634 74.4005 309.906 74.4005 309.047C74.4005 308.198 74.2791 307.479 74.0365 306.891C73.7938 306.294 73.4578 305.841 73.0285 305.533C72.6085 305.225 72.1231 305.071 71.5725 305.071C71.0311 305.071 70.5458 305.225 70.1165 305.533C69.6965 305.841 69.3651 306.289 69.1225 306.877C68.8798 307.465 68.7585 308.188 68.7585 309.047C68.7585 309.906 68.8798 310.634 69.1225 311.231C69.3651 311.819 69.6965 312.272 70.1165 312.589C70.5458 312.897 71.0311 313.051 71.5725 313.051ZM78.0716 314.017C77.8383 314.017 77.647 313.938 77.4976 313.779C77.3576 313.62 77.2876 313.434 77.2876 313.219C77.2876 312.986 77.3576 312.794 77.4976 312.645C77.647 312.486 77.8383 312.407 78.0716 312.407C78.2956 312.407 78.4823 312.486 78.6316 312.645C78.7903 312.794 78.8696 312.986 78.8696 313.219C78.8696 313.434 78.7903 313.62 78.6316 313.779C78.4823 313.938 78.2956 314.017 78.0716 314.017ZM78.0716 309.607C77.8383 309.607 77.647 309.528 77.4976 309.369C77.3576 309.21 77.2876 309.024 77.2876 308.809C77.2876 308.576 77.3576 308.384 77.4976 308.235C77.647 308.086 77.8383 308.011 78.0716 308.011C78.2956 308.011 78.4823 308.086 78.6316 308.235C78.7903 308.384 78.8696 308.576 78.8696 308.809C78.8696 309.024 78.7903 309.21 78.6316 309.369C78.4823 309.528 78.2956 309.607 78.0716 309.607ZM84.5751 314.017C83.8657 314.017 83.2171 313.816 82.6291 313.415C82.0411 313.004 81.5697 312.426 81.2151 311.679C80.8697 310.932 80.6971 310.055 80.6971 309.047C80.6971 308.03 80.8697 307.157 81.2151 306.429C81.5604 305.692 82.0224 305.122 82.6011 304.721C83.1891 304.31 83.8377 304.105 84.5471 304.105C85.2657 304.105 85.9144 304.306 86.4931 304.707C87.0811 305.108 87.5477 305.682 87.8931 306.429C88.2384 307.166 88.4111 308.044 88.4111 309.061C88.4111 310.069 88.2384 310.946 87.8931 311.693C87.5477 312.44 87.0857 313.014 86.5071 313.415C85.9284 313.816 85.2844 314.017 84.5751 314.017ZM84.5471 313.051C85.0977 313.051 85.5831 312.897 86.0031 312.589C86.4324 312.272 86.7684 311.819 87.0111 311.231C87.2537 310.634 87.3751 309.906 87.3751 309.047C87.3751 308.198 87.2537 307.479 87.0111 306.891C86.7684 306.294 86.4324 305.841 86.0031 305.533C85.5831 305.225 85.0977 305.071 84.5471 305.071C84.0057 305.071 83.5204 305.225 83.0911 305.533C82.6711 305.841 82.3397 306.289 82.0971 306.877C81.8544 307.465 81.7331 308.188 81.7331 309.047C81.7331 309.906 81.8544 310.634 82.0971 311.231C82.3397 311.819 82.6711 312.272 83.0911 312.589C83.5204 312.897 84.0057 313.051 84.5471 313.051ZM93.7763 314.017C93.0669 314.017 92.4183 313.816 91.8303 313.415C91.2423 313.004 90.7709 312.426 90.4163 311.679C90.0709 310.932 89.8983 310.055 89.8983 309.047C89.8983 308.03 90.0709 307.157 90.4163 306.429C90.7616 305.692 91.2236 305.122 91.8023 304.721C92.3903 304.31 93.0389 304.105 93.7483 304.105C94.4669 304.105 95.1156 304.306 95.6943 304.707C96.2823 305.108 96.7489 305.682 97.0943 306.429C97.4396 307.166 97.6123 308.044 97.6123 309.061C97.6123 310.069 97.4396 310.946 97.0943 311.693C96.7489 312.44 96.2869 313.014 95.7083 313.415C95.1296 313.816 94.4856 314.017 93.7763 314.017ZM93.7483 313.051C94.2989 313.051 94.7843 312.897 95.2043 312.589C95.6336 312.272 95.9696 311.819 96.2123 311.231C96.4549 310.634 96.5763 309.906 96.5763 309.047C96.5763 308.198 96.4549 307.479 96.2123 306.891C95.9696 306.294 95.6336 305.841 95.2043 305.533C94.7843 305.225 94.2989 305.071 93.7483 305.071C93.2069 305.071 92.7216 305.225 92.2923 305.533C91.8723 305.841 91.5409 306.289 91.2983 306.877C91.0556 307.465 90.9343 308.188 90.9343 309.047C90.9343 309.906 91.0556 310.634 91.2983 311.231C91.5409 311.819 91.8723 312.272 92.2923 312.589C92.7216 312.897 93.2069 313.051 93.7483 313.051Z" fill="black"/>
<path d="M49.0068 206.253C48.2975 206.253 47.6488 206.053 47.0608 205.651C46.4728 205.241 46.0015 204.662 45.6468 203.915C45.3015 203.169 45.1288 202.291 45.1288 201.283C45.1288 200.266 45.3015 199.393 45.6468 198.665C45.9922 197.928 46.4542 197.359 47.0328 196.957C47.6208 196.547 48.2695 196.341 48.9788 196.341C49.6975 196.341 50.3462 196.542 50.9248 196.943C51.5128 197.345 51.9795 197.919 52.3248 198.665C52.6702 199.403 52.8428 200.28 52.8428 201.297C52.8428 202.305 52.6702 203.183 52.3248 203.929C51.9795 204.676 51.5175 205.25 50.9388 205.651C50.3602 206.053 49.7162 206.253 49.0068 206.253ZM48.9788 205.287C49.5295 205.287 50.0148 205.133 50.4348 204.825C50.8642 204.508 51.2002 204.055 51.4428 203.467C51.6855 202.87 51.8068 202.142 51.8068 201.283C51.8068 200.434 51.6855 199.715 51.4428 199.127C51.2002 198.53 50.8642 198.077 50.4348 197.769C50.0148 197.461 49.5295 197.307 48.9788 197.307C48.4375 197.307 47.9522 197.461 47.5228 197.769C47.1028 198.077 46.7715 198.525 46.5288 199.113C46.2862 199.701 46.1648 200.425 46.1648 201.283C46.1648 202.142 46.2862 202.87 46.5288 203.467C46.7715 204.055 47.1028 204.508 47.5228 204.825C47.9522 205.133 48.4375 205.287 48.9788 205.287Z" fill="#9747FF"/>
<path d="M25.888 115.58V113.04H35.188V115.58H25.888ZM29.248 109.42H31.848V119.16H29.248V109.42ZM44.5775 121.22C43.5508 121.22 42.6042 121.04 41.7375 120.68C40.8842 120.307 40.1308 119.787 39.4775 119.12C38.8375 118.453 38.3375 117.68 37.9775 116.8C37.6308 115.907 37.4575 114.947 37.4575 113.92C37.4575 112.893 37.6308 111.94 37.9775 111.06C38.3375 110.167 38.8375 109.393 39.4775 108.74C40.1175 108.087 40.8642 107.58 41.7175 107.22C42.5842 106.847 43.5308 106.66 44.5575 106.66C45.6375 106.66 46.5975 106.84 47.4375 107.2C48.2908 107.56 49.0442 108.053 49.6975 108.68L47.5975 110.8C47.2242 110.387 46.7842 110.067 46.2775 109.84C45.7842 109.6 45.1975 109.48 44.5175 109.48C43.7442 109.48 43.0642 109.667 42.4775 110.04C41.9042 110.4 41.4575 110.913 41.1375 111.58C40.8175 112.247 40.6575 113.027 40.6575 113.92C40.6575 114.813 40.8175 115.6 41.1375 116.28C41.4708 116.947 41.9308 117.467 42.5175 117.84C43.1042 118.2 43.7908 118.38 44.5775 118.38C45.2442 118.38 45.8308 118.267 46.3375 118.04C46.8442 117.813 47.2908 117.493 47.6775 117.08L49.7975 119.2C49.1175 119.827 48.3508 120.32 47.4975 120.68C46.6575 121.04 45.6842 121.22 44.5775 121.22ZM36.1175 113.34V111.44H45.7375L45.2575 113.34H36.1175ZM36.1175 116.54V114.64H45.0175L44.5375 116.54H36.1175Z" fill="#9747FF"/>
<path d="M26.988 290.926V288.246H34.068V290.926H26.988ZM43.5462 294.906C42.5196 294.906 41.5729 294.726 40.7062 294.366C39.8529 293.992 39.0996 293.472 38.4462 292.806C37.8062 292.139 37.3062 291.366 36.9462 290.486C36.5996 289.592 36.4262 288.632 36.4262 287.606C36.4262 286.579 36.5996 285.626 36.9462 284.746C37.3062 283.852 37.8062 283.079 38.4462 282.426C39.0862 281.772 39.8329 281.266 40.6862 280.906C41.5529 280.532 42.4996 280.346 43.5262 280.346C44.6062 280.346 45.5662 280.526 46.4062 280.886C47.2596 281.246 48.0129 281.739 48.6662 282.366L46.5662 284.486C46.1929 284.072 45.7529 283.752 45.2462 283.526C44.7529 283.286 44.1662 283.166 43.4862 283.166C42.7129 283.166 42.0329 283.352 41.4462 283.726C40.8729 284.086 40.4262 284.599 40.1062 285.266C39.7862 285.932 39.6262 286.712 39.6262 287.606C39.6262 288.499 39.7862 289.286 40.1062 289.966C40.4396 290.632 40.8996 291.152 41.4862 291.526C42.0729 291.886 42.7596 292.066 43.5462 292.066C44.2129 292.066 44.7996 291.952 45.3062 291.726C45.8129 291.499 46.2596 291.179 46.6462 290.766L48.7662 292.886C48.0862 293.512 47.3196 294.006 46.4662 294.366C45.6262 294.726 44.6529 294.906 43.5462 294.906ZM35.0862 287.026V285.126H44.7062L44.2262 287.026H35.0862ZM35.0862 290.226V288.326H43.9862L43.5062 290.226H35.0862Z" fill="#9747FF"/>
<path opacity="0.5" d="M296.069 313.245L299.639 309.521C300.05 309.082 300.367 308.714 300.591 308.415C300.824 308.116 300.983 307.846 301.067 307.603C301.16 307.351 301.207 307.09 301.207 306.819C301.207 306.268 301.034 305.839 300.689 305.531C300.344 305.214 299.886 305.055 299.317 305.055C298.794 305.055 298.337 305.181 297.945 305.433C297.553 305.676 297.203 306.044 296.895 306.539L296.181 305.909C296.554 305.321 297.002 304.873 297.525 304.565C298.048 304.257 298.654 304.103 299.345 304.103C299.924 304.103 300.428 304.215 300.857 304.439C301.296 304.663 301.632 304.98 301.865 305.391C302.108 305.802 302.229 306.282 302.229 306.833C302.229 307.216 302.178 307.566 302.075 307.883C301.972 308.191 301.79 308.518 301.529 308.863C301.277 309.199 300.918 309.61 300.451 310.095L297.427 313.203L296.069 313.245ZM296.069 313.875V313.245L296.909 312.951H302.467V313.875H296.069ZM306.57 314.015C305.954 314.015 305.389 313.894 304.876 313.651C304.372 313.408 303.947 313.058 303.602 312.601L304.288 311.915C304.521 312.27 304.838 312.55 305.24 312.755C305.641 312.951 306.08 313.049 306.556 313.049C307.022 313.049 307.424 312.96 307.76 312.783C308.105 312.606 308.371 312.358 308.558 312.041C308.754 311.714 308.852 311.336 308.852 310.907C308.852 310.468 308.754 310.09 308.558 309.773C308.371 309.456 308.1 309.208 307.746 309.031C307.4 308.854 306.985 308.765 306.5 308.765C306.341 308.765 306.178 308.774 306.01 308.793C305.851 308.812 305.692 308.844 305.534 308.891L305.926 308.317C306.084 308.233 306.257 308.168 306.444 308.121C306.63 308.074 306.836 308.051 307.06 308.051C307.592 308.051 308.072 308.177 308.502 308.429C308.931 308.672 309.267 309.012 309.51 309.451C309.762 309.88 309.888 310.38 309.888 310.949C309.888 311.556 309.748 312.088 309.468 312.545C309.188 313.002 308.796 313.362 308.292 313.623C307.797 313.884 307.223 314.015 306.57 314.015ZM305.534 308.891V308.261L308.586 304.831L309.776 304.873L306.668 308.345L305.534 308.891ZM304.022 305.153V304.243H309.776V304.873L308.894 305.153H304.022ZM312.48 314.015C312.247 314.015 312.055 313.936 311.906 313.777C311.766 313.618 311.696 313.432 311.696 313.217C311.696 312.984 311.766 312.792 311.906 312.643C312.055 312.484 312.247 312.405 312.48 312.405C312.704 312.405 312.891 312.484 313.04 312.643C313.199 312.792 313.278 312.984 313.278 313.217C313.278 313.432 313.199 313.618 313.04 313.777C312.891 313.936 312.704 314.015 312.48 314.015ZM312.48 309.605C312.247 309.605 312.055 309.526 311.906 309.367C311.766 309.208 311.696 309.022 311.696 308.807C311.696 308.574 311.766 308.382 311.906 308.233C312.055 308.084 312.247 308.009 312.48 308.009C312.704 308.009 312.891 308.084 313.04 308.233C313.199 308.382 313.278 308.574 313.278 308.807C313.278 309.022 313.199 309.208 313.04 309.367C312.891 309.526 312.704 309.605 312.48 309.605ZM317.835 314.015C317.201 314.015 316.631 313.894 316.127 313.651C315.623 313.408 315.199 313.058 314.853 312.601L315.539 311.915C315.773 312.27 316.085 312.55 316.477 312.755C316.879 312.951 317.327 313.049 317.821 313.049C318.288 313.049 318.699 312.96 319.053 312.783C319.408 312.596 319.683 312.34 319.879 312.013C320.085 311.677 320.187 311.285 320.187 310.837C320.187 310.38 320.089 309.988 319.893 309.661C319.697 309.325 319.431 309.068 319.095 308.891C318.759 308.714 318.381 308.625 317.961 308.625C317.56 308.625 317.191 308.681 316.855 308.793C316.529 308.896 316.23 309.064 315.959 309.297L315.931 308.625C316.099 308.438 316.291 308.284 316.505 308.163C316.72 308.042 316.958 307.948 317.219 307.883C317.49 307.818 317.789 307.785 318.115 307.785C318.759 307.785 319.315 307.925 319.781 308.205C320.248 308.476 320.603 308.844 320.845 309.311C321.097 309.778 321.223 310.305 321.223 310.893C321.223 311.5 321.079 312.036 320.789 312.503C320.5 312.97 320.099 313.338 319.585 313.609C319.081 313.88 318.498 314.015 317.835 314.015ZM315.959 309.297L315.413 308.737L315.833 304.243H316.771L316.309 308.835L315.959 309.297ZM316.085 305.153L315.833 304.243H320.789V305.153H316.085ZM324.08 313.875L327.09 309.899L327.44 309.759C327.31 309.927 327.16 310.072 326.992 310.193C326.824 310.314 326.628 310.408 326.404 310.473C326.18 310.538 325.924 310.571 325.634 310.571C325.065 310.571 324.547 310.431 324.08 310.151C323.614 309.871 323.236 309.493 322.946 309.017C322.666 308.541 322.526 308.004 322.526 307.407C322.526 306.791 322.676 306.236 322.974 305.741C323.282 305.237 323.684 304.84 324.178 304.551C324.682 304.252 325.242 304.103 325.858 304.103C326.484 304.103 327.044 304.248 327.538 304.537C328.042 304.826 328.439 305.218 328.728 305.713C329.027 306.208 329.176 306.758 329.176 307.365C329.176 308.186 328.892 308.989 328.322 309.773L325.284 313.875H324.08ZM325.858 309.745C326.288 309.745 326.675 309.642 327.02 309.437C327.366 309.232 327.636 308.952 327.832 308.597C328.038 308.233 328.14 307.836 328.14 307.407C328.14 306.959 328.038 306.558 327.832 306.203C327.636 305.848 327.366 305.568 327.02 305.363C326.675 305.148 326.288 305.041 325.858 305.041C325.429 305.041 325.042 305.148 324.696 305.363C324.351 305.568 324.076 305.853 323.87 306.217C323.665 306.572 323.562 306.968 323.562 307.407C323.562 307.836 323.665 308.228 323.87 308.583C324.076 308.938 324.351 309.222 324.696 309.437C325.051 309.642 325.438 309.745 325.858 309.745Z" fill="black"/>
<path fill-rule="evenodd" clip-rule="evenodd" d="M353.271 269.854H346.848V273.097H341.027V299.875H359.092V273.097H353.271V269.854Z" fill="#24E720"/>
<rect x="343.189" y="275.9" width="13.74" height="18.0968" fill="white"/>
<path d="M349.706 289.484C349.901 289.679 350.218 289.679 350.413 289.484L353.595 286.302C353.79 286.107 353.79 285.79 353.595 285.595C353.4 285.4 353.083 285.4 352.888 285.595L350.059 288.423L347.231 285.595C347.036 285.4 346.719 285.4 346.524 285.595C346.329 285.79 346.329 286.107 346.524 286.302L349.706 289.484ZM349.559 280.598L349.559 289.13L350.559 289.13L350.559 280.598L349.559 280.598Z" fill="#24E720"/>
<path fill-rule="evenodd" clip-rule="evenodd" d="M353.271 102.482H346.848V105.725H341.027V132.503H359.092V105.725H353.271V102.482Z" fill="#24E720"/>
<path d="M350.413 117.139C350.218 116.944 349.901 116.944 349.706 117.139L346.524 120.321C346.329 120.516 346.329 120.833 346.524 121.028C346.719 121.223 347.036 121.223 347.231 121.028L350.059 118.2L352.888 121.028C353.083 121.223 353.4 121.223 353.595 121.028C353.79 120.833 353.79 120.516 353.595 120.321L350.413 117.139ZM350.559 126.117L350.559 117.493L349.559 117.493L349.559 126.117L350.559 126.117Z" fill="white"/>
<rect x="343.189" y="108.528" width="13.74" height="3.94531" fill="white"/>
<path d="M191.869 342.708V465.901" stroke="url(#paint0_linear_246_9)" stroke-width="5"/>
<path d="M92.9996 22.2727L103.136 12.1364L92.9996 2" stroke="#24E720" stroke-width="5"/>
<path d="M181.733 420.815L191.869 430.952L202.005 420.815" stroke="#24E720" stroke-width="5"/>
<path fill-rule="evenodd" clip-rule="evenodd" d="M241.488 465.901H138.562V665.748H241.488V465.901ZM235.152 472.668H144.897V647.207H235.152V472.668Z" fill="#D9D9D9"/>
<path d="M156.307 514.662C156.567 511.046 169.355 500.831 169.391 508.175C169.401 510.225 170.106 512.538 170.204 514.402C170.325 516.702 178.267 508.221 178.88 507.807C180.754 506.541 187.022 500.772 187.869 505.616C188.224 507.647 189.068 509.57 189.293 511.642C189.527 513.81 191.159 510.431 191.854 509.653C193.985 507.268 196.944 505.16 199.966 504.07C202.378 503.199 204.262 510.479 205.062 512.147C206.497 515.138 209.127 512.594 211.149 511.324" stroke="#D9D9D9" stroke-width="3" stroke-linecap="round"/>
<path d="M155.381 486.834C155.475 485.524 160.107 481.824 160.12 484.484C160.123 485.227 160.379 486.065 160.414 486.74C160.458 487.573 163.335 484.501 163.557 484.351C164.235 483.893 166.506 481.803 166.812 483.558C166.941 484.293 167.247 484.99 167.328 485.74C167.413 486.525 168.004 485.302 168.256 485.02C169.027 484.156 170.099 483.392 171.194 482.997C172.068 482.682 172.75 485.319 173.04 485.923C173.559 487.007 174.512 486.085 175.244 485.625" stroke="#D9D9D9" stroke-width="3" stroke-linecap="round"/>
<rect x="142.053" y="553.752" width="14.2539" height="49.2481" fill="white"/>
<mask id="mask0_246_9" style="mask-type:alpha" maskUnits="userSpaceOnUse" x="138" y="465" width="104" height="201">
<path fill-rule="evenodd" clip-rule="evenodd" d="M241.488 465.901H138.562V665.748H241.488V465.901ZM235.152 472.668H144.897V647.207H235.152V472.668Z" fill="#D9D9D9"/>
</mask>
<g mask="url(#mask0_246_9)">
<rect x="138.606" y="551.016" width="15.1394" height="53.0319" fill="#D9D9D9"/>
</g>
<path d="M181.733 545.559C181.833 543.955 186.755 539.425 186.769 542.682C186.773 543.591 187.044 544.617 187.082 545.444C187.128 546.464 190.185 542.702 190.421 542.519C191.143 541.957 193.556 539.398 193.881 541.547C194.018 542.448 194.343 543.3 194.429 544.219C194.52 545.181 195.148 543.682 195.415 543.337C196.235 542.279 197.375 541.345 198.538 540.861C199.466 540.475 200.191 543.704 200.499 544.443C201.052 545.77 202.064 544.642 202.842 544.078C203.731 543.435 205.312 542.7 206.004 541.838C207.55 539.914 207.499 546.147 209.006 545.181C210.914 543.956 212.644 542.298 214.33 540.711C215.446 539.661 215.351 544.923 215.49 545.688C216.196 549.576 220.862 542.16 222.526 541.671" stroke="#D9D9D9" stroke-width="3" stroke-linecap="round"/>
<path d="M181.733 569.459C181.833 567.855 186.755 563.325 186.769 566.582C186.773 567.491 187.044 568.517 187.082 569.344C187.128 570.364 190.185 566.602 190.421 566.419C191.143 565.857 193.556 563.298 193.881 565.447C194.018 566.348 194.343 567.2 194.429 568.119C194.52 569.081 195.148 567.582 195.415 567.238C196.235 566.179 197.375 565.245 198.538 564.761C199.466 564.375 200.191 567.604 200.499 568.343C201.052 569.67 202.064 568.542 202.842 567.978C203.731 567.335 205.312 566.6 206.004 565.738C207.55 563.814 207.499 570.047 209.006 569.081C210.914 567.856 212.644 566.198 214.33 564.611C215.446 563.561 215.351 568.823 215.49 569.588C216.196 573.476 220.862 566.06 222.526 565.571" stroke="#D9D9D9" stroke-width="3" stroke-linecap="round"/>
<path d="M181.733 593.359C181.833 591.755 186.755 587.225 186.769 590.482C186.773 591.391 187.044 592.417 187.082 593.244C187.128 594.264 190.185 590.503 190.421 590.319C191.143 589.757 193.556 587.199 193.881 589.347C194.018 590.248 194.343 591.101 194.429 592.02C194.52 592.981 195.148 591.483 195.415 591.138C196.235 590.08 197.375 589.145 198.538 588.661C199.466 588.275 200.191 591.504 200.499 592.244C201.052 593.57 202.064 592.442 202.842 591.879C203.731 591.235 205.312 590.5 206.004 589.639C207.55 587.714 207.499 593.947 209.006 592.981C210.914 591.757 212.644 590.098 214.33 588.511C215.446 587.461 215.351 592.724 215.49 593.488C216.196 597.376 220.862 589.96 222.526 589.471" stroke="#D9D9D9" stroke-width="3" stroke-linecap="round"/>
<path d="M181.733 620.675C181.833 619.071 186.755 614.541 186.769 617.798C186.773 618.707 187.044 619.733 187.082 620.56C187.128 621.58 190.185 617.818 190.421 617.635C191.143 617.073 193.556 614.514 193.881 616.663C194.018 617.564 194.343 618.416 194.429 619.335C194.52 620.297 195.148 618.798 195.415 618.454C196.235 617.396 197.375 616.461 198.538 615.977C199.466 615.591 200.191 618.82 200.499 619.56C201.052 620.886 202.064 619.758 202.842 619.194C203.731 618.551 205.312 617.816 206.004 616.954C207.55 615.03 207.499 621.263 209.006 620.297C210.914 619.072 212.644 617.414 214.33 615.827C215.446 614.777 215.351 620.04 215.49 620.804C216.196 624.692 220.862 617.276 222.526 616.787" stroke="#D9D9D9" stroke-width="3" stroke-linecap="round"/>
<path d="M156.393 544.25C156.341 544.664 156.162 542.933 156.552 542.282C157.518 540.673 159.135 539.685 160.43 538.39C161.947 536.873 161.88 539.15 161.602 540.141C160.844 542.833 158.824 544.658 157.695 547.115C157.442 547.665 157.435 548.215 157.435 548.807C157.435 549.462 158.039 548.027 158.216 547.78C159.857 545.501 161.716 543.407 163.396 541.168C163.624 540.864 166.029 537.838 166.029 538.709C166.029 541.165 164.931 543.604 163.699 545.682C162.88 547.066 162.09 548.528 161.399 549.979C160.754 551.334 161.25 551.97 162.18 550.442C164.333 546.906 166.561 541.72 170.311 539.577C172.007 538.608 169.182 543.432 169.009 543.7C167.905 545.41 167.105 547.286 166.029 548.995C165.791 549.373 164.976 551.56 165.305 551.021C166.578 548.939 169.113 547.456 170.196 545.292" stroke="#24E720" stroke-width="5" stroke-linecap="round"/>
<path d="M156.393 569.511C156.341 569.925 156.162 568.194 156.552 567.543C157.518 565.934 159.135 564.946 160.43 563.652C161.947 562.135 161.88 564.411 161.602 565.402C160.844 568.094 158.824 569.919 157.695 572.376C157.442 572.926 157.435 573.476 157.435 574.068C157.435 574.723 158.039 573.288 158.216 573.041C159.857 570.763 161.716 568.668 163.396 566.429C163.624 566.125 166.029 563.099 166.029 563.97C166.029 566.426 164.931 568.865 163.699 570.943C162.88 572.327 162.09 573.789 161.399 575.24C160.754 576.595 161.25 577.231 162.18 575.703C164.333 572.167 166.561 566.981 170.311 564.838C172.007 563.869 169.182 568.693 169.009 568.961C167.905 570.671 167.105 572.547 166.029 574.257C165.791 574.634 164.976 576.821 165.305 576.282C166.578 574.2 169.113 572.717 170.196 570.553" stroke="#24E720" stroke-width="5" stroke-linecap="round"/>
<path d="M155.401 592.05C155.349 592.465 155.17 590.733 155.56 590.082C156.526 588.473 158.143 587.485 159.438 586.191C160.955 584.674 160.888 586.95 160.61 587.941C159.852 590.633 157.832 592.458 156.703 594.915C156.45 595.465 156.443 596.015 156.443 596.608C156.443 597.262 157.047 595.827 157.224 595.58C158.865 593.302 160.724 591.207 162.404 588.968C162.632 588.665 165.037 585.638 165.037 586.509C165.037 588.965 163.939 591.404 162.708 593.482C161.888 594.866 161.098 596.328 160.407 597.779C159.762 599.134 160.258 599.77 161.188 598.242C163.341 594.706 165.569 589.52 169.319 587.377C171.015 586.408 168.19 591.232 168.017 591.5C166.913 593.21 166.113 595.086 165.037 596.796C164.799 597.173 163.984 599.36 164.313 598.821C165.586 596.739 168.121 595.256 169.204 593.092" stroke="#24E720" stroke-width="5" stroke-linecap="round"/>
<path d="M155.401 619.366C155.349 619.78 155.17 618.049 155.56 617.398C156.526 615.789 158.143 614.801 159.438 613.506C160.955 611.99 160.888 614.266 160.61 615.257C159.852 617.949 157.832 619.774 156.703 622.231C156.45 622.781 156.443 623.331 156.443 623.923C156.443 624.578 157.047 623.143 157.224 622.896C158.865 620.617 160.724 618.523 162.404 616.284C162.632 615.98 165.037 612.954 165.037 613.825C165.037 616.281 163.939 618.72 162.708 620.798C161.888 622.182 161.098 623.644 160.407 625.095C159.762 626.45 160.258 627.086 161.188 625.558C163.341 622.022 165.569 616.836 169.319 614.693C171.015 613.724 168.19 618.548 168.017 618.816C166.913 620.526 166.113 622.402 165.037 624.112C164.799 624.489 163.984 626.676 164.313 626.137C165.586 624.055 168.121 622.572 169.204 620.408" stroke="#24E720" stroke-width="5" stroke-linecap="round"/>
<path d="M152.663 539.115H174.495V550.098H152.663V539.115Z" fill="#E8E8E8"/>
<path d="M163.412 547.45C163.001 547.45 162.623 547.378 162.276 547.234C161.934 547.085 161.633 546.877 161.371 546.61C161.115 546.343 160.915 546.034 160.771 545.681C160.632 545.324 160.563 544.94 160.563 544.529C160.563 544.118 160.632 543.737 160.771 543.384C160.915 543.027 161.115 542.717 161.371 542.456C161.627 542.194 161.926 541.992 162.268 541.848C162.615 541.698 162.993 541.624 163.404 541.624C163.836 541.624 164.221 541.696 164.557 541.84C164.898 541.984 165.2 542.181 165.461 542.432L164.621 543.28C164.471 543.115 164.295 542.987 164.093 542.896C163.895 542.8 163.66 542.752 163.388 542.752C163.079 542.752 162.807 542.827 162.572 542.976C162.342 543.12 162.164 543.326 162.036 543.592C161.908 543.859 161.843 544.171 161.843 544.529C161.843 544.886 161.908 545.201 162.036 545.473C162.169 545.74 162.353 545.948 162.588 546.098C162.823 546.242 163.097 546.314 163.412 546.314C163.679 546.314 163.914 546.268 164.117 546.178C164.319 546.087 164.498 545.959 164.653 545.794L165.501 546.642C165.229 546.893 164.922 547.09 164.581 547.234C164.245 547.378 163.855 547.45 163.412 547.45ZM160.027 544.297V543.536H163.876L163.684 544.297H160.027ZM160.027 545.577V544.817H163.588L163.396 545.577H160.027Z" fill="#8E8E8E"/>
<path fill-rule="evenodd" clip-rule="evenodd" d="M164.593 581.038H160.246V583.233H156.307V601.354H168.532V583.233H164.593V581.038Z" fill="#E8E8E8"/>
<path fill-rule="evenodd" clip-rule="evenodd" d="M162.688 596.21C162.54 596.358 162.299 596.358 162.151 596.21L159.734 593.793C159.586 593.645 159.586 593.404 159.734 593.256C159.882 593.108 160.123 593.108 160.271 593.256L162.04 595.025L162.04 588.45L162.799 588.45L162.799 595.025L164.568 593.256C164.716 593.108 164.957 593.108 165.105 593.256C165.253 593.404 165.253 593.645 165.105 593.793L162.688 596.21Z" fill="#8E8E8E"/>
<path fill-rule="evenodd" clip-rule="evenodd" d="M157.698 575.856C157.703 575.856 157.707 575.856 157.711 575.856C157.715 575.856 157.72 575.856 157.724 575.856H171.546V575.854C171.597 575.855 171.648 575.856 171.699 575.856C174.532 575.856 176.828 573.813 176.828 571.292C176.828 568.771 174.532 566.728 171.699 566.728H171.699V566.728C171.699 563.651 168.896 561.157 165.439 561.157C163.456 561.157 161.689 561.978 160.542 563.257C160.188 563.08 159.779 562.978 159.343 562.978C158.145 562.978 157.148 563.745 156.939 564.757C153.846 565.096 151.451 567.442 151.451 570.286C151.451 573.32 154.177 575.787 157.569 575.854V575.856H157.698Z" fill="#E8E8E8"/>
<path d="M159.846 572.151C159.488 572.151 159.156 572.09 158.848 571.968C158.545 571.841 158.278 571.665 158.048 571.438C157.821 571.212 157.645 570.95 157.518 570.651C157.392 570.348 157.328 570.022 157.328 569.674C157.328 569.326 157.392 569.002 157.518 568.704C157.645 568.401 157.821 568.138 158.048 567.917C158.274 567.695 158.538 567.523 158.842 567.401C159.149 567.274 159.482 567.211 159.839 567.211C160.219 567.211 160.556 567.272 160.85 567.394C161.149 567.516 161.409 567.684 161.63 567.896L160.918 568.616C160.791 568.48 160.637 568.374 160.456 568.297C160.28 568.22 160.074 568.181 159.839 568.181C159.631 568.181 159.439 568.218 159.262 568.29C159.09 568.358 158.941 568.457 158.814 568.588C158.692 568.72 158.595 568.878 158.523 569.063C158.455 569.249 158.421 569.452 158.421 569.674C158.421 569.9 158.455 570.106 158.523 570.292C158.595 570.477 158.692 570.635 158.814 570.767C158.941 570.898 159.09 571 159.262 571.072C159.439 571.144 159.631 571.18 159.839 571.18C160.083 571.18 160.296 571.142 160.477 571.065C160.658 570.988 160.814 570.882 160.945 570.746L161.664 571.465C161.434 571.678 161.169 571.845 160.87 571.968C160.576 572.09 160.235 572.151 159.846 572.151Z" fill="#8E8E8E"/>
<path d="M164.345 572.158C163.984 572.158 163.649 572.094 163.341 571.968C163.038 571.841 162.771 571.665 162.54 571.438C162.31 571.212 162.131 570.95 162.004 570.651C161.878 570.348 161.814 570.022 161.814 569.674C161.814 569.321 161.878 568.996 162.004 568.697C162.131 568.398 162.308 568.138 162.534 567.917C162.76 567.691 163.025 567.516 163.328 567.394C163.635 567.268 163.97 567.204 164.332 567.204C164.689 567.204 165.019 567.268 165.323 567.394C165.63 567.516 165.897 567.691 166.123 567.917C166.354 568.138 166.533 568.401 166.659 568.704C166.786 569.002 166.849 569.328 166.849 569.681C166.849 570.029 166.786 570.355 166.659 570.658C166.533 570.957 166.356 571.219 166.13 571.445C165.904 571.667 165.637 571.841 165.329 571.968C165.026 572.094 164.698 572.158 164.345 572.158ZM164.332 571.187C164.617 571.187 164.866 571.124 165.078 570.997C165.295 570.871 165.463 570.694 165.58 570.468C165.698 570.237 165.757 569.973 165.757 569.674C165.757 569.448 165.723 569.244 165.655 569.063C165.587 568.878 165.49 568.72 165.363 568.588C165.237 568.453 165.085 568.351 164.909 568.283C164.737 568.211 164.544 568.175 164.332 568.175C164.047 568.175 163.796 568.238 163.579 568.365C163.366 568.487 163.201 568.661 163.083 568.887C162.966 569.109 162.907 569.371 162.907 569.674C162.907 569.9 162.941 570.106 163.009 570.292C163.077 570.477 163.172 570.638 163.294 570.773C163.42 570.905 163.572 571.006 163.748 571.079C163.925 571.151 164.119 571.187 164.332 571.187Z" fill="#8E8E8E"/>
<path d="M167.227 571.479L169.066 569.579C169.179 569.466 169.269 569.362 169.337 569.267C169.405 569.172 169.455 569.084 169.487 569.002C169.518 568.916 169.534 568.83 169.534 568.745C169.534 568.559 169.473 568.414 169.351 568.31C169.233 568.202 169.077 568.147 168.883 568.147C168.693 568.147 168.521 568.199 168.367 568.303C168.218 568.403 168.073 568.568 167.933 568.799L167.22 568.181C167.41 567.86 167.652 567.618 167.946 567.455C168.24 567.292 168.577 567.211 168.957 567.211C169.287 567.211 169.572 567.272 169.812 567.394C170.056 567.516 170.244 567.691 170.375 567.917C170.511 568.143 170.579 568.408 170.579 568.711C170.579 568.901 170.554 569.077 170.504 569.24C170.455 569.398 170.373 569.557 170.26 569.715C170.151 569.869 170.004 570.038 169.819 570.224L168.543 571.493L167.227 571.479ZM167.227 572.076V571.479L168.129 571.167H170.674V572.076H167.227Z" fill="#8E8E8E"/>
<path d="M175.055 564.692C175.055 565.098 174.726 565.427 174.321 565.427C173.915 565.427 173.587 565.098 173.587 564.692C173.587 564.287 173.915 563.958 174.321 563.958C174.726 563.958 175.055 564.287 175.055 564.692Z" fill="#E8E8E8"/>
<path d="M152.572 564.692C152.572 565.311 152.07 565.813 151.451 565.813C150.832 565.813 150.33 565.311 150.33 564.692C150.33 564.073 150.832 563.571 151.451 563.571C152.07 563.571 152.572 564.073 152.572 564.692Z" fill="#E8E8E8"/>
<rect x="155.628" y="613.487" width="13.5822" height="11.858" fill="#E8E8E8"/>
<path d="M158.251 612.093V614.881" stroke="#E8E8E8" stroke-width="5"/>
<path d="M162.419 612.093V614.881" stroke="#E8E8E8" stroke-width="5"/>
<path d="M166.588 612.093V614.881" stroke="#E8E8E8" stroke-width="5"/>
<path d="M161.707 620.914L161.412 617.136H163.222L162.927 620.914H161.707ZM162.321 623.396C162.058 623.396 161.839 623.306 161.665 623.127C161.491 622.947 161.404 622.728 161.404 622.47C161.404 622.207 161.491 621.985 161.665 621.806C161.839 621.626 162.058 621.536 162.321 621.536C162.585 621.536 162.801 621.626 162.969 621.806C163.143 621.985 163.23 622.207 163.23 622.47C163.23 622.728 163.143 622.947 162.969 623.127C162.801 623.306 162.585 623.396 162.321 623.396Z" fill="#8E8E8E"/>
<path d="M0.955933 12.1364H196.091V88.3506" stroke="url(#paint1_linear_246_9)" stroke-width="5"/>
<path d="M350.761 296.715C350.957 296.91 351.273 296.91 351.469 296.715L354.651 293.533C354.846 293.338 354.846 293.021 354.651 292.826C354.455 292.631 354.139 292.631 353.943 292.826L351.115 295.654L348.287 292.826C348.091 292.631 347.775 292.631 347.579 292.826C347.384 293.021 347.384 293.338 347.579 293.533L350.761 296.715ZM350.615 289.928L350.615 296.362L351.615 296.362L351.615 289.928L350.615 289.928Z" fill="white"/>
<defs>
<linearGradient id="paint0_linear_246_9" x1="192.369" y1="342.708" x2="192.369" y2="465.901" gradientUnits="userSpaceOnUse">
<stop stop-color="#24E720" stop-opacity="0"/>
<stop offset="1" stop-color="#24E720"/>
</linearGradient>
<linearGradient id="paint1_linear_246_9" x1="98.5234" y1="12.1364" x2="98.5234" y2="88.3506" gradientUnits="userSpaceOnUse">
<stop stop-color="#24E720"/>
<stop offset="1" stop-color="#24E720" stop-opacity="0"/>
</linearGradient>
</defs>
</svg>
