<svg width="165" height="201" viewBox="0 0 165 201" fill="none" xmlns="http://www.w3.org/2000/svg">
<path d="M81.3202 132.25L166.351 132.25" stroke="#24E720" stroke-width="5"/>
<path fill-rule="evenodd" clip-rule="evenodd" d="M103.687 0.162842H0.760742V200.011H103.687V0.162842ZM97.3511 6.92969H7.09644V181.469H97.3511V6.92969Z" fill="#D9D9D9"/>
<rect x="20.2303" y="122.553" width="63.9869" height="18.5139" fill="#24E720"/>
<path d="M27.2535 135.43C26.9668 135.43 26.6835 135.394 26.4035 135.32C26.1301 135.247 25.8735 135.144 25.6335 135.01C25.4001 134.87 25.2001 134.71 25.0335 134.53L25.9035 133.65C26.0635 133.824 26.2535 133.96 26.4735 134.06C26.6935 134.154 26.9335 134.2 27.1935 134.2C27.3735 134.2 27.5101 134.174 27.6035 134.12C27.7035 134.067 27.7535 133.994 27.7535 133.9C27.7535 133.78 27.6935 133.69 27.5735 133.63C27.4601 133.564 27.3135 133.507 27.1335 133.46C26.9535 133.407 26.7635 133.35 26.5635 133.29C26.3635 133.23 26.1735 133.147 25.9935 133.04C25.8135 132.934 25.6668 132.787 25.5535 132.6C25.4401 132.407 25.3835 132.164 25.3835 131.87C25.3835 131.557 25.4635 131.287 25.6235 131.06C25.7835 130.827 26.0101 130.644 26.3035 130.51C26.5968 130.377 26.9401 130.31 27.3335 130.31C27.7468 130.31 28.1268 130.384 28.4735 130.53C28.8268 130.67 29.1135 130.88 29.3335 131.16L28.4635 132.04C28.3101 131.86 28.1368 131.734 27.9435 131.66C27.7568 131.587 27.5735 131.55 27.3935 131.55C27.2201 131.55 27.0901 131.577 27.0035 131.63C26.9168 131.677 26.8735 131.747 26.8735 131.84C26.8735 131.94 26.9301 132.02 27.0435 132.08C27.1568 132.14 27.3035 132.194 27.4835 132.24C27.6635 132.287 27.8535 132.344 28.0535 132.41C28.2535 132.477 28.4435 132.567 28.6235 132.68C28.8035 132.794 28.9501 132.947 29.0635 133.14C29.1768 133.327 29.2335 133.574 29.2335 133.88C29.2335 134.354 29.0535 134.73 28.6935 135.01C28.3401 135.29 27.8601 135.43 27.2535 135.43ZM30.7536 135.31V128.44H32.2836V135.31H30.7536ZM29.6536 131.75V130.45H33.3836V131.75H29.6536ZM36.36 135.42C35.8334 135.42 35.3634 135.314 34.95 135.1C34.5434 134.88 34.2234 134.577 33.99 134.19C33.7567 133.804 33.64 133.367 33.64 132.88C33.64 132.394 33.7534 131.96 33.98 131.58C34.2134 131.194 34.5267 130.89 34.92 130.67C35.3134 130.45 35.7567 130.34 36.25 130.34C36.73 130.34 37.1534 130.444 37.52 130.65C37.8867 130.857 38.1734 131.144 38.38 131.51C38.5934 131.877 38.7 132.297 38.7 132.77C38.7 132.857 38.6934 132.95 38.68 133.05C38.6734 133.144 38.6567 133.254 38.63 133.38L34.44 133.39V132.34L37.98 132.33L37.32 132.77C37.3134 132.49 37.27 132.26 37.19 132.08C37.11 131.894 36.99 131.754 36.83 131.66C36.6767 131.56 36.4867 131.51 36.26 131.51C36.02 131.51 35.81 131.567 35.63 131.68C35.4567 131.787 35.32 131.94 35.22 132.14C35.1267 132.34 35.08 132.584 35.08 132.87C35.08 133.157 35.13 133.404 35.23 133.61C35.3367 133.81 35.4834 133.967 35.67 134.08C35.8634 134.187 36.09 134.24 36.35 134.24C36.59 134.24 36.8067 134.2 37 134.12C37.1934 134.034 37.3634 133.907 37.51 133.74L38.35 134.58C38.11 134.86 37.82 135.07 37.48 135.21C37.14 135.35 36.7667 135.42 36.36 135.42ZM42.5486 135.31L40.8486 132.79L42.5386 130.45H44.2486L42.2086 133.08L42.2586 132.45L44.3486 135.31H42.5486ZM39.4386 135.31V128.05H40.9686V135.31H39.4386ZM48.0075 135.31L46.3075 132.79L47.9975 130.45H49.7075L47.6675 133.08L47.7175 132.45L49.8075 135.31H48.0075ZM44.8975 135.31V128.05H46.4275V135.31H44.8975ZM52.5417 135.42C52.015 135.42 51.545 135.314 51.1317 135.1C50.725 134.88 50.405 134.577 50.1717 134.19C49.9384 133.804 49.8217 133.367 49.8217 132.88C49.8217 132.394 49.935 131.96 50.1617 131.58C50.395 131.194 50.7084 130.89 51.1017 130.67C51.495 130.45 51.9384 130.34 52.4317 130.34C52.9117 130.34 53.335 130.444 53.7017 130.65C54.0684 130.857 54.355 131.144 54.5617 131.51C54.775 131.877 54.8817 132.297 54.8817 132.77C54.8817 132.857 54.875 132.95 54.8617 133.05C54.855 133.144 54.8384 133.254 54.8117 133.38L50.6217 133.39V132.34L54.1617 132.33L53.5017 132.77C53.495 132.49 53.4517 132.26 53.3717 132.08C53.2917 131.894 53.1717 131.754 53.0117 131.66C52.8584 131.56 52.6684 131.51 52.4417 131.51C52.2017 131.51 51.9917 131.567 51.8117 131.68C51.6384 131.787 51.5017 131.94 51.4017 132.14C51.3084 132.34 51.2617 132.584 51.2617 132.87C51.2617 133.157 51.3117 133.404 51.4117 133.61C51.5184 133.81 51.665 133.967 51.8517 134.08C52.045 134.187 52.2717 134.24 52.5317 134.24C52.7717 134.24 52.9884 134.2 53.1817 134.12C53.375 134.034 53.545 133.907 53.6917 133.74L54.5317 134.58C54.2917 134.86 54.0017 135.07 53.6617 135.21C53.3217 135.35 52.9484 135.42 52.5417 135.42ZM55.6202 135.31V130.45H57.1502V135.31H55.6202ZM57.1502 132.64L56.5102 132.14C56.6369 131.574 56.8502 131.134 57.1502 130.82C57.4502 130.507 57.8669 130.35 58.4002 130.35C58.6335 130.35 58.8369 130.387 59.0102 130.46C59.1902 130.527 59.3469 130.634 59.4802 130.78L58.5702 131.93C58.5035 131.857 58.4202 131.8 58.3202 131.76C58.2202 131.72 58.1069 131.7 57.9802 131.7C57.7269 131.7 57.5235 131.78 57.3702 131.94C57.2235 132.094 57.1502 132.327 57.1502 132.64ZM64.3679 135.42C63.8412 135.42 63.3712 135.314 62.9579 135.1C62.5512 134.88 62.2312 134.577 61.9979 134.19C61.7645 133.804 61.6479 133.367 61.6479 132.88C61.6479 132.394 61.7612 131.96 61.9879 131.58C62.2212 131.194 62.5345 130.89 62.9279 130.67C63.3212 130.45 63.7645 130.34 64.2579 130.34C64.7379 130.34 65.1612 130.444 65.5279 130.65C65.8945 130.857 66.1812 131.144 66.3879 131.51C66.6012 131.877 66.7079 132.297 66.7079 132.77C66.7079 132.857 66.7012 132.95 66.6879 133.05C66.6812 133.144 66.6645 133.254 66.6379 133.38L62.4479 133.39V132.34L65.9879 132.33L65.3279 132.77C65.3212 132.49 65.2779 132.26 65.1979 132.08C65.1179 131.894 64.9979 131.754 64.8379 131.66C64.6845 131.56 64.4945 131.51 64.2679 131.51C64.0279 131.51 63.8179 131.567 63.6379 131.68C63.4645 131.787 63.3279 131.94 63.2279 132.14C63.1345 132.34 63.0879 132.584 63.0879 132.87C63.0879 133.157 63.1379 133.404 63.2379 133.61C63.3445 133.81 63.4912 133.967 63.6779 134.08C63.8712 134.187 64.0979 134.24 64.3579 134.24C64.5979 134.24 64.8145 134.2 65.0079 134.12C65.2012 134.034 65.3712 133.907 65.5179 133.74L66.3579 134.58C66.1179 134.86 65.8279 135.07 65.4879 135.21C65.1479 135.35 64.7745 135.42 64.3679 135.42ZM67.4464 135.31V130.45H68.9764V135.31H67.4464ZM68.9764 132.64L68.3364 132.14C68.463 131.574 68.6764 131.134 68.9764 130.82C69.2764 130.507 69.693 130.35 70.2264 130.35C70.4597 130.35 70.663 130.387 70.8364 130.46C71.0164 130.527 71.173 130.634 71.3064 130.78L70.3964 131.93C70.3297 131.857 70.2464 131.8 70.1464 131.76C70.0464 131.72 69.933 131.7 69.8064 131.7C69.553 131.7 69.3497 131.78 69.1964 131.94C69.0497 132.094 68.9764 132.327 68.9764 132.64ZM71.714 135.31V130.45H73.244V135.31H71.714ZM72.484 129.78C72.244 129.78 72.044 129.7 71.884 129.54C71.7306 129.374 71.654 129.174 71.654 128.94C71.654 128.7 71.7306 128.5 71.884 128.34C72.044 128.18 72.244 128.1 72.484 128.1C72.724 128.1 72.9206 128.18 73.074 128.34C73.2273 128.5 73.304 128.7 73.304 128.94C73.304 129.174 73.2273 129.374 73.074 129.54C72.9206 129.7 72.724 129.78 72.484 129.78ZM77.5314 135.31V132.54C77.5314 132.287 77.4514 132.084 77.2914 131.93C77.138 131.77 76.9414 131.69 76.7014 131.69C76.5347 131.69 76.388 131.727 76.2614 131.8C76.1347 131.867 76.0347 131.967 75.9614 132.1C75.888 132.227 75.8514 132.374 75.8514 132.54L75.2614 132.25C75.2614 131.87 75.3447 131.537 75.5114 131.25C75.678 130.964 75.908 130.744 76.2014 130.59C76.5014 130.43 76.838 130.35 77.2114 130.35C77.5714 130.35 77.888 130.437 78.1614 130.61C78.4414 130.777 78.6614 131 78.8214 131.28C78.9814 131.56 79.0614 131.867 79.0614 132.2V135.31H77.5314ZM74.3214 135.31V130.45H75.8514V135.31H74.3214Z" fill="white"/>
<path d="M28.7063 165.077C28.8219 163.473 34.4934 158.943 34.5092 162.2C34.5136 163.109 34.8264 164.135 34.8698 164.962C34.9233 165.982 38.4459 162.221 38.7177 162.037C39.549 161.475 42.329 158.917 42.7046 161.065C42.8621 161.966 43.2363 162.819 43.3359 163.738C43.4401 164.699 44.1638 163.201 44.4719 162.856C45.4168 161.798 46.7295 160.863 48.0698 160.379C49.1395 159.993 49.9751 163.222 50.3298 163.962C50.9662 165.288 52.1329 164.16 53.0295 163.597C54.0535 162.953 55.875 162.218 56.6726 161.357C58.4536 159.432 58.3953 165.665 60.1312 164.699C62.3297 163.475 64.3234 161.816 66.2664 160.229C67.5516 159.179 67.4421 164.442 67.6021 165.206C68.416 169.094 73.7925 161.678 75.7098 161.189" stroke="#D9D9D9" stroke-width="3" stroke-linecap="round"/>
<path d="M18.8576 20.9059C18.9732 19.3019 24.6447 14.7715 24.6605 18.0287C24.6649 18.9378 24.9777 19.9638 25.0211 20.7904C25.0747 21.8107 28.5972 18.0492 28.869 17.8656C29.7003 17.3041 32.4803 14.7452 32.8559 16.8939C33.0134 17.7946 33.3876 18.6472 33.4872 19.5662C33.5914 20.5277 34.3152 19.0292 34.6232 18.6843C35.5681 17.6263 36.8808 16.6916 38.2212 16.2079C39.2908 15.8219 40.1264 19.0507 40.4811 19.7903C41.1175 21.1171 42.2842 19.9884 43.1809 19.4252" stroke="#D9D9D9" stroke-width="3" stroke-linecap="round"/>
<path d="M130.799 141.947L140.935 131.81L130.799 121.674" stroke="#24E720" stroke-width="5"/>
<mask id="mask0_242_7" style="mask-type:alpha" maskUnits="userSpaceOnUse" x="0" y="0" width="104" height="201">
<path fill-rule="evenodd" clip-rule="evenodd" d="M103.687 0.162842H0.760742V200.011H103.687V0.162842ZM97.3511 6.92969H7.09644V181.469H97.3511V6.92969Z" fill="#D9D9D9"/>
</mask>
<g mask="url(#mask0_242_7)">
<rect x="0.805664" y="85.2784" width="15.1394" height="53.0319" fill="#D9D9D9"/>
</g>
</svg>
