<svg width="101" height="101" viewBox="0 0 101 101" fill="none" xmlns="http://www.w3.org/2000/svg">
<path opacity="0.5" fill-rule="evenodd" clip-rule="evenodd" d="M49.7032 22.9625C49.5745 22.4881 49.4511 22.049 49.3627 21.7638C49.3411 21.6943 49.2865 21.5185 49.2155 21.3318C49.1948 21.2773 49.1585 21.1843 49.1091 21.0724L49.1087 21.0714C49.0767 20.999 48.9605 20.7358 48.7671 20.4269C48.6826 20.292 48.4471 19.9248 48.0543 19.5339C48.0512 19.5308 48.0477 19.5274 48.0439 19.5236C47.8346 19.3143 46.5013 17.9816 44.2971 18.0826C41.429 18.2141 40.2219 20.4391 39.9438 21.075C39.6231 21.8083 39.5627 22.4387 39.5463 22.6136C39.5046 23.0574 39.5339 23.4114 39.5409 23.4958L39.5414 23.5017C39.5527 23.6397 39.5675 23.7509 39.5762 23.8126C39.5941 23.9391 39.6138 24.0461 39.6251 24.1059C39.6496 24.2349 39.6785 24.3694 39.7049 24.4879C39.8317 25.0586 40.004 25.6126 40.2023 26.1411C40.5041 27.2808 40.8238 28.5649 40.9378 29.1422C42.0452 34.7487 42.8711 40.2972 43.4057 45.873C42.2071 43.4299 40.8208 40.9998 39.1566 38.7809C38.9549 38.512 38.7165 38.2063 38.4665 37.9289C38.3481 37.7976 38.1409 37.5756 37.8701 37.3447C37.8677 37.3427 37.8641 37.3395 37.8592 37.3352C37.7407 37.2311 36.8867 36.481 35.5684 36.2057C34.6944 36.0233 33.1517 35.9671 31.6686 36.9986C30.264 37.9756 29.7953 39.3237 29.639 40.0021C29.3785 41.1332 29.588 42.0787 29.6246 42.2437C29.6261 42.2504 29.6273 42.2559 29.6281 42.2599C29.7449 42.8078 29.9373 43.2848 30.0155 43.4771C30.3926 44.4052 31.1505 45.8932 31.9083 47.3403C31.9276 47.3773 31.9471 47.4144 31.9668 47.4519C31.3261 47.4511 30.6065 47.5741 29.8505 47.9224C28.747 48.4309 28.0627 49.1959 27.6422 49.8808C27.0853 49.5843 26.2833 49.2871 25.292 49.2797C24.0567 49.2704 22.7935 49.7201 21.8105 50.6457C20.9477 51.4583 20.5912 52.3624 20.4406 52.8626C20.1645 53.7794 20.2236 54.5527 20.2385 54.7488L20.239 54.7555C20.2802 55.2963 20.4 55.7549 20.4449 55.9251C20.6352 56.646 21.0067 57.6523 21.345 58.5286C20.3449 57.3546 19.341 56.1888 18.3351 55.0309C18.35 55.0479 18.3381 55.0327 18.2856 54.9651C18.2251 54.8871 18.1105 54.7395 17.9204 54.4916C17.8603 54.4132 17.7958 54.3289 17.7274 54.2395C17.4666 53.899 17.1493 53.4846 16.8052 53.0404C15.9469 51.9322 14.8357 50.526 13.8063 49.3586C13.3005 48.785 12.7288 48.1707 12.1619 47.6557C11.8822 47.4016 11.5119 47.0871 11.0812 46.7993C10.7706 46.5918 9.88438 46.016 8.65097 45.8365C7.95205 45.7348 6.90806 45.7275 5.787 46.2207C4.6032 46.7414 3.79308 47.6184 3.31418 48.5029C2.52152 49.9668 2.65437 51.3846 2.69482 51.7918C2.80418 52.8926 3.19756 54.0556 3.56226 55.0171C6.65645 63.1745 11.7466 71.7374 18.5 77.8154C20.2033 79.3484 22.6701 79.4947 24.516 78.3272C26.6399 81.1153 28.6967 83.9391 30.6666 86.8045C30.6742 86.8155 30.6869 86.8341 30.7035 86.8586C30.7804 86.9717 30.9424 87.2101 31.0806 87.401L31.0809 87.4015C31.2165 87.5888 31.5939 88.1104 32.1107 88.5826C32.3272 88.7804 32.9792 89.3618 33.9871 89.7129C35.2694 90.1596 37.4315 90.2611 39.1815 88.6059C40.0274 87.8059 40.4169 86.8991 40.6006 86.2689C40.8454 86.4189 41.1742 86.5928 41.5762 86.7356C42.1894 86.9535 43.4344 87.2584 44.8974 86.763C46.5016 86.2199 47.4161 85.0466 47.8501 84.1206C47.8728 84.0721 47.8944 84.024 47.915 83.9762C48.1121 84.1291 48.3501 84.2942 48.6264 84.4489C49.0955 84.7117 50.2239 85.2577 51.7344 85.096C53.5667 84.8999 54.8591 83.802 55.5444 82.6873C56.1097 81.7679 56.2455 80.8993 56.2904 80.5183C56.385 79.716 56.2863 79.0161 56.2425 78.7271C56.0712 77.598 55.5946 76.1299 55.4759 75.7641C55.4659 75.7334 55.4584 75.7104 55.4539 75.6961C54.9304 74.0424 54.3522 72.4048 53.743 70.7892C53.8672 70.4554 53.9287 70.196 53.9559 70.0815L53.9572 70.076C54.0433 69.7135 54.0916 69.375 54.1214 69.1233C54.2328 68.1814 54.2492 66.9494 54.246 65.9293C54.2425 64.8321 54.2128 63.6777 54.1853 62.7684C54.1754 62.4445 54.1656 62.1422 54.1572 61.8863C54.1539 61.7839 54.1508 61.6888 54.148 61.6029C54.1431 61.4483 54.1393 61.3253 54.1368 61.2311C54.1354 61.1795 54.1347 61.1472 54.1343 61.1297C54.1339 61.11 54.134 61.1089 54.134 61.12C54.134 58.526 54.0753 55.9533 53.9591 53.3953C57.4042 61.0857 60.6001 68.9177 63.6208 76.7797C63.6159 76.767 63.6212 76.7824 63.642 76.844C63.6664 76.9159 63.7121 77.0509 63.7881 77.2778L63.8224 77.3803C63.9335 77.7122 64.0754 78.1363 64.235 78.6032C64.5829 79.6214 65.044 80.93 65.513 82.086C65.7452 82.6583 66.0113 83.273 66.2951 83.829L66.2986 83.8359C66.4853 84.2018 66.9986 85.2078 67.8557 86.0071C68.1862 86.3153 69.6638 87.6542 71.9656 87.4252C74.6585 87.1573 75.8401 85.1076 76.1679 84.3969C76.5373 83.5964 76.6479 82.8455 76.6933 82.4652C76.7481 82.0061 76.764 81.5459 76.764 81.1246C76.764 78.5228 76.6296 75.9091 76.4092 73.3057C78.6365 77.5338 80.6364 81.704 82.179 86.0233L82.1812 86.0297C82.2402 86.1948 82.4354 86.7416 82.8128 87.31C82.9561 87.5258 83.5179 88.3695 84.6157 88.9694C85.2495 89.3158 86.184 89.6449 87.3257 89.577C88.4951 89.5075 89.4474 89.047 90.1226 88.519C91.2628 87.6273 91.668 86.5161 91.7626 86.2564L91.7633 86.2546C91.9156 85.8366 91.9831 85.4822 92.0137 85.3011C92.0776 84.9223 92.0937 84.5886 92.1 84.4096C92.1248 83.709 92.0671 82.7769 92.0152 82.0659C91.9008 80.5006 91.7072 78.6843 91.668 78.3539C91.5359 77.2402 91.4137 76.1252 91.2998 75.0081C91.9541 75.3117 93.1145 75.6882 94.5438 75.3904C96.9769 74.8835 98.0305 72.9827 98.3687 71.9532C98.6716 71.0315 98.6516 70.2246 98.6353 69.8835C98.6148 69.4529 98.5542 69.0567 98.4949 68.7403C97.4 62.9009 95.6167 57.1674 93.95 51.8088C93.6904 50.9741 93.4336 50.1484 93.1826 49.3329C92.3706 46.6936 89.5726 45.2123 86.9333 46.0244C84.294 46.8365 82.8128 49.6345 83.6249 52.2738C83.7967 52.8322 83.9685 53.3873 84.1397 53.9392C83.1902 54.1729 82.2624 54.6831 81.5063 55.5332C80.4808 56.6861 80.2482 57.9596 80.1756 58.459C80.1374 58.7212 80.1172 58.9752 80.1085 59.2137C76.5663 52.7798 73.335 46.6566 71.1827 40.1998C71.1134 39.9917 71.0425 39.7848 70.9756 39.605C70.9441 39.5202 70.8934 39.3872 70.8299 39.2408C70.7988 39.1692 70.7437 39.0457 70.6681 38.8996L70.6653 38.8943C70.6184 38.8034 70.4294 38.4378 70.1058 38.037C69.9669 37.8649 69.5334 37.3397 68.7983 36.8952C68.0204 36.4249 66.0959 35.6233 63.9449 36.7151C62.1683 37.617 61.6018 39.1832 61.4689 39.5768C61.2789 40.1392 61.2347 40.6061 61.22 40.7945C61.1877 41.2085 61.2154 41.5363 61.2235 41.6315C61.2358 41.7751 61.2518 41.8933 61.2622 41.9652C61.2983 42.2128 61.3507 42.4566 61.3783 42.5832C61.483 43.0642 61.6872 43.8954 61.91 44.802C61.9549 44.9848 62.0006 45.1707 62.0463 45.3574C62.3296 46.513 62.6246 47.736 62.8751 48.839C59.65 41.6657 56.1967 34.5798 52.4581 27.6777C52.0965 27.0101 51.494 26.0404 51.011 25.263C50.7684 24.8726 50.556 24.5307 50.4193 24.2999C50.0823 23.7308 49.8537 23.2933 49.7032 22.9625ZM75.2827 79.4283C75.2826 79.4303 75.2677 79.4071 75.2383 79.3524C75.2681 79.3989 75.2829 79.4262 75.2827 79.4283ZM82.3885 62.6339C82.3886 62.634 82.3908 62.6363 82.395 62.6411C82.3906 62.6364 82.3884 62.6339 82.3885 62.6339ZM96.7269 66.7811C96.7963 66.854 96.8032 66.8722 96.7414 66.7986C96.7372 66.7936 96.7324 66.7878 96.7269 66.7811ZM61.6028 43.0909C61.6031 43.0916 61.6034 43.0924 61.6037 43.0933C61.6018 43.0882 61.6015 43.0872 61.6028 43.0909ZM39.264 39.6716C39.2645 39.6721 39.2701 39.6857 39.2791 39.7108C39.2681 39.6836 39.2636 39.6711 39.264 39.6716ZM21.3742 57.3708C21.3742 57.3706 21.377 57.3748 21.3829 57.3837C21.3771 57.3754 21.3742 57.3709 21.3742 57.3708ZM30.8288 84.7098C30.8291 84.715 30.8293 84.7187 30.8294 84.7208L30.8295 84.7224C30.8293 84.7182 30.829 84.714 30.8288 84.7098ZM5.39069 55.0161C5.3907 55.0161 5.39246 55.0175 5.39602 55.0205C5.39247 55.0177 5.39068 55.0162 5.39069 55.0161ZM39.8061 24.709C39.806 24.7086 39.8075 24.7133 39.8108 24.7238C39.8077 24.7145 39.8061 24.7093 39.8061 24.709Z" fill="#24E720"/>
<path fill-rule="evenodd" clip-rule="evenodd" d="M59.2359 10.3801H42.069V19.0487H26.51V90.6198H74.7949V19.0487H59.2359V10.3801Z" fill="#E8E8E8"/>
<path d="M52.1525 41.1549L52.1525 39.6549L49.1525 39.6549L49.1525 41.1549L52.1525 41.1549ZM49.5918 70.3028C50.1776 70.8886 51.1273 70.8886 51.7131 70.3028L61.2591 60.7569C61.8449 60.1711 61.8449 59.2214 61.2591 58.6356C60.6733 58.0498 59.7235 58.0498 59.1377 58.6356L50.6525 67.1209L42.1672 58.6356C41.5814 58.0498 40.6317 58.0498 40.0459 58.6356C39.4601 59.2214 39.4601 60.1711 40.0459 60.7569L49.5918 70.3028ZM49.1525 41.1549L49.1525 69.2422L52.1525 69.2422L52.1525 41.1549L49.1525 41.1549Z" fill="#8E8E8E"/>
</svg>
