<svg width="101" height="101" viewBox="0 0 101 101" fill="none" xmlns="http://www.w3.org/2000/svg">
<path opacity="0.5" d="M32.1663 21.9519C30.0435 26.2541 27.516 30.6485 26.3683 35.3538C25.9994 36.8664 25.8171 38.4095 25.3228 39.8924C24.683 41.8118 24.3481 43.3431 23.0891 45.0487C21.1654 47.6551 19.0676 50.0195 17.0298 52.5101C11.7212 58.9983 27.1615 39.1348 32.6653 32.8112C38.1358 26.5259 43.7728 20.0627 50.2493 14.7758C50.7532 14.3644 54.2654 11.0506 55.073 11.5441C56.3223 12.3076 52.2069 19.5832 51.9839 20.051C44.8613 34.9924 37.6324 49.8371 29.6 64.3198C26.2039 70.4431 22.9036 76.6325 19.4298 82.7117C16.1453 88.4595 20.063 79.8901 20.8555 78.5058C27.4032 67.0686 35.2612 56.1457 43.0731 45.5477C46.0913 41.4532 49.1973 37.423 52.3166 33.4053C52.4488 33.235 54.486 30.618 54.9779 30.0311C55.1512 29.8243 55.4249 29.2995 55.5958 29.5083C56.7524 30.9219 51.0686 40.9414 50.6057 41.9597C44.8146 54.7001 38.4145 67.1058 32.1188 79.5989C31.5097 80.8074 29.437 84.2476 30.3604 83.2583C32.3097 81.1697 34.0004 78.1447 35.588 75.8682C46.7114 59.9193 58.4366 44.4982 70.7085 29.4133C72.8108 26.8291 74.9684 24.2966 77.1005 21.7381C77.4311 21.3414 78.1475 20.2135 78.2648 20.7163C78.5086 21.761 77.599 23.6497 77.2668 24.447C74.9034 30.1193 71.6968 35.4858 68.76 40.8666C62.3718 52.5712 56.058 64.2823 50.3206 76.3197C50.1666 76.6428 50.002 76.9616 49.8691 77.294C49.6278 77.8973 49.7205 77.8781 50.178 77.389C53.2539 74.101 55.8855 70.2706 58.7324 66.7911C65.3851 58.66 72.0219 50.4397 79.3104 42.8626C81.1156 40.9859 82.9445 39.1048 84.8707 37.3498C85.5044 36.7724 86.1247 36.1849 85.536 37.2072C76.4443 52.9982 65.8871 68.1908 58.3997 84.8503C58.0745 85.5739 55.334 91.4511 58.067 88.8424C65.0044 82.2203 71.6862 75.3641 78.7876 68.9059C80.6321 67.2285 82.4853 65.5351 84.443 63.9872C84.9487 63.5873 86.3699 62.5164 86.1776 63.1317C85.2253 66.1791 81.6205 69.1943 79.643 71.5673" stroke="#24E720" stroke-width="10" stroke-linecap="round"/>
<path fill-rule="evenodd" clip-rule="evenodd" d="M30.5346 75.1607C30.5492 75.1607 30.5637 75.1607 30.5783 75.1607C30.5928 75.1607 30.6074 75.1607 30.6219 75.1607H77.9078V75.1541C78.081 75.1586 78.2547 75.1608 78.429 75.1608C88.1199 75.1608 95.9759 68.1705 95.9759 59.5475C95.9759 50.9246 88.1199 43.9343 78.429 43.9343H78.429V43.9342C78.429 33.41 68.8409 24.8784 57.0133 24.8784C50.2309 24.8784 44.1848 27.6839 40.261 32.0619C39.0495 31.4544 37.6508 31.1079 36.1611 31.1079C32.063 31.1079 28.6532 33.7307 27.9363 37.1927C17.3553 38.3511 9.16261 46.3767 9.16261 56.1049C9.16261 66.4845 18.4889 74.9258 30.0917 75.1559V75.1607H30.5346Z" fill="#E8E8E8"/>
<path d="M37.8805 62.4862C36.658 62.4862 35.5206 62.2773 34.4683 61.8594C33.4314 61.4261 32.5184 60.8226 31.7292 60.0489C30.9554 59.2751 30.3519 58.3776 29.9186 57.3562C29.4853 56.3194 29.2686 55.2052 29.2686 54.0136C29.2686 52.822 29.4853 51.7155 29.9186 50.6942C30.3519 49.6574 30.9554 48.7598 31.7292 48.0015C32.5029 47.2433 33.4082 46.6552 34.445 46.2374C35.4973 45.8041 36.6348 45.5874 37.8573 45.5874C39.1572 45.5874 40.3101 45.7963 41.316 46.2142C42.3373 46.632 43.2271 47.2046 43.9854 47.9319L41.5481 50.3924C41.1148 49.9282 40.5886 49.5645 39.9696 49.3014C39.3661 49.0384 38.662 48.9068 37.8573 48.9068C37.1454 48.9068 36.4877 49.0306 35.8842 49.2782C35.2962 49.5103 34.7855 49.8508 34.3522 50.2996C33.9344 50.7484 33.6016 51.29 33.354 51.9245C33.1219 52.5589 33.0059 53.2553 33.0059 54.0136C33.0059 54.7873 33.1219 55.4915 33.354 56.1259C33.6016 56.7604 33.9344 57.302 34.3522 57.7508C34.7855 58.1996 35.2962 58.5478 35.8842 58.7954C36.4877 59.043 37.1454 59.1668 37.8573 59.1668C38.6929 59.1668 39.4203 59.0352 40.0393 58.7722C40.6583 58.5091 41.1922 58.1454 41.6409 57.6812L44.1015 60.1417C43.3122 60.869 42.407 61.4416 41.3856 61.8594C40.3797 62.2773 39.2114 62.4862 37.8805 62.4862Z" fill="#8E8E8E"/>
<path d="M53.2735 62.5094C52.0355 62.5094 50.8904 62.2927 49.8381 61.8594C48.8012 61.4261 47.8882 60.8226 47.099 60.0489C46.3098 59.2751 45.6985 58.3776 45.2652 57.3562C44.8319 56.3194 44.6152 55.2052 44.6152 54.0136C44.6152 52.8065 44.8319 51.6923 45.2652 50.671C45.6985 49.6496 46.302 48.7598 47.0758 48.0015C47.8495 47.2278 48.7548 46.632 49.7916 46.2142C50.8439 45.7809 51.9891 45.5642 53.2271 45.5642C54.4496 45.5642 55.5793 45.7809 56.6161 46.2142C57.6684 46.632 58.5815 47.2278 59.3552 48.0015C60.1445 48.7598 60.7557 49.6574 61.189 50.6942C61.6223 51.7155 61.839 52.8297 61.839 54.0368C61.839 55.2284 61.6223 56.3426 61.189 57.3794C60.7557 58.4008 60.1522 59.2983 59.3784 60.0721C58.6047 60.8304 57.6917 61.4261 56.6394 61.8594C55.6025 62.2927 54.4806 62.5094 53.2735 62.5094ZM53.2271 59.19C54.202 59.19 55.0532 58.9733 55.7805 58.54C56.5233 58.1067 57.0959 57.5032 57.4982 56.7295C57.9006 55.9402 58.1017 55.0349 58.1017 54.0136C58.1017 53.2398 57.9857 52.5435 57.7536 51.9245C57.5214 51.29 57.1887 50.7484 56.7554 50.2996C56.3221 49.8353 55.8037 49.4871 55.2002 49.255C54.6121 49.0074 53.9544 48.8836 53.2271 48.8836C52.2522 48.8836 51.3933 49.1003 50.6505 49.5336C49.9232 49.9514 49.3583 50.5472 48.956 51.3209C48.5536 52.0792 48.3525 52.9768 48.3525 54.0136C48.3525 54.7873 48.4685 55.4915 48.7006 56.1259C48.9328 56.7604 49.2578 57.3098 49.6756 57.774C50.1089 58.2228 50.6273 58.571 51.2308 58.8186C51.8343 59.0662 52.4998 59.19 53.2271 59.19Z" fill="#8E8E8E"/>
<path d="M63.1311 60.1881L69.4217 53.6886C69.8086 53.3017 70.1181 52.9458 70.3502 52.6208C70.5823 52.2959 70.7525 51.9941 70.8609 51.7155C70.9692 51.4215 71.0234 51.1275 71.0234 50.8335C71.0234 50.199 70.8144 49.7038 70.3966 49.3479C69.9943 48.9765 69.4604 48.7908 68.795 48.7908C68.145 48.7908 67.5569 48.9687 67.0308 49.3246C66.5201 49.6651 66.0249 50.2299 65.5452 51.0192L63.1079 48.9068C63.7578 47.8081 64.5857 46.9802 65.5916 46.4231C66.5975 45.866 67.7504 45.5874 69.0503 45.5874C70.18 45.5874 71.1549 45.7963 71.9751 46.2142C72.8107 46.632 73.4529 47.2278 73.9017 48.0015C74.366 48.7753 74.5981 49.6806 74.5981 50.7174C74.5981 51.3674 74.513 51.9709 74.3428 52.528C74.1725 53.0696 73.894 53.6112 73.5071 54.1529C73.1357 54.679 72.6328 55.2593 71.9983 55.8938L67.6343 60.2346L63.1311 60.1881ZM63.1311 62.2308V60.1881L66.2184 59.1204H74.9231V62.2308H63.1311Z" fill="#8E8E8E"/>
<path d="M89.911 36.9707C89.911 38.3582 88.7862 39.4829 87.3988 39.4829C86.0113 39.4829 84.8866 38.3582 84.8866 36.9707C84.8866 35.5833 86.0113 34.4585 87.3988 34.4585C88.7862 34.4585 89.911 35.5833 89.911 36.9707Z" fill="#E8E8E8"/>
<path d="M12.997 36.9708C12.997 39.0885 11.2803 40.8052 9.16259 40.8052C7.04489 40.8052 5.32816 39.0885 5.32816 36.9708C5.32816 34.8531 7.04489 33.1364 9.16259 33.1364C11.2803 33.1364 12.997 34.8531 12.997 36.9708Z" fill="#E8E8E8"/>
</svg>
