<svg width="101" height="101" viewBox="0 0 101 101" fill="none" xmlns="http://www.w3.org/2000/svg">
<path opacity="0.5" d="M22.6866 46.096C23.7754 42.243 26.7221 38.785 29.4634 35.3098C34.2268 29.2713 39.3385 23.3879 45.577 17.9055C48.5534 15.2898 51.6464 12.4671 55.5664 10.3647C56.6844 9.76509 57.0929 9.92903 56.9217 10.9056C56.1655 15.2196 53.4333 19.5642 51.1239 23.6009C46.1799 32.2423 40.4039 40.7186 33.8808 48.9278C29.2533 54.7514 24.5094 60.666 18.6959 66.0617C18.3373 66.3945 15.0096 69.1822 15.0063 69.1003C14.933 67.2415 17.5618 64.9546 18.8967 63.4685C25.701 55.8934 34.0107 48.8325 41.9627 41.737C46.3048 37.8626 50.589 33.9114 55.2903 30.2031C55.7128 29.8698 56.4444 28.9298 56.746 29.3122C56.8998 29.5072 56.7637 29.7546 56.6707 29.9644C55.7269 32.0944 51.9325 38.6977 51.4501 39.5416C43.3036 53.7926 34.7244 67.9427 26.577 82.1933C26.4777 82.367 22.8343 89.2093 24.7448 84.8819C27.8001 77.9613 32.4208 71.4416 37.219 64.9481C42.3953 57.9428 47.5996 50.9081 53.6589 44.187C54.8214 42.8974 56.9123 40.7109 58.1767 39.4143C59.1312 38.4355 60.4628 36.5376 62.0168 35.7871C62.3332 35.6343 62.3557 36.2679 62.318 36.5189C61.9627 38.8838 60.9754 41.2818 60.1344 43.5824C54.3489 59.4105 46.8637 75.0377 39.252 90.5455C39.1844 90.6832 38.9661 91.0929 39.0512 90.9591C40.7153 88.3417 42.7121 85.805 44.7236 83.291C49.7836 76.9668 55.4113 70.9321 61.5901 65.0276C64.1138 62.616 66.5242 60.0493 69.5214 57.8527C71.6525 56.2909 69.2942 60.7738 69.2705 60.8277C65.3326 69.7516 59.6496 78.4186 56.219 87.4273C55.4469 89.4546 59.6094 83.8518 61.3894 82.0978C66.3851 77.1749 71.7747 72.4736 77.7037 67.9867C80.1456 66.1387 82.5732 64.0782 85.4342 62.4663C86.3853 61.9304 86.4019 62.4381 86.1872 63.0231C83.9762 69.0492 78.8652 74.7813 75.0934 80.4592" stroke="#24E720" stroke-width="10" stroke-linecap="round"/>
<path d="M14.6079 32.3672H86.6961V68.6329H14.6079V32.3672Z" fill="#E8E8E8"/>
<path d="M50.1011 59.8895C48.7444 59.8895 47.4934 59.6517 46.3481 59.1759C45.2205 58.6826 44.225 57.9954 43.3616 57.1145C42.5159 56.2335 41.8552 55.2116 41.3794 54.0487C40.9213 52.8682 40.6923 51.5996 40.6923 50.2429C40.6923 48.8862 40.9213 47.6264 41.3794 46.4635C41.8552 45.283 42.5159 44.2611 43.3616 43.3977C44.2074 42.5344 45.1941 41.8648 46.3217 41.3891C47.467 40.8958 48.7179 40.6491 50.0746 40.6491C51.5018 40.6491 52.7704 40.887 53.8804 41.3627C55.0081 41.8384 56.0036 42.4903 56.8669 43.3184L54.0919 46.1199C53.5985 45.5737 53.0171 45.1509 52.3475 44.8513C51.6956 44.5342 50.9204 44.3756 50.0218 44.3756C48.9998 44.3756 48.1013 44.6223 47.326 45.1156C46.5684 45.5914 45.9781 46.2697 45.5553 47.1507C45.1324 48.0316 44.921 49.0624 44.921 50.2429C44.921 51.4234 45.1324 52.4629 45.5553 53.3615C45.9957 54.2425 46.6036 54.9296 47.3789 55.423C48.1541 55.8987 49.0615 56.1366 50.1011 56.1366C50.982 56.1366 51.7573 55.9868 52.4268 55.6873C53.0964 55.3878 53.6866 54.9649 54.1976 54.4187L56.9991 57.2202C56.1005 58.0483 55.0874 58.7002 53.9597 59.1759C52.8497 59.6517 51.5635 59.8895 50.1011 59.8895ZM38.9215 49.4764V46.9657H51.634L50.9997 49.4764H38.9215ZM38.9215 53.7051V51.1943H50.6825L50.0482 53.7051H38.9215Z" fill="#8E8E8E"/>
</svg>
