<svg width="101" height="100" viewBox="0 0 101 100" fill="none" xmlns="http://www.w3.org/2000/svg">
<path opacity="0.5" d="M12.0237 49.8989C12.2356 51.1708 13.5004 47.7835 14.2902 46.7643C17.5083 42.6119 21.4138 39.2067 25.1168 35.5037C27.5609 33.0596 30.8013 30.5602 34.2554 29.8373C34.7056 29.7431 36.2823 29.0445 36.3291 29.9337C36.4914 33.0167 36.0262 36.2927 34.7859 39.1206C33.1984 42.7403 30.5842 45.8436 28.9748 49.4649C27.0211 53.8606 24.804 58.3075 23.4048 62.9197C22.6318 65.4677 21.6406 68.5006 21.5722 71.1662C21.5293 72.84 26.4002 67.2065 26.7082 66.8742C33.089 59.9897 39.5005 53.0918 44.6962 45.2452C47.3112 41.2961 49.335 36.9394 52.0505 33.0684C53.7835 30.598 56.879 26.4638 60.1765 26.0516C66.844 25.2182 57.4451 47.2649 56.3908 49.3926C52.0965 58.0593 44.3493 66.5359 44.1416 76.7121C44.1159 77.9703 44.0148 78.818 45.5401 77.9178C49.8836 75.3544 52.7175 70.3308 55.0405 66.0544C57.7041 61.151 59.7827 55.926 62.8047 51.2251C65.2514 47.4192 68.0622 44.0574 71.0512 40.6879C71.7779 39.8688 79.3473 32.0494 79.7077 33.6712C80.9119 39.0901 78.2897 44.2232 76.5007 49.0791C74.4688 54.5942 72.3244 61.0418 71.9434 66.9465C71.8162 68.919 71.5015 69.9775 73.6554 69.8642C74.2457 69.8331 74.7056 69.5127 75.1504 69.1408C78.0465 66.7194 80.7783 63.9951 83.4451 61.3283C85.0239 59.7495 87.1165 55.8285 89.2804 55.1073" stroke="#24E720" stroke-width="10" stroke-linecap="round"/>
<rect x="22.4995" y="27.5" width="58.1104" height="50.7337" fill="#E8E8E8"/>
<path d="M33.7204 21.536V33.4639" stroke="#E8E8E8" stroke-width="5"/>
<path d="M51.5547 21.536V33.4639" stroke="#E8E8E8" stroke-width="5"/>
<path d="M69.3889 21.536V33.4639" stroke="#E8E8E8" stroke-width="5"/>
<path d="M48.5067 59.276L47.2467 43.112H54.9867L53.7267 59.276H48.5067ZM51.1347 69.896C50.0067 69.896 49.0707 69.512 48.3267 68.744C47.5827 67.976 47.2107 67.04 47.2107 65.936C47.2107 64.808 47.5827 63.86 48.3267 63.092C49.0707 62.324 50.0067 61.94 51.1347 61.94C52.2627 61.94 53.1867 62.324 53.9067 63.092C54.6507 63.86 55.0227 64.808 55.0227 65.936C55.0227 67.04 54.6507 67.976 53.9067 68.744C53.1867 69.512 52.2627 69.896 51.1347 69.896Z" fill="#8E8E8E"/>
</svg>
