<svg width="265" height="103" viewBox="0 0 265 103" fill="none" xmlns="http://www.w3.org/2000/svg">
<path fill-rule="evenodd" clip-rule="evenodd" d="M229.814 21.6777L250.159 33.4239L233.957 61.4876L223.907 55.6855C213.552 49.7071 200.714 50.0642 190.707 56.609L169.858 70.2454L158.029 52.1594L202.817 22.5046C210.931 17.1322 221.386 16.812 229.814 21.6777ZM231.323 19.0632C221.904 13.6251 210.219 13.983 201.151 19.9875L156.362 49.6423C154.978 50.5591 154.594 52.4221 155.503 53.8119L156.841 55.8585L152.729 58.6304C151.623 59.3759 151.33 60.8769 152.076 61.9829L159.338 72.7571C160.083 73.8632 161.584 74.1554 162.69 73.4099L166.598 70.7761L167.332 71.8978C168.244 73.2932 170.115 73.6845 171.511 72.7719L192.36 59.1355C201.413 53.214 213.029 52.8909 222.398 58.2999L232.447 64.102C233.891 64.9357 235.737 64.4409 236.571 62.997L237.728 60.9931L241.154 62.9713C242.598 63.8049 244.445 63.3102 245.278 61.8663L255.936 43.4068C256.77 41.9629 256.275 40.1166 254.831 39.2829L251.404 37.3047L252.774 34.9334C253.607 33.4895 253.112 31.6432 251.669 30.8095L231.323 19.0632ZM249.895 39.9191L253.321 41.8974L242.664 60.3569L239.237 58.3786L249.895 39.9191ZM164.945 68.2494L158.494 58.3852L154.917 60.7963L161.504 70.5691L164.945 68.2494Z" fill="#A1A1A1"/>
<path d="M156.132 66.7385C143.788 74.0338 123.923 70.4607 109.425 70.4607C94.3256 70.4607 30.5331 73.13 0.429466 73.13" stroke="#A1A1A1" stroke-width="4"/>
</svg>
