<svg width="764" height="286" viewBox="0 0 764 286" fill="none" xmlns="http://www.w3.org/2000/svg">
<g opacity="0.5">
<path fill-rule="evenodd" clip-rule="evenodd" d="M403.751 9.1584C407.727 4.00138 413.869 0.980469 420.381 0.980469H625.609C632.576 0.980469 639.089 4.4362 642.995 10.2051L694.96 86.9529C696.029 88.5312 697.408 89.8746 699.015 90.9007L753.463 125.688C759.502 129.545 763.156 136.216 763.156 143.381V211.01C763.156 222.606 753.755 232.007 742.159 232.007H243.494C231.898 232.007 222.498 222.606 222.498 211.01V129.927C222.498 119.919 229.562 111.301 239.376 109.339L337.274 89.759C340.588 89.0961 343.551 87.2561 345.615 84.5789L403.751 9.1584ZM420.381 7.97926C416.04 7.97926 411.945 9.9932 409.294 13.4312L351.158 88.8517C348.062 92.8675 343.618 95.6275 338.646 96.6219L240.749 116.201C234.206 117.51 229.497 123.255 229.497 129.927V211.01C229.497 218.741 235.763 225.008 243.494 225.008H742.159C749.89 225.008 756.157 218.741 756.157 211.01V143.381C756.157 138.604 753.721 134.157 749.695 131.585L695.247 96.7986C692.837 95.2593 690.768 93.2442 689.165 90.8768L637.2 14.129C634.596 10.2831 630.254 7.97926 625.609 7.97926H420.381Z" fill="#434343"/>
<path d="M392.766 223.715C392.766 257.884 365.067 285.583 330.898 285.583C296.73 285.583 269.031 257.884 269.031 223.715C269.031 189.547 296.73 161.848 330.898 161.848C365.067 161.848 392.766 189.547 392.766 223.715Z" fill="white"/>
<path fill-rule="evenodd" clip-rule="evenodd" d="M330.898 278.584C361.201 278.584 385.767 254.018 385.767 223.715C385.767 193.412 361.201 168.847 330.898 168.847C300.596 168.847 276.03 193.412 276.03 223.715C276.03 254.018 300.596 278.584 330.898 278.584ZM330.898 285.583C365.067 285.583 392.766 257.884 392.766 223.715C392.766 189.547 365.067 161.848 330.898 161.848C296.73 161.848 269.031 189.547 269.031 223.715C269.031 257.884 296.73 285.583 330.898 285.583Z" fill="#434343"/>
<path d="M708.745 223.715C708.745 257.884 681.046 285.583 646.878 285.583C612.709 285.583 585.01 257.884 585.01 223.715C585.01 189.547 612.709 161.848 646.878 161.848C681.046 161.848 708.745 189.547 708.745 223.715Z" fill="white"/>
<path fill-rule="evenodd" clip-rule="evenodd" d="M646.878 278.584C677.181 278.584 701.746 254.018 701.746 223.715C701.746 193.412 677.181 168.847 646.878 168.847C616.575 168.847 592.009 193.412 592.009 223.715C592.009 254.018 616.575 278.584 646.878 278.584ZM646.878 285.583C681.046 285.583 708.745 257.884 708.745 223.715C708.745 189.547 681.046 161.848 646.878 161.848C612.709 161.848 585.01 189.547 585.01 223.715C585.01 257.884 612.709 285.583 646.878 285.583Z" fill="#434343"/>
</g>
<path fill-rule="evenodd" clip-rule="evenodd" d="M190.715 149.838L214.207 149.838L214.207 182.243L202.603 182.243C190.646 182.243 179.707 188.971 174.313 199.643L163.075 221.877L143.788 212.128L167.748 164.052C172.089 155.343 180.983 149.838 190.715 149.838ZM190.715 146.819C179.838 146.819 169.898 152.971 165.046 162.706L141.086 210.782C140.345 212.268 140.944 214.074 142.426 214.823L144.609 215.926L142.433 220.383C141.848 221.581 142.345 223.027 143.544 223.612L155.22 229.312C156.419 229.897 157.865 229.4 158.45 228.201L160.517 223.966L161.713 224.571C163.201 225.323 165.017 224.727 165.769 223.239L177.007 201.004C181.887 191.349 191.785 185.262 202.603 185.262L214.207 185.262C215.874 185.262 217.226 183.91 217.226 182.243L217.226 179.929L221.182 179.929C222.85 179.929 224.201 178.577 224.201 176.91L224.201 155.595C224.201 153.928 222.85 152.576 221.182 152.576L217.226 152.576L217.226 149.838C217.226 148.171 215.874 146.819 214.207 146.819L190.715 146.819ZM217.226 155.595L221.182 155.595L221.182 176.91L217.226 176.91L217.226 155.595ZM157.823 222.605L147.303 217.288L145.411 221.164L156.002 226.334L157.823 222.605Z" fill="#A1A1A1"/>
<path d="M149.794 225.283C142.676 239.965 124.703 269.861 109.755 271.996C94.8067 274.131 30.8625 274.665 0.75885 274.665" stroke="#A1A1A1" stroke-width="4"/>
</svg>
